*
*
G04 PADS VX.2.4 Build Number: 11282995 generated Gerber (RS-274-X) file*
G04 PC Version=2.1*
*
%IN "ESP-12E Dev Board_with_"*%
*
%MOIN*%
*
%FSLAX35Y35*%
*
*
*
*
G04 PC Standard Apertures*
*
*
G04 Thermal Relief Aperture macro.*
%AMTER*
1,1,$1,0,0*
1,0,$1-$2,0,0*
21,0,$3,$4,0,0,45*
21,0,$3,$4,0,0,135*
%
*
*
G04 Annular Aperture macro.*
%AMANN*
1,1,$1,0,0*
1,0,$2,0,0*
%
*
*
G04 Odd Aperture macro.*
%AMODD*
1,1,$1,0,0*
1,0,$1-0.005,0,0*
%
*
*
G04 PC Custom Aperture Macros*
*
*
*
*
*
*
G04 PC Aperture Table*
*
%ADD010C,0.001*%
%ADD021O,0.0515X0.10299*%
%ADD022O,0.10299X0.0515*%
%ADD023O,0.15748X0.07874*%
%ADD024O,0.07874X0.15748*%
%ADD034C,0.07087*%
%ADD035C,0.16929*%
%ADD043C,0.00004*%
*
*
*
*
G04 PC Circuitry*
G04 Layer Name ESP-12E Dev Board_with_ - circuitry*
%LPD*%
*
*
G04 PC Custom Flashes*
G04 Layer Name ESP-12E Dev Board_with_ - flashes*
%LPD*%
*
*
G04 PC Circuitry*
G04 Layer Name ESP-12E Dev Board_with_ - circuitry*
%LPD*%
*
G54D10*
G54D21*
G01X132315Y237756D03*
X142157D03*
X152000D03*
X256693Y209756D03*
X266535D03*
X276378D03*
X286220D03*
X256693Y292756D03*
X266535D03*
X276378D03*
X286220D03*
X256693Y265756D03*
X266535D03*
X276378D03*
X286220D03*
X122693Y264945D03*
X132535D03*
X142378D03*
X152220D03*
X256615Y319726D03*
X266457D03*
X276300D03*
X256693Y237756D03*
X266535D03*
X276378D03*
X286220D03*
X132000Y210811D03*
X141843D03*
X151685D03*
G54D22*
X107000Y165366D03*
Y175209D03*
Y185051D03*
Y194894D03*
Y204736D03*
Y214579D03*
Y224421D03*
Y234264D03*
Y132181D03*
Y142024D03*
G54D23*
X136346Y145457D03*
Y120654D03*
G54D24*
X156031Y133646D03*
G54D34*
X133469Y279232D03*
X143311D03*
X153154D03*
G54D35*
X160240Y306791D03*
X126382D03*
G54D43*
X96063Y96063D02*
X100000Y92126D01*
X308661*
X312598Y96063*
Y324409*
X308661Y328346*
X100000*
X96063Y324409*
Y96063*
X0Y0D02*
M02*
