*
*
G04 PADS VX.2.4 Build Number: 11282995 generated Gerber (RS-274-X) file*
G04 PC Version=2.1*
*
%IN "ESP-12E Dev Board_with_"*%
*
%MOIN*%
*
%FSLAX35Y35*%
*
*
*
*
G04 PC Standard Apertures*
*
*
G04 Thermal Relief Aperture macro.*
%AMTER*
1,1,$1,0,0*
1,0,$1-$2,0,0*
21,0,$3,$4,0,0,45*
21,0,$3,$4,0,0,135*
%
*
*
G04 Annular Aperture macro.*
%AMANN*
1,1,$1,0,0*
1,0,$2,0,0*
%
*
*
G04 Odd Aperture macro.*
%AMODD*
1,1,$1,0,0*
1,0,$1-0.005,0,0*
%
*
*
G04 PC Custom Aperture Macros*
*
*
*
*
*
*
G04 PC Aperture Table*
*
%ADD010C,0.001*%
%ADD011R,0.05906X0.05118*%
%ADD012R,0.05118X0.05906*%
%ADD013R,0.09449X0.06299*%
%ADD014R,0.06299X0.09449*%
%ADD015R,0.11024X0.03937*%
%ADD016R,0.055X0.055*%
%ADD017R,0.01575X0.05315*%
%ADD018R,0.08661X0.06299*%
%ADD019R,0.07087X0.0748*%
%ADD020R,0.0748X0.0748*%
%ADD021O,0.0515X0.10299*%
%ADD022O,0.10299X0.0515*%
%ADD023O,0.15748X0.07874*%
%ADD024O,0.07874X0.15748*%
%ADD025R,0.04724X0.04724*%
%ADD026R,0.04331X0.01575*%
%ADD027R,0.09055X0.06299*%
%ADD028R,0.07874X0.04724*%
%ADD029R,0.04724X0.07874*%
%ADD030R,0.03543X0.07283*%
%ADD031R,0.12598X0.07283*%
%ADD032R,0.025X0.06*%
%ADD033R,0.039X0.012*%
%ADD034C,0.07087*%
%ADD035C,0.16929*%
%ADD043C,0.00004*%
%ADD070C,0.00107*%
*
*
*
*
G04 PC Circuitry*
G04 Layer Name ESP-12E Dev Board_with_ - circuitry*
%LPD*%
*
*
G04 PC Custom Flashes*
G04 Layer Name ESP-12E Dev Board_with_ - flashes*
%LPD*%
*
*
G04 PC Circuitry*
G04 Layer Name ESP-12E Dev Board_with_ - circuitry*
%LPD*%
*
G54D10*
G54D11*
G01X175926Y129460D03*
Y136940D03*
X178756Y221488D03*
Y214008D03*
X186750Y221534D03*
Y214054D03*
X232248Y141578D03*
Y149058D03*
X240826D03*
Y141578D03*
X179522Y173736D03*
Y181216D03*
X226845Y214060D03*
Y221540D03*
X151685Y176866D03*
Y169386D03*
X242865Y221551D03*
Y214071D03*
X234865D03*
Y221551D03*
X142685Y176866D03*
Y169386D03*
X218845Y214060D03*
Y221540D03*
X210845Y214060D03*
Y221540D03*
X194845Y214060D03*
Y221540D03*
X159882Y169386D03*
Y176866D03*
X133500D03*
Y169386D03*
X167000Y136940D03*
Y129460D03*
X202800Y221540D03*
Y214060D03*
G54D12*
X238956Y189148D03*
X246436D03*
X232178Y124052D03*
X239658D03*
X279686Y119500D03*
X287166D03*
X222060Y195600D03*
X229540D03*
G54D13*
X168356Y223854D03*
Y212043D03*
G54D14*
X285856Y187124D03*
X297667D03*
G54D15*
X298556Y140282D03*
X280052D03*
X298652Y167600D03*
X280148D03*
G54D16*
X184000Y141626D03*
Y128626D03*
X192400Y141826D03*
Y128826D03*
G54D17*
X181701Y110803D03*
X184260D03*
X186819D03*
X189378D03*
X191937D03*
G54D18*
X174417Y110311D03*
X199220D03*
G54D19*
X171071Y100272D03*
X202567D03*
G54D20*
X182094D03*
X191543D03*
G54D21*
X132315Y237756D03*
X142157D03*
X152000D03*
X256693Y209756D03*
X266535D03*
X276378D03*
X286220D03*
X256693Y292756D03*
X266535D03*
X276378D03*
X286220D03*
X256693Y265756D03*
X266535D03*
X276378D03*
X286220D03*
X122693Y264945D03*
X132535D03*
X142378D03*
X152220D03*
X256615Y319726D03*
X266457D03*
X276300D03*
X256693Y237756D03*
X266535D03*
X276378D03*
X286220D03*
X132000Y210811D03*
X141843D03*
X151685D03*
G54D22*
X107000Y165366D03*
Y175209D03*
Y185051D03*
Y194894D03*
Y204736D03*
Y214579D03*
Y224421D03*
Y234264D03*
Y132181D03*
Y142024D03*
G54D23*
X136346Y145457D03*
Y120654D03*
G54D24*
X156031Y133646D03*
G54D25*
X305808Y120322D03*
X297540D03*
G54D26*
X177291Y192685D03*
Y195244D03*
Y197803D03*
X170205D03*
Y195244D03*
Y192685D03*
G54D27*
X280028Y106126D03*
X255224D03*
X216157Y105874D03*
X240961D03*
G54D28*
X172252Y241630D03*
Y249504D03*
Y257378D03*
Y265252D03*
Y273126D03*
Y281000D03*
Y288874D03*
Y296748D03*
X236031Y241630D03*
Y249504D03*
Y257378D03*
Y265252D03*
Y273126D03*
Y281000D03*
Y288874D03*
Y296748D03*
G54D29*
X215559Y233756D03*
X184063D03*
X191937D03*
X223433D03*
X199811D03*
X207685D03*
G54D30*
X203441Y124669D03*
X212496D03*
X221551D03*
X250841D03*
X259896D03*
X268951D03*
G54D31*
X212496Y149079D03*
X259896D03*
G54D32*
X190752Y163146D03*
X200752Y184366D03*
X185752Y163146D03*
X195752D03*
X200752D03*
X195752Y184366D03*
X205752D03*
X210752D03*
Y163146D03*
X220752Y184366D03*
X205752Y163146D03*
X215752D03*
Y184366D03*
X220752Y163146D03*
X190752Y184366D03*
X185752D03*
G54D33*
X230013Y181122D03*
Y178563D03*
Y176004D03*
Y173445D03*
Y170886D03*
Y168327D03*
Y165768D03*
X252987D03*
Y168327D03*
Y170886D03*
Y173445D03*
Y176004D03*
Y178563D03*
Y181122D03*
G54D34*
X133469Y279232D03*
X143311D03*
X153154D03*
G54D35*
X160240Y306791D03*
X126382D03*
G54D43*
X96063Y96063D02*
X100000Y92126D01*
X308661*
X312598Y96063*
Y324409*
X308661Y328346*
X100000*
X96063Y324409*
Y96063*
G54D70*
X174581Y123849D02*
X174319Y123754D01*
X174056Y123563*
X173925Y123372*
Y122990*
X174056Y122799*
X174319Y122608*
X174581Y122513*
X174975Y122417*
X175631*
X176025Y122513*
X176288Y122608*
X176288D02*
X176550Y122799D01*
X176681Y122990*
Y123372*
X176550Y123563*
X176288Y123754*
X176288D02*
X176025Y123849D01*
X174450Y124708D02*
X174319Y124899D01*
X173925Y125186*
X176681*
X238028Y195448D02*
X237932Y195711D01*
X237742Y195973*
X237551Y196104*
X237169*
X236978Y195973*
X236787Y195711*
X236692Y195448*
X236596Y195054*
Y194398*
X236692Y194004*
X236787Y193742*
X236978Y193479*
X237169Y193348*
X237551*
X237742Y193479*
X237932Y193742*
X238028Y194004*
X238887Y195579D02*
X239078Y195711D01*
X239364Y196104*
Y193348*
X240319Y195448D02*
Y195579D01*
X240414Y195842*
X240510Y195973*
X240701Y196104*
X241082*
X241273Y195973*
X241369Y195842*
X241464Y195579*
Y195317*
X241369Y195054*
X241178Y194661*
X240223Y193348*
X241560*
X169028Y206763D02*
X168932Y207025D01*
X168741Y207288*
X168550Y207419*
X168169*
X167978Y207288*
X167787Y207025*
X167691Y206763*
X167596Y206369*
Y205713*
X167691Y205319*
X167787Y205057*
X167978Y204794*
X168169Y204663*
X168550*
X168741Y204794*
X168932Y205057*
X169028Y205319*
X169887Y206894D02*
X170078Y207025D01*
X170364Y207419*
Y204663*
X171414Y207419D02*
X172464D01*
X171891Y206369*
X172178*
X172369Y206238*
X172464Y206107*
X172560Y205713*
Y205450*
X172464Y205057*
X172273Y204794*
X171987Y204663*
X171700*
X171414Y204794*
X171319Y204925*
X171223Y205188*
X177837Y206632D02*
X177575Y206537D01*
X177312Y206346*
X177181Y206155*
Y205773*
X177312Y205582*
X177575Y205391*
X177837Y205296*
X178231Y205200*
X178887*
X179281Y205296*
X179543Y205391*
X179806Y205582*
X179937Y205773*
Y206155*
X179806Y206346*
X179543Y206537*
X179281Y206632*
X177706Y207491D02*
X177575Y207682D01*
X177181Y207969*
X179937*
X177181Y209782D02*
X179018Y208828D01*
Y210260*
X177181Y209782D02*
X179937D01*
X186031Y208110D02*
X185769Y208015D01*
X185506Y207824*
X185375Y207633*
Y207251*
X185506Y207060*
X185769Y206869*
X186031Y206774*
X186425Y206678*
X187081*
X187475Y206774*
X187738Y206869*
X187738D02*
X188000Y207060D01*
X188131Y207251*
Y207633*
X188000Y207824*
X187738Y208015*
X187738D02*
X187475Y208110D01*
X186031Y209065D02*
X185900D01*
X185638Y209160*
X185638D02*
X185506Y209256D01*
X185375Y209447*
Y209828*
X185506Y210019*
X185638Y210115*
X185638D02*
X185900Y210210D01*
X186163*
X186163D02*
X186425Y210115D01*
X186819Y209924*
X188131Y208969*
Y210306*
X230550Y130752D02*
X230454Y131014D01*
X230264Y131277*
X230073Y131408*
X229691*
X229500Y131277*
X229309Y131014*
X229214Y130752*
X229118Y130358*
Y129702*
X229214Y129308*
X229309Y129046*
X229500Y128783*
X229691Y128652*
X230073*
X230264Y128783*
X230454Y129046*
X230550Y129308*
X232364Y131408D02*
X231409Y129571D01*
X232841*
X232364Y131408D02*
Y128652D01*
X231050Y155152D02*
X230954Y155414D01*
X230764Y155677*
X230573Y155808*
X230191*
X230000Y155677*
X229809Y155414*
X229714Y155152*
X229618Y154758*
Y154102*
X229714Y153708*
X229809Y153446*
X230000Y153183*
X230191Y153052*
X230573*
X230764Y153183*
X230954Y153446*
X231050Y153708*
X233150Y155808D02*
X232195D01*
X232100Y154627*
X232195Y154758*
X232482Y154889*
X232768*
X233054Y154758*
X233245Y154496*
X233341Y154102*
X233245Y153839*
X233150Y153446*
X232959Y153183*
X232673Y153052*
X232386*
X232100Y153183*
X232004Y153314*
X231909Y153577*
X280476Y186119D02*
X280213Y186023D01*
X279951Y185832*
X279820Y185642*
Y185260*
X279951Y185069*
X280213Y184878*
X280476Y184782*
X280870Y184687*
X281526*
X281920Y184782*
X282182Y184878*
X282445Y185069*
X282576Y185260*
Y185642*
X282445Y185832*
X282182Y186023*
X281920Y186119*
X280213Y188123D02*
X279951Y188028D01*
X279820Y187742*
Y187551*
X279951Y187264*
X280345Y187073*
X281001Y186978*
X281657*
X282182Y187073*
X282445Y187264*
X282576Y187551*
Y187646*
X282445Y187932*
X282182Y188123*
X281788Y188219*
X281657*
X281263Y188123*
X281001Y187932*
X280870Y187646*
Y187551*
X281001Y187264*
X281263Y187073*
X281657Y186978*
X286520Y146901D02*
X286425Y147163D01*
X286234Y147426*
X286043Y147557*
X285661*
X285470Y147426*
X285279Y147163*
X285184Y146901*
X285088Y146507*
Y145851*
X285184Y145457*
X285279Y145194*
X285470Y144932*
X285661Y144801*
X286043*
X286234Y144932*
X286425Y145194*
X286520Y145457*
X288715Y147557D02*
X287761Y144801D01*
X287379Y147557D02*
X288715D01*
X239314Y155126D02*
X239218Y155388D01*
X239027Y155651*
X238836Y155782*
X238455*
X238264Y155651*
X238073Y155388*
X237977Y155126*
X237882Y154732*
Y154076*
X237977Y153682*
X238073Y153420*
X238264Y153157*
X238455Y153026*
X238836*
X239027Y153157*
X239218Y153420*
X239314Y153682*
X240173Y155257D02*
X240364Y155388D01*
X240650Y155782*
Y153026*
X242082Y155782D02*
X241796Y155651D01*
X241605Y155257*
X241509Y154601*
Y154207*
X241605Y153551*
X241796Y153157*
X242082Y153026*
X242273*
X242559Y153157*
X242750Y153551*
X242846Y154207*
Y154601*
X242750Y155257*
X242559Y155651*
X242273Y155782*
X242082*
X173622Y174508D02*
X173360Y174412D01*
X173097Y174221*
X172966Y174031*
Y173649*
X173097Y173458*
X173360Y173267*
X173622Y173171*
X174016Y173076*
X174672*
X175066Y173171*
X175328Y173267*
X175591Y173458*
X175722Y173649*
Y174031*
X175591Y174221*
X175328Y174412*
X175066Y174508*
X173491Y175367D02*
X173360Y175558D01*
X172966Y175844*
X175722*
X173491Y176703D02*
X173360Y176894D01*
X172966Y177181*
X175722*
X180500Y148382D02*
Y145626D01*
Y148382D02*
X181168D01*
X181455Y148251*
X181645Y147988*
X181741Y147726*
X181836Y147332*
Y146676*
X181741Y146282*
X181645Y146020*
X181455Y145757*
X181168Y145626*
X180500*
X182695Y147857D02*
X182886Y147988D01*
X183173Y148382*
Y145626*
X188900Y148582D02*
Y145826D01*
Y148582D02*
X189568D01*
X189855Y148451*
X190045Y148188*
X190141Y147926*
X190236Y147532*
Y146876*
X190141Y146482*
X190045Y146220*
X189855Y145957*
X189568Y145826*
X188900*
X191191Y147926D02*
Y148057D01*
X191286Y148320*
X191382Y148451*
X191573Y148582*
X191955*
X192145Y148451*
X192241Y148320*
X192336Y148057*
Y147795*
X192241Y147532*
X192050Y147138*
X191095Y145826*
X192432*
X209195Y97431D02*
Y95331D01*
X209099Y94937*
X209004Y94806*
X208813Y94674*
X208622*
X208431Y94806*
X208336Y94937*
X208240Y95331*
Y95593*
X210054Y96906D02*
X210245Y97037D01*
X210531Y97431*
Y94674*
X146329Y108382D02*
Y106282D01*
X146233Y105888*
X146138Y105757*
X145947Y105626*
X145756*
X145565Y105757*
X145469Y105888*
X145374Y106282*
Y106545*
X147188Y108382D02*
Y105626D01*
Y108382D02*
X148047D01*
X148333Y108251*
X148429Y108120*
X148524Y107857*
Y107463*
X148429Y107201*
X148333Y107070*
X148047Y106938*
X147188*
X149383Y107857D02*
X149574Y107988D01*
X149860Y108382*
Y105626*
X296474Y115378D02*
Y112622D01*
X297619*
X298479Y115378D02*
Y112622D01*
Y115378D02*
X299719D01*
X298479Y114066D02*
X299242D01*
X298479Y112622D02*
X299719D01*
X300579Y115378D02*
Y112622D01*
Y115378D02*
X301247D01*
X301533Y115247*
X301724Y114985*
X301819Y114722*
X301915Y114328*
Y113672*
X301819Y113278*
X301724Y113016*
X301533Y112753*
X301247Y112622*
X300579*
X302774Y114853D02*
X302965Y114985D01*
X303251Y115378*
Y112622*
X171045Y189760D02*
X170854Y189628D01*
X170663Y189366*
X170567Y189103*
X170472Y188710*
Y188053*
X170567Y187660*
X170663Y187397*
X170854Y187135*
X171045Y187003*
X171427*
X171617Y187135*
X171808Y187397*
X171904Y187660*
X171999Y188053*
Y188710*
X171904Y189103*
X171808Y189366*
X171617Y189628*
X171427Y189760*
X171045*
X171331Y187528D02*
X171904Y186741D01*
X172858Y189235D02*
X173049Y189366D01*
X173336Y189760*
Y187003*
X225380Y208239D02*
X228136D01*
X225380D02*
Y209098D01*
X225511Y209384*
X225643Y209480*
X225905Y209575*
X226168*
X226430Y209480*
X226561Y209384*
X226693Y209098*
Y208239*
Y208907D02*
X228136Y209575D01*
X225905Y210434D02*
X225774Y210625D01*
X225380Y210912*
X225380D02*
X228136D01*
X149881Y159658D02*
X152637D01*
X149881D02*
Y160517D01*
X150012Y160804*
X150143Y160899*
X150406Y160995*
X150668*
X150931Y160899*
X151062Y160804*
X151193Y160517*
Y159658*
Y160326D02*
X152637Y160995D01*
X150406Y161854D02*
X150275Y162045D01*
X149881Y162331*
X152637*
X149881Y163763D02*
X150012Y163476D01*
X150406Y163286*
X151062Y163190*
X151456*
X152112Y163286*
X152506Y163476*
X152637Y163763*
Y163954*
X152506Y164240*
X152112Y164431*
X151456Y164526*
X151062*
X150406Y164431*
X150012Y164240*
X149881Y163954*
Y163763*
X241186Y206128D02*
X243942D01*
X241186D02*
Y206987D01*
X241317Y207274*
X241449Y207369*
X241711Y207465*
X241974*
X242236Y207369*
X242367Y207274*
X242499Y206987*
Y206128*
Y206797D02*
X243942Y207465D01*
X241711Y208324D02*
X241580Y208515D01*
X241186Y208801*
X243942*
X241842Y209756D02*
X241711D01*
X241449Y209851*
X241317Y209947*
X241186Y210137*
Y210519*
X241317Y210710*
X241449Y210806*
X241711Y210901*
X241974*
X242236Y210806*
X242630Y210615*
X243942Y209660*
Y210997*
X233786Y206028D02*
X236542D01*
X233786D02*
Y206887D01*
X233917Y207174*
X234049Y207269*
X234311Y207365*
X234574*
X234836Y207269*
X234967Y207174*
X235099Y206887*
Y206028*
Y206697D02*
X236542Y207365D01*
X234311Y208224D02*
X234180Y208415D01*
X233786Y208701*
X236542*
X233786Y209751D02*
Y210801D01*
X234836Y210228*
Y210515*
X234967Y210706*
X235099Y210801*
X235492Y210897*
X235755*
X236149Y210801*
X236411Y210610*
X236542Y210324*
Y210037*
X236411Y209751*
X236280Y209656*
X236017Y209560*
X141429Y160517D02*
X144185D01*
X141429D02*
Y161376D01*
X141560Y161663*
X141691Y161758*
X141954Y161854*
X142216*
X142479Y161758*
X142610Y161663*
X142741Y161376*
Y160517*
Y161186D02*
X144185Y161854D01*
X141954Y162713D02*
X141823Y162904D01*
X141429Y163190*
X144185*
X141954Y164049D02*
X141823Y164240D01*
X141429Y164526*
X144185*
X217580Y207380D02*
X220336D01*
X217580D02*
Y208239D01*
X217711Y208525*
X217843Y208621*
X218105Y208716*
X218368*
X218630Y208621*
X218761Y208525*
X218893Y208239*
Y207380*
Y208048D02*
X220336Y208716D01*
X218236Y209671D02*
X218105D01*
X217843Y209766*
X217711Y209862*
X217580Y210052*
Y210434*
X217711Y210625*
X217843Y210721*
X218105Y210816*
X218368*
X218630Y210721*
X219024Y210530*
X220336Y209575*
Y210912*
X209580Y207180D02*
X212336D01*
X209580D02*
Y208039D01*
X209711Y208325*
X209843Y208421*
X210105Y208516*
X210368*
X210630Y208421*
X210761Y208325*
X210893Y208039*
Y207180*
Y207848D02*
X212336Y208516D01*
X209580Y209566D02*
Y210616D01*
X210630Y210043*
Y210330*
X210761Y210521*
X210893Y210616*
X211286Y210712*
X211549*
X211943Y210616*
X212205Y210425*
X212336Y210139*
Y209852*
X212205Y209566*
X212074Y209471*
X211811Y209375*
X193580Y207084D02*
X196336D01*
X193580D02*
Y207943D01*
X193711Y208230*
X193843Y208325*
X194105Y208421*
X194368*
X194630Y208325*
X194761Y208230*
X194893Y207943*
Y207084*
Y207752D02*
X196336Y208421D01*
X193580Y210234D02*
X195418Y209280D01*
Y210712*
X193580Y210234D02*
X196336D01*
X158407Y161010D02*
X161163D01*
X158407D02*
Y161869D01*
X158538Y162156*
X158669Y162251*
X158932Y162347*
X159194*
X159457Y162251*
X159588Y162156*
X159719Y161869*
Y161010*
Y161678D02*
X161163Y162347D01*
X158407Y164447D02*
Y163492D01*
X159588Y163397*
X159457Y163492*
X159326Y163778*
Y164065*
X159457Y164351*
X159719Y164542*
X160113Y164637*
X160376Y164542*
X160769Y164447*
X161032Y164256*
X161163Y163969*
Y163683*
X161032Y163397*
X160901Y163301*
X160638Y163206*
X285175Y114749D02*
Y111993D01*
Y114749D02*
X286034D01*
X286321Y114618*
X286416Y114487*
X286512Y114224*
Y113962*
X286416Y113699*
X286321Y113568*
X286034Y113437*
X285175*
X285843D02*
X286512Y111993D01*
X288516Y114355D02*
X288421Y114618D01*
X288134Y114749*
X287943*
X287657Y114618*
X287466Y114224*
X287371Y113568*
Y112912*
X287466Y112387*
X287657Y112124*
X287943Y111993*
X288039*
X288325Y112124*
X288516Y112387*
X288612Y112780*
Y112912*
X288516Y113305*
X288325Y113568*
X288039Y113699*
X287943*
X287657Y113568*
X287466Y113305*
X287371Y112912*
X131951Y160780D02*
X134707D01*
X131951D02*
Y161639D01*
X132082Y161925*
X132213Y162021*
X132476Y162116*
X132738*
X133001Y162021*
X133132Y161925*
X133263Y161639*
Y160780*
Y161448D02*
X134707Y162116D01*
X131951Y164312D02*
X134707Y163357D01*
X131951Y162975D02*
Y164312D01*
X258500Y116955D02*
X258309Y117218D01*
X258023Y117349*
X257641*
X257354Y117218*
X257163Y116955*
Y116693*
X257259Y116430*
X257354Y116299*
X257545Y116168*
X258118Y115905*
X258309Y115774*
X258404Y115643*
X258500Y115380*
Y114987*
X258309Y114724*
X258023Y114593*
X257641*
X257354Y114724*
X257163Y114987*
X259359Y116824D02*
X259550Y116955D01*
X259836Y117349*
Y114593*
X218767Y115988D02*
X218576Y116251D01*
X218290Y116382*
X217908*
X217622Y116251*
X217431Y115988*
Y115726*
X217526Y115463*
X217622Y115332*
X217813Y115201*
X218385Y114938*
X218576Y114807*
X218672Y114676*
X218767Y114413*
Y114020*
X218576Y113757*
X218290Y113626*
X217908*
X217622Y113757*
X217431Y114020*
X219722Y115726D02*
Y115857D01*
X219817Y116120*
X219913Y116251*
X220104Y116382*
X220485*
X220676Y116251*
X220772Y116120*
X220867Y115857*
Y115595*
X220772Y115332*
X220581Y114938*
X219626Y113626*
X220963*
X210915Y133990D02*
Y132021D01*
X211011Y131627*
X211202Y131365*
X211488Y131233*
X211679*
X211965Y131365*
X212156Y131627*
X212252Y132021*
Y133990*
X213111Y133465D02*
X213302Y133596D01*
X213588Y133990*
Y131233*
X257886Y133990D02*
Y132021D01*
X257981Y131627*
X258172Y131365*
X258459Y131233*
X258650*
X258936Y131365*
X259127Y131627*
X259222Y132021*
Y133990*
X260177Y133333D02*
Y133465D01*
X260272Y133727*
X260368Y133858*
X260559Y133990*
X260940*
X261131Y133858*
X261227Y133727*
X261322Y133465*
Y133202*
X261227Y132940*
X261036Y132546*
X260081Y131233*
X261418*
X216232Y179231D02*
Y177262D01*
X216327Y176868*
X216518Y176606*
X216804Y176475*
X216995*
X217282Y176606*
X217473Y176868*
X217568Y177262*
Y179231*
X218618D02*
X219668D01*
X219095Y178181*
X219382*
X219573Y178050*
X219668Y177918*
X219763Y177525*
Y177262*
X219668Y176868*
X219477Y176606*
X219191Y176475*
X218904*
X218618Y176606*
X218523Y176737*
X218427Y177000*
X233300Y170401D02*
Y168432D01*
X233395Y168039*
X233586Y167776*
X233873Y167645*
X234064*
X234350Y167776*
X234541Y168039*
X234636Y168432*
Y170401*
X236450D02*
X235495Y168564D01*
X236927*
X236450Y170401D02*
Y167645D01*
X138713Y319704D02*
X139477Y316948D01*
X140241Y319704D02*
X139477Y316948D01*
X141100Y319704D02*
Y316948D01*
Y319704D02*
X141959D01*
X142245Y319573*
X142341Y319442*
X142436Y319179*
Y318917*
X142341Y318654*
X142245Y318523*
X141959Y318392*
X141100*
X141768D02*
X142436Y316948D01*
X143295Y319179D02*
X143486Y319311D01*
X143773Y319704*
Y316948*
X292912Y161819D02*
X292816Y162081D01*
X292625Y162344*
X292434Y162475*
X292052*
X291862Y162344*
X291671Y162081*
X291575Y161819*
X291480Y161425*
Y160769*
X291575Y160375*
X291671Y160113*
X291862Y159850*
X292052Y159719*
X292434*
X292625Y159850*
X292816Y160113*
X292912Y160375*
X295012Y161556D02*
X294916Y161163D01*
X294725Y160900*
X294439Y160769*
X294343*
X294057Y160900*
X293866Y161163*
X293771Y161556*
Y161688*
X293866Y162081*
X294057Y162344*
X294343Y162475*
X294439*
X294725Y162344*
X294916Y162081*
X295012Y161556*
Y160900*
X294916Y160244*
X294725Y159850*
X294439Y159719*
X294248*
X293962Y159850*
X293866Y160113*
X166581Y122916D02*
X166319Y122821D01*
X166056Y122630*
X165925Y122439*
Y122057*
X166056Y121866*
X166319Y121675*
X166581Y121580*
X166975Y121484*
X167631*
X168025Y121580*
X168288Y121675*
X168288D02*
X168550Y121866D01*
X168681Y122057*
Y122439*
X168550Y122630*
X168288Y122821*
X168288D02*
X168025Y122916D01*
X165925Y124252D02*
X166056Y123966D01*
X166319Y123871*
X166581*
X166844Y123966*
X166975Y124157*
X167106Y124539*
X167238Y124825*
X167238D02*
X167500Y125016D01*
X167763Y125112*
X167763D02*
X168156D01*
X168156D02*
X168419Y125016D01*
X168550Y124921*
X168681Y124634*
Y124252*
X168550Y123966*
X168419Y123871*
X168156Y123775*
X167763*
X167763D02*
X167500Y123871D01*
X167238Y124062*
X167238D02*
X167106Y124348D01*
X166975Y124730*
X166844Y124921*
X166581Y125016*
X166319*
X166056Y124921*
X165925Y124634*
Y124252*
X201981Y208516D02*
X201719Y208421D01*
X201456Y208230*
X201325Y208039*
Y207657*
X201456Y207466*
X201719Y207275*
X201981Y207180*
X202375Y207084*
X203031*
X203425Y207180*
X203688Y207275*
X203688D02*
X203950Y207466D01*
X204081Y207657*
Y208039*
X203950Y208230*
X203688Y208421*
X203688D02*
X203425Y208516D01*
X201325Y209566D02*
Y210616D01*
X202375Y210043*
Y210330*
X202506Y210521*
X202638Y210616*
X202638D02*
X203031Y210712D01*
X203031D02*
X203294D01*
X203294D02*
X203688Y210616D01*
X203688D02*
X203950Y210425D01*
X204081Y210139*
Y209852*
X203950Y209566*
X203819Y209471*
X203556Y209375*
X213684Y196419D02*
X213589Y196681D01*
X213398Y196944*
X213207Y197075*
X212825*
X212634Y196944*
X212443Y196681*
X212348Y196419*
X212252Y196025*
Y195369*
X212348Y194975*
X212443Y194713*
X212443D02*
X212634Y194450D01*
X212825Y194319*
X213207*
X213398Y194450*
X213589Y194713*
X213589D02*
X213684Y194975D01*
X214543Y196550D02*
X214734Y196681D01*
X215021Y197075*
Y194319*
X217121Y197075D02*
X216166D01*
X216071Y195894*
X216166Y196025*
X216452Y196156*
X216739*
X217025Y196025*
X217216Y195763*
X217216D02*
X217312Y195369D01*
X217216Y195106*
X217121Y194713*
X217121D02*
X216930Y194450D01*
X216643Y194319*
X216357*
X216071Y194450*
X215975Y194581*
X215880Y194844*
X0Y0D02*
M02*
