*
*
G04 PADS VX.2.4 Build Number: 11282995 generated Gerber (RS-274-X) file*
G04 PC Version=2.1*
*
%IN "ESP-12E Dev Board_with_"*%
*
%MOIN*%
*
%FSLAX35Y35*%
*
*
*
*
G04 PC Standard Apertures*
*
*
G04 Thermal Relief Aperture macro.*
%AMTER*
1,1,$1,0,0*
1,0,$1-$2,0,0*
21,0,$3,$4,0,0,45*
21,0,$3,$4,0,0,135*
%
*
*
G04 Annular Aperture macro.*
%AMANN*
1,1,$1,0,0*
1,0,$2,0,0*
%
*
*
G04 Odd Aperture macro.*
%AMODD*
1,1,$1,0,0*
1,0,$1-0.005,0,0*
%
*
*
G04 PC Custom Aperture Macros*
*
*
*
*
*
*
G04 PC Aperture Table*
*
%ADD010C,0.001*%
%ADD039C,0.01*%
%ADD043C,0.00004*%
*
*
*
*
G04 PC Circuitry*
G04 Layer Name ESP-12E Dev Board_with_ - circuitry*
%LPD*%
*
*
G04 PC Custom Flashes*
G04 Layer Name ESP-12E Dev Board_with_ - flashes*
%LPD*%
*
*
G04 PC Circuitry*
G04 Layer Name ESP-12E Dev Board_with_ - circuitry*
%LPD*%
*
G54D10*
G54D39*
G01X128315Y237756D02*
X136315D01*
X132315Y233756D02*
Y241756D01*
X138157Y237756D02*
X146157D01*
X142157Y233756D02*
Y241756D01*
X148000Y237756D02*
X156000D01*
X152000Y233756D02*
Y241756D01*
X252693Y209756D02*
X260693D01*
X256693Y205756D02*
Y213756D01*
X262535Y209756D02*
X270535D01*
X266535Y205756D02*
Y213756D01*
X272378Y209756D02*
X280378D01*
X276378Y205756D02*
Y213756D01*
X282220Y209756D02*
X290220D01*
X286220Y205756D02*
Y213756D01*
X103000Y165366D02*
X111000D01*
X107000Y161366D02*
Y169366D01*
X103000Y175209D02*
X111000D01*
X107000Y171209D02*
Y179209D01*
X103000Y185051D02*
X111000D01*
X107000Y181051D02*
Y189051D01*
X103000Y194894D02*
X111000D01*
X107000Y190894D02*
Y198894D01*
X103000Y204736D02*
X111000D01*
X107000Y200736D02*
Y208736D01*
X103000Y214579D02*
X111000D01*
X107000Y210579D02*
Y218579D01*
X103000Y224421D02*
X111000D01*
X107000Y220421D02*
Y228421D01*
X103000Y234264D02*
X111000D01*
X107000Y230264D02*
Y238264D01*
X252693Y292756D02*
X260693D01*
X256693Y288756D02*
Y296756D01*
X262535Y292756D02*
X270535D01*
X266535Y288756D02*
Y296756D01*
X272378Y292756D02*
X280378D01*
X276378Y288756D02*
Y296756D01*
X282220Y292756D02*
X290220D01*
X286220Y288756D02*
Y296756D01*
X103000Y132181D02*
X111000D01*
X107000Y128181D02*
Y136181D01*
X103000Y142024D02*
X111000D01*
X107000Y138024D02*
Y146024D01*
X252693Y265756D02*
X260693D01*
X256693Y261756D02*
Y269756D01*
X262535Y265756D02*
X270535D01*
X266535Y261756D02*
Y269756D01*
X272378Y265756D02*
X280378D01*
X276378Y261756D02*
Y269756D01*
X282220Y265756D02*
X290220D01*
X286220Y261756D02*
Y269756D01*
X118693Y264945D02*
X126693D01*
X122693Y260945D02*
Y268945D01*
X128535Y264945D02*
X136535D01*
X132535Y260945D02*
Y268945D01*
X138378Y264945D02*
X146378D01*
X142378Y260945D02*
Y268945D01*
X148220Y264945D02*
X156220D01*
X152220Y260945D02*
Y268945D01*
X252615Y319726D02*
X260615D01*
X256615Y315726D02*
Y323726D01*
X262457Y319726D02*
X270457D01*
X266457Y315726D02*
Y323726D01*
X272300Y319726D02*
X280300D01*
X276300Y315726D02*
Y323726D01*
X252693Y237756D02*
X260693D01*
X256693Y233756D02*
Y241756D01*
X262535Y237756D02*
X270535D01*
X266535Y233756D02*
Y241756D01*
X272378Y237756D02*
X280378D01*
X276378Y233756D02*
Y241756D01*
X282220Y237756D02*
X290220D01*
X286220Y233756D02*
Y241756D01*
X132346Y141457D02*
X140346Y149457D01*
X132346D02*
X140346Y141457D01*
X132346Y116654D02*
X140346Y124654D01*
X132346D02*
X140346Y116654D01*
X152031Y129646D02*
X160031Y137646D01*
X152031D02*
X160031Y129646D01*
X129469Y275232D02*
X137469D01*
Y283232*
X129469*
Y275232*
X133469Y279232D02*
Y283232D01*
X139311Y275232D02*
X147311D01*
Y283232*
X139311*
Y275232*
X143311Y279232D02*
Y283232D01*
X149154Y275232D02*
X157154D01*
Y283232*
X149154*
Y275232*
X153154Y279232D02*
Y283232D01*
X160240Y302791D02*
X164240Y306791D01*
X160240Y310791*
X156240Y306791*
X160240Y302791*
Y306791D02*
Y310791D01*
X126382Y302791D02*
X130382Y306791D01*
X126382Y310791*
X122382Y306791*
X126382Y302791*
Y306791D02*
Y310791D01*
X128000Y210811D02*
X136000D01*
X132000Y206811D02*
Y214811D01*
X137843Y210811D02*
X145843D01*
X141843Y206811D02*
Y214811D01*
X147685Y210811D02*
X155685D01*
X151685Y206811D02*
Y214811D01*
X103874Y312535D02*
X111874D01*
X103874Y320535*
X111874*
X103874Y312535*
X296787D02*
X304787D01*
X296787Y320535*
X304787*
X296787Y312535*
Y99937D02*
X304787D01*
X296787Y107937*
X304787*
X296787Y99937*
X103874D02*
X111874D01*
X103874Y107937*
X111874*
X103874Y99937*
X114800Y108000D02*
X122800Y116000D01*
Y108000*
X114800Y116000*
Y108000*
X146800Y112200D02*
X154800Y120200D01*
Y112200*
X146800Y120200*
Y112200*
X157400Y105800D02*
X165400Y113800D01*
Y105800*
X157400Y113800*
Y105800*
X190800Y114400D02*
X198800Y122400D01*
Y114400*
X190800Y122400*
Y114400*
X205000Y102000D02*
X213000Y110000D01*
Y102000*
X205000Y110000*
Y102000*
X186200Y114600D02*
X194200Y122600D01*
Y114600*
X186200Y122600*
Y114600*
X203800Y108000D02*
X211800Y116000D01*
Y108000*
X203800Y116000*
Y108000*
X195400Y126800D02*
X203400Y134800D01*
Y126800*
X195400Y134800*
Y126800*
X199600Y113200D02*
X207600Y121200D01*
Y113200*
X199600Y121200*
Y113200*
X246400Y130600D02*
X254400Y138600D01*
Y130600*
X246400Y138600*
Y130600*
X233400Y111000D02*
X241400Y119000D01*
Y111000*
X233400Y119000*
Y111000*
X251600Y120600D02*
X259600Y128600D01*
Y120600*
X251600Y128600*
Y120600*
X216000Y129000D02*
X224000Y137000D01*
Y129000*
X216000Y137000*
Y129000*
X267300Y111600D02*
X275300Y119600D01*
Y111600*
X267300Y119600*
Y111600*
X275700Y124000D02*
X283700Y132000D01*
Y124000*
X275700Y132000*
Y124000*
X260400D02*
X268400Y132000D01*
Y124000*
X260400Y132000*
Y124000*
X288400Y132000D02*
X296400Y140000D01*
Y132000*
X288400Y140000*
Y132000*
X262600Y132400D02*
X270600Y140400D01*
Y132400*
X262600Y140400*
Y132400*
X295800Y127000D02*
X303800Y135000D01*
Y127000*
X295800Y135000*
Y127000*
X130000Y152000D02*
X138000Y160000D01*
Y152000*
X130000Y160000*
Y152000*
X119000Y153500D02*
X127000Y161500D01*
Y153500*
X119000Y161500*
Y153500*
X143200Y158600D02*
X151200Y166600D01*
Y158600*
X143200Y166600*
Y158600*
X163800Y173000D02*
X171800Y181000D01*
Y173000*
X163800Y181000*
Y173000*
X168000Y146200D02*
X176000Y154200D01*
Y146200*
X168000Y154200*
Y146200*
X174400Y163600D02*
X182400Y171600D01*
Y163600*
X174400Y171600*
Y163600*
X163200Y165600D02*
X171200Y173600D01*
Y165600*
X163200Y173600*
Y165600*
X145000Y138000D02*
X153000Y146000D01*
Y138000*
X145000Y146000*
Y138000*
X161400Y155200D02*
X169400Y163200D01*
Y155200*
X161400Y163200*
Y155200*
X202200Y174000D02*
X210200Y182000D01*
Y174000*
X202200Y182000*
Y174000*
X202000Y152000D02*
X210000Y160000D01*
Y152000*
X202000Y160000*
Y152000*
X207000D02*
X215000Y160000D01*
Y152000*
X207000Y160000*
Y152000*
Y174000D02*
X215000Y182000D01*
Y174000*
X207000Y182000*
Y174000*
X188000Y166600D02*
X196000Y174600D01*
Y166600*
X188000Y174600*
Y166600*
X185000Y153000D02*
X193000Y161000D01*
Y153000*
X185000Y161000*
Y153000*
X197800Y137600D02*
X205800Y145600D01*
Y137600*
X197800Y145600*
Y137600*
X213800Y152600D02*
X221800Y160600D01*
Y152600*
X213800Y160600*
Y152600*
X242900Y172100D02*
X250900Y180100D01*
Y172100*
X242900Y180100*
Y172100*
X220800Y175800D02*
X228800Y183800D01*
Y175800*
X220800Y183800*
Y175800*
X221000Y161600D02*
X229000Y169600D01*
Y161600*
X221000Y169600*
Y161600*
X238400Y163000D02*
X246400Y171000D01*
Y163000*
X238400Y171000*
Y163000*
X244400Y145000D02*
X252400Y153000D01*
Y145000*
X244400Y153000*
Y145000*
X232000Y152600D02*
X240000Y160600D01*
Y152600*
X232000Y160600*
Y152600*
X288800Y169800D02*
X296800Y177800D01*
Y169800*
X288800Y177800*
Y169800*
X268600Y173000D02*
X276600Y181000D01*
Y173000*
X268600Y181000*
Y173000*
X263600Y155400D02*
X271600Y163400D01*
Y155400*
X263600Y163400*
Y155400*
X296000Y174600D02*
X304000Y182600D01*
Y174600*
X296000Y182600*
Y174600*
Y147200D02*
X304000Y155200D01*
Y147200*
X296000Y155200*
Y147200*
X296200Y154200D02*
X304200Y162200D01*
Y154200*
X296200Y162200*
Y154200*
X113200Y196000D02*
X121200Y204000D01*
Y196000*
X113200Y204000*
Y196000*
X133800Y187600D02*
X141800Y195600D01*
Y187600*
X133800Y195600*
Y187600*
X120800Y183200D02*
X128800Y191200D01*
Y183200*
X120800Y191200*
Y183200*
X118000Y179000D02*
X126000Y187000D01*
Y179000*
X118000Y187000*
Y179000*
X150200Y180000D02*
X158200Y188000D01*
Y180000*
X150200Y188000*
Y180000*
X147000Y189000D02*
X155000Y197000D01*
Y189000*
X147000Y197000*
Y189000*
X161200Y191600D02*
X169200Y199600D01*
Y191600*
X161200Y199600*
Y191600*
X165400Y176600D02*
X173400Y184600D01*
Y176600*
X165400Y184600*
Y176600*
X155200Y206000D02*
X163200Y214000D01*
Y206000*
X155200Y214000*
Y206000*
X142800Y213600D02*
X150800Y221600D01*
Y213600*
X142800Y221600*
Y213600*
X161400Y197600D02*
X169400Y205600D01*
Y197600*
X161400Y205600*
Y197600*
X168800Y198000D02*
X176800Y206000D01*
Y198000*
X168800Y206000*
Y198000*
X171400Y203400D02*
X179400Y211400D01*
Y203400*
X171400Y211400*
Y203400*
X138000Y179000D02*
X146000Y187000D01*
Y179000*
X138000Y187000*
Y179000*
X179800Y195900D02*
X187800Y203900D01*
Y195900*
X179800Y203900*
Y195900*
X209000Y198200D02*
X217000Y206200D01*
Y198200*
X209000Y206200*
Y198200*
X181400Y186200D02*
X189400Y194200D01*
Y186200*
X181400Y194200*
Y186200*
X176000Y182800D02*
X184000Y190800D01*
Y182800*
X176000Y190800*
Y182800*
X213400Y197800D02*
X221400Y205800D01*
Y197800*
X213400Y205800*
Y197800*
X210200Y191400D02*
X218200Y199400D01*
Y191400*
X210200Y199400*
Y191400*
X253100Y189000D02*
X261100Y197000D01*
Y189000*
X253100Y197000*
Y189000*
X239600Y177000D02*
X247600Y185000D01*
Y177000*
X239600Y185000*
Y177000*
X250200Y191600D02*
X258200Y199600D01*
Y191600*
X250200Y199600*
Y191600*
X226000Y186000D02*
X234000Y194000D01*
Y186000*
X226000Y194000*
Y186000*
X227400Y204200D02*
X235400Y212200D01*
Y204200*
X227400Y212200*
Y204200*
X265400Y196900D02*
X273400Y204900D01*
Y196900*
X265400Y204900*
Y196900*
X270600Y186600D02*
X278600Y194600D01*
Y186600*
X270600Y194600*
Y186600*
X257000Y186000D02*
X265000Y194000D01*
Y186000*
X257000Y194000*
Y186000*
X294600Y197000D02*
X302600Y205000D01*
Y197000*
X294600Y205000*
Y197000*
X104800Y241800D02*
X112800Y249800D01*
Y241800*
X104800Y249800*
Y241800*
X118800Y251800D02*
X126800Y259800D01*
Y251800*
X118800Y259800*
Y251800*
X175000Y223800D02*
X183000Y231800D01*
Y223800*
X175000Y231800*
Y223800*
X173200Y232400D02*
X181200Y240400D01*
Y232400*
X173200Y240400*
Y232400*
X150000Y242000D02*
X158000Y250000D01*
Y242000*
X150000Y250000*
Y242000*
X207600Y237600D02*
X215600Y245600D01*
Y237600*
X207600Y245600*
Y237600*
X187400Y223200D02*
X195400Y231200D01*
Y223200*
X187400Y231200*
Y223200*
X194400Y245600D02*
X202400Y253600D01*
Y245600*
X194400Y253600*
Y245600*
X212600D02*
X220600Y253600D01*
Y245600*
X212600Y253600*
Y245600*
X196200Y223200D02*
X204200Y231200D01*
Y223200*
X196200Y231200*
Y223200*
X182200D02*
X190200Y231200D01*
Y223200*
X182200Y231200*
Y223200*
X240400Y227200D02*
X248400Y235200D01*
Y227200*
X240400Y235200*
Y227200*
X221600Y236600D02*
X229600Y244600D01*
Y236600*
X221600Y244600*
Y236600*
X230600Y225200D02*
X238600Y233200D01*
Y225200*
X230600Y233200*
Y225200*
X239000Y245000D02*
X247000Y253000D01*
Y245000*
X239000Y253000*
Y245000*
X231400Y231900D02*
X239400Y239900D01*
Y231900*
X231400Y239900*
Y231900*
X238200Y231600D02*
X246200Y239600D01*
Y231600*
X238200Y239600*
Y231600*
X223800Y240000D02*
X231800Y248000D01*
Y240000*
X223800Y248000*
Y240000*
X253000Y224000D02*
X261000Y232000D01*
Y224000*
X253000Y232000*
Y224000*
X240000Y237800D02*
X248000Y245800D01*
Y237800*
X240000Y245800*
Y237800*
X268000Y253000D02*
X276000Y261000D01*
Y253000*
X268000Y261000*
Y253000*
X120200Y269200D02*
X128200Y277200D01*
Y269200*
X120200Y277200*
Y269200*
X161400Y261100D02*
X169400Y269100D01*
Y261100*
X161400Y269100*
Y261100*
X155000Y264000D02*
X163000Y272000D01*
Y264000*
X155000Y272000*
Y264000*
X207600Y257000D02*
X215600Y265000D01*
Y257000*
X207600Y265000*
Y257000*
X177200Y292600D02*
X185200Y300600D01*
Y292600*
X177200Y300600*
Y292600*
X199000Y258000D02*
X207000Y266000D01*
Y258000*
X199000Y266000*
Y258000*
X188800Y261000D02*
X196800Y269000D01*
Y261000*
X188800Y269000*
Y261000*
X208000Y292000D02*
X216000Y300000D01*
Y292000*
X208000Y300000*
Y292000*
X189000D02*
X197000Y300000D01*
Y292000*
X189000Y300000*
Y292000*
X254400Y281400D02*
X262400Y289400D01*
Y281400*
X254400Y289400*
Y281400*
X222000Y293000D02*
X230000Y301000D01*
Y293000*
X222000Y301000*
Y293000*
X253200Y271000D02*
X261200Y279000D01*
Y271000*
X253200Y279000*
Y271000*
X246500Y269300D02*
X254500Y277300D01*
Y269300*
X246500Y277300*
Y269300*
X222000Y285000D02*
X230000Y293000D01*
Y285000*
X222000Y293000*
Y285000*
X246600Y257200D02*
X254600Y265200D01*
Y257200*
X246600Y265200*
Y257200*
X248000Y280000D02*
X256000Y288000D01*
Y280000*
X248000Y288000*
Y280000*
X238000Y315000D02*
X246000Y323000D01*
Y315000*
X238000Y323000*
Y315000*
X295200Y301000D02*
X303200Y309000D01*
Y301000*
X295200Y309000*
Y301000*
X351970Y260124D02*
X609970D01*
X351970Y236124D02*
X609970D01*
X351970Y212124D02*
X609970D01*
X351970Y188124D02*
X609970D01*
X351970Y164124D02*
X609970D01*
X351970Y140124D02*
X609970D01*
X351970Y116124D02*
X609970D01*
X351970Y92124D02*
X609970D01*
X351970Y260124D02*
Y92124D01*
X435970Y260124D02*
Y92124D01*
X471970Y260124D02*
Y92124D01*
X507970Y260124D02*
Y92124D01*
X561970Y260124D02*
Y92124D01*
X609970Y260124D02*
Y92124D01*
X387470Y248874D02*
X386925Y249624D01*
X386107Y249999*
X385016*
X384198Y249624*
X383652Y248874*
Y248124*
X383925Y247374*
X384198Y246999*
X384743Y246624*
X386380Y245874*
X386925Y245499*
X387198Y245124*
X387470Y244374*
Y243249*
X386925Y242499*
X386107Y242124*
X385016*
X384198Y242499*
X383652Y243249*
X389925Y249999D02*
Y242124D01*
X396198Y249999D02*
X392380Y242124D01*
Y249999D02*
X396198D01*
X392380Y242124D02*
X396198D01*
X398652Y249999D02*
Y242124D01*
Y249999D02*
X402198D01*
X398652Y246249D02*
X400834D01*
X398652Y242124D02*
X402198D01*
X445834Y249999D02*
X445289Y249624D01*
X444743Y248874*
X444470Y248124*
X444198Y246999*
Y245124*
X444470Y243999*
X444743Y243249*
X445289Y242499*
X445834Y242124*
X446925*
X447470Y242499*
X448016Y243249*
X448289Y243999*
X448561Y245124*
Y246999*
X448289Y248124*
X448016Y248874*
X447470Y249624*
X446925Y249999*
X445834*
X446652Y243624D02*
X448289Y241374D01*
X452925Y249999D02*
Y242124D01*
X451016Y249999D02*
X454834D01*
X457289D02*
X459470Y246249D01*
Y242124*
X461652Y249999D02*
X459470Y246249D01*
X484016Y248874D02*
X483470Y249624D01*
X482652Y249999*
X481561*
X480743Y249624*
X480198Y248874*
Y248124*
X480470Y247374*
X480743Y246999*
X481289Y246624*
X482925Y245874*
X483470Y245499*
X483743Y245124*
X484016Y244374*
Y243249*
X483470Y242499*
X482652Y242124*
X481561*
X480743Y242499*
X480198Y243249*
X486470Y249999D02*
X488652Y246249D01*
Y242124*
X490834Y249999D02*
X488652Y246249D01*
X493289Y249999D02*
Y242124D01*
Y249999D02*
X495470Y242124D01*
X497652Y249999D02*
X495470Y242124D01*
X497652Y249999D02*
Y242124D01*
X519470Y249999D02*
Y242124D01*
Y249999D02*
X521925D01*
X522743Y249624*
X523016Y249249*
X523289Y248499*
Y247374*
X523016Y246624*
X522743Y246249*
X521925Y245874*
X519470*
X525743Y249999D02*
Y242124D01*
X529016*
X533652Y249999D02*
X531470Y242124D01*
X533652Y249999D02*
X535834Y242124D01*
X532289Y244749D02*
X535016D01*
X540198Y249999D02*
Y242124D01*
X538289Y249999D02*
X542107D01*
X544561D02*
Y242124D01*
Y249999D02*
X548107D01*
X544561Y246249D02*
X546743D01*
X544561Y242124D02*
X548107D01*
X550561Y249999D02*
Y242124D01*
Y249999D02*
X552470D01*
X553289Y249624*
X553834Y248874*
X554107Y248124*
X554380Y246999*
Y245124*
X554107Y243999*
X553834Y243249*
X553289Y242499*
X552470Y242124*
X550561*
X578652Y249999D02*
Y242124D01*
X576743Y249999D02*
X580561D01*
X584652D02*
X584107Y249624D01*
X583561Y248874*
X583289Y248124*
X583016Y246999*
Y245124*
X583289Y243999*
X583561Y243249*
X584107Y242499*
X584652Y242124*
X585743*
X586289Y242499*
X586834Y243249*
X587107Y243999*
X587380Y245124*
Y246999*
X587107Y248124*
X586834Y248874*
X586289Y249624*
X585743Y249999*
X584652*
X589834D02*
Y242124D01*
X593107*
X358516Y225999D02*
X361516D01*
X359880Y222999*
X360698*
X361243Y222624*
X361516Y222249*
X361789Y221124*
Y220374*
X361516Y219249*
X360970Y218499*
X360152Y218124*
X359334*
X358516Y218499*
X358243Y218874*
X357970Y219624*
X364243Y224499D02*
X364789Y224874D01*
X365607Y225999*
Y218124*
X368334Y218874D02*
X368061Y218499D01*
X368334Y218124*
X368607Y218499*
X368334Y218874*
X374607Y225999D02*
X371880D01*
X371607Y222624*
X371880Y222999*
X372698Y223374*
X373516*
X374334Y222999*
X374880Y222249*
X375152Y221124*
X374880Y220374*
X374607Y219249*
X374061Y218499*
X373243Y218124*
X372425*
X371607Y218499*
X371334Y218874*
X371061Y219624*
X448561Y225999D02*
X451561D01*
X449925Y222999*
X450743*
X451289Y222624*
X451561Y222249*
X451834Y221124*
Y220374*
X451561Y219249*
X451016Y218499*
X450198Y218124*
X449380*
X448561Y218499*
X448289Y218874*
X448016Y219624*
X457834Y223374D02*
X457561Y222249D01*
X457016Y221499*
X456198Y221124*
X455925*
X455107Y221499*
X454561Y222249*
X454289Y223374*
Y223749*
X454561Y224874*
X455107Y225624*
X455925Y225999*
X456198*
X457016Y225624*
X457561Y224874*
X457834Y223374*
Y221499*
X457561Y219624*
X457016Y218499*
X456198Y218124*
X455652*
X454834Y218499*
X454561Y219249*
X483970Y224124D02*
X495970D01*
X489970Y218124D02*
Y230124D01*
X516607Y225999D02*
X518789Y222249D01*
Y218124*
X520970Y225999D02*
X518789Y222249D01*
X523425Y225999D02*
Y218124D01*
Y225999D02*
X526970D01*
X523425Y222249D02*
X525607D01*
X523425Y218124D02*
X526970D01*
X533243Y224874D02*
X532698Y225624D01*
X531880Y225999*
X530789*
X529970Y225624*
X529425Y224874*
Y224124*
X529698Y223374*
X529970Y222999*
X530516Y222624*
X532152Y221874*
X532698Y221499*
X532970Y221124*
X533243Y220374*
Y219249*
X532698Y218499*
X531880Y218124*
X530789*
X529970Y218499*
X529425Y219249*
X569789Y224874D02*
Y218124D01*
X567334Y221499D02*
X572243D01*
X579607Y227499D02*
X574698Y215499D01*
X582061Y221499D02*
X586970D01*
X591061Y225999D02*
X590243Y225624D01*
X589698Y224499*
X589425Y222624*
Y221499*
X589698Y219624*
X590243Y218499*
X591061Y218124*
X591607*
X592425Y218499*
X592970Y219624*
X593243Y221499*
Y222624*
X592970Y224499*
X592425Y225624*
X591607Y225999*
X591061*
X595970Y218874D02*
X595698Y218499D01*
X595970Y218124*
X596243Y218499*
X595970Y218874*
X600334Y225999D02*
X599516Y225624D01*
X598970Y224499*
X598698Y222624*
Y221499*
X598970Y219624*
X599516Y218499*
X600334Y218124*
X600880*
X601698Y218499*
X602243Y219624*
X602516Y221499*
Y222624*
X602243Y224499*
X601698Y225624*
X600880Y225999*
X600334*
X358516Y201999D02*
X361516D01*
X359880Y198999*
X360698*
X361243Y198624*
X361516Y198249*
X361789Y197124*
Y196374*
X361516Y195249*
X360970Y194499*
X360152Y194124*
X359334*
X358516Y194499*
X358243Y194874*
X357970Y195624*
X367789Y199374D02*
X367516Y198249D01*
X366970Y197499*
X366152Y197124*
X365880*
X365061Y197499*
X364516Y198249*
X364243Y199374*
Y199749*
X364516Y200874*
X365061Y201624*
X365880Y201999*
X366152*
X366970Y201624*
X367516Y200874*
X367789Y199374*
Y197499*
X367516Y195624*
X366970Y194499*
X366152Y194124*
X365607*
X364789Y194499*
X364516Y195249*
X370516Y194874D02*
X370243Y194499D01*
X370516Y194124*
X370789Y194499*
X370516Y194874*
X373789Y201999D02*
X376789D01*
X375152Y198999*
X375970*
X376516Y198624*
X376789Y198249*
X377061Y197124*
Y196374*
X376789Y195249*
X376243Y194499*
X375425Y194124*
X374607*
X373789Y194499*
X373516Y194874*
X373243Y195624*
X383334Y201999D02*
X380607Y194124D01*
X379516Y201999D02*
X383334D01*
X451561D02*
X454561D01*
X452925Y198999*
X453743*
X454289Y198624*
X454561Y198249*
X454834Y197124*
Y196374*
X454561Y195249*
X454016Y194499*
X453198Y194124*
X452380*
X451561Y194499*
X451289Y194874*
X451016Y195624*
X483970Y194124D02*
X495970Y206124D01*
X483970D02*
X495970Y194124D01*
X516607Y201999D02*
X518789Y198249D01*
Y194124*
X520970Y201999D02*
X518789Y198249D01*
X523425Y201999D02*
Y194124D01*
Y201999D02*
X526970D01*
X523425Y198249D02*
X525607D01*
X523425Y194124D02*
X526970D01*
X533243Y200874D02*
X532698Y201624D01*
X531880Y201999*
X530789*
X529970Y201624*
X529425Y200874*
Y200124*
X529698Y199374*
X529970Y198999*
X530516Y198624*
X532152Y197874*
X532698Y197499*
X532970Y197124*
X533243Y196374*
Y195249*
X532698Y194499*
X531880Y194124*
X530789*
X529970Y194499*
X529425Y195249*
X569789Y200874D02*
Y194124D01*
X567334Y197499D02*
X572243D01*
X579607Y203499D02*
X574698Y191499D01*
X582061Y197499D02*
X586970D01*
X591061Y201999D02*
X590243Y201624D01*
X589698Y200499*
X589425Y198624*
Y197499*
X589698Y195624*
X590243Y194499*
X591061Y194124*
X591607*
X592425Y194499*
X592970Y195624*
X593243Y197499*
Y198624*
X592970Y200499*
X592425Y201624*
X591607Y201999*
X591061*
X595970Y194874D02*
X595698Y194499D01*
X595970Y194124*
X596243Y194499*
X595970Y194874*
X600334Y201999D02*
X599516Y201624D01*
X598970Y200499*
X598698Y198624*
Y197499*
X598970Y195624*
X599516Y194499*
X600334Y194124*
X600880*
X601698Y194499*
X602243Y195624*
X602516Y197499*
Y198624*
X602243Y200499*
X601698Y201624*
X600880Y201999*
X600334*
X360698Y177999D02*
X357970Y172749D01*
X362061*
X360698Y177999D02*
Y170124D01*
X368334Y177999D02*
X365607Y170124D01*
X364516Y177999D02*
X368334D01*
X371061Y170874D02*
X370789Y170499D01*
X371061Y170124*
X371334Y170499*
X371061Y170874*
X374061Y176124D02*
Y176499D01*
X374334Y177249*
X374607Y177624*
X375152Y177999*
X376243*
X376789Y177624*
X377061Y177249*
X377334Y176499*
Y175749*
X377061Y174999*
X376516Y173874*
X373789Y170124*
X377607*
X382789Y177999D02*
X380061Y172749D01*
X384152*
X382789Y177999D02*
Y170124D01*
X451561Y177999D02*
X454561D01*
X452925Y174999*
X453743*
X454289Y174624*
X454561Y174249*
X454834Y173124*
Y172374*
X454561Y171249*
X454016Y170499*
X453198Y170124*
X452380*
X451561Y170499*
X451289Y170874*
X451016Y171624*
X483970Y170124D02*
X495970D01*
Y182124*
X483970*
Y170124*
X489970Y176124D02*
Y182124D01*
X516607Y177999D02*
X518789Y174249D01*
Y170124*
X520970Y177999D02*
X518789Y174249D01*
X523425Y177999D02*
Y170124D01*
Y177999D02*
X526970D01*
X523425Y174249D02*
X525607D01*
X523425Y170124D02*
X526970D01*
X533243Y176874D02*
X532698Y177624D01*
X531880Y177999*
X530789*
X529970Y177624*
X529425Y176874*
Y176124*
X529698Y175374*
X529970Y174999*
X530516Y174624*
X532152Y173874*
X532698Y173499*
X532970Y173124*
X533243Y172374*
Y171249*
X532698Y170499*
X531880Y170124*
X530789*
X529970Y170499*
X529425Y171249*
X569789Y176874D02*
Y170124D01*
X567334Y173499D02*
X572243D01*
X579607Y179499D02*
X574698Y167499D01*
X582061Y173499D02*
X586970D01*
X591061Y177999D02*
X590243Y177624D01*
X589698Y176499*
X589425Y174624*
Y173499*
X589698Y171624*
X590243Y170499*
X591061Y170124*
X591607*
X592425Y170499*
X592970Y171624*
X593243Y173499*
Y174624*
X592970Y176499*
X592425Y177624*
X591607Y177999*
X591061*
X595970Y170874D02*
X595698Y170499D01*
X595970Y170124*
X596243Y170499*
X595970Y170874*
X600334Y177999D02*
X599516Y177624D01*
X598970Y176499*
X598698Y174624*
Y173499*
X598970Y171624*
X599516Y170499*
X600334Y170124*
X600880*
X601698Y170499*
X602243Y171624*
X602516Y173499*
Y174624*
X602243Y176499*
X601698Y177624*
X600880Y177999*
X600334*
X357970Y152499D02*
X358516Y152874D01*
X359334Y153999*
Y146124*
X361789Y152499D02*
X362334Y152874D01*
X363152Y153999*
Y146124*
X368880Y152874D02*
X368607Y153624D01*
X367789Y153999*
X367243*
X366425Y153624*
X365880Y152499*
X365607Y150624*
Y148749*
X365880Y147249*
X366425Y146499*
X367243Y146124*
X367516*
X368334Y146499*
X368880Y147249*
X369152Y148374*
Y148749*
X368880Y149874*
X368334Y150624*
X367516Y150999*
X367243*
X366425Y150624*
X365880Y149874*
X365607Y148749*
X371880Y146874D02*
X371607Y146499D01*
X371880Y146124*
X372152Y146499*
X371880Y146874*
X378152Y151374D02*
X377880Y150249D01*
X377334Y149499*
X376516Y149124*
X376243*
X375425Y149499*
X374880Y150249*
X374607Y151374*
Y151749*
X374880Y152874*
X375425Y153624*
X376243Y153999*
X376516*
X377334Y153624*
X377880Y152874*
X378152Y151374*
Y149499*
X377880Y147624*
X377334Y146499*
X376516Y146124*
X375970*
X375152Y146499*
X374880Y147249*
X381152Y153999D02*
X384152D01*
X382516Y150999*
X383334*
X383880Y150624*
X384152Y150249*
X384425Y149124*
Y148374*
X384152Y147249*
X383607Y146499*
X382789Y146124*
X381970*
X381152Y146499*
X380880Y146874*
X380607Y147624*
X451289Y152124D02*
Y152499D01*
X451561Y153249*
X451834Y153624*
X452380Y153999*
X453470*
X454016Y153624*
X454289Y153249*
X454561Y152499*
Y151749*
X454289Y150999*
X453743Y149874*
X451016Y146124*
X454834*
X489970D02*
X495970Y152124D01*
X489970Y158124*
X483970Y152124*
X489970Y146124*
Y152124D02*
Y158124D01*
X516607Y153999D02*
X518789Y150249D01*
Y146124*
X520970Y153999D02*
X518789Y150249D01*
X523425Y153999D02*
Y146124D01*
Y153999D02*
X526970D01*
X523425Y150249D02*
X525607D01*
X523425Y146124D02*
X526970D01*
X533243Y152874D02*
X532698Y153624D01*
X531880Y153999*
X530789*
X529970Y153624*
X529425Y152874*
Y152124*
X529698Y151374*
X529970Y150999*
X530516Y150624*
X532152Y149874*
X532698Y149499*
X532970Y149124*
X533243Y148374*
Y147249*
X532698Y146499*
X531880Y146124*
X530789*
X529970Y146499*
X529425Y147249*
X569789Y152874D02*
Y146124D01*
X567334Y149499D02*
X572243D01*
X579607Y155499D02*
X574698Y143499D01*
X582061Y149499D02*
X586970D01*
X591061Y153999D02*
X590243Y153624D01*
X589698Y152499*
X589425Y150624*
Y149499*
X589698Y147624*
X590243Y146499*
X591061Y146124*
X591607*
X592425Y146499*
X592970Y147624*
X593243Y149499*
Y150624*
X592970Y152499*
X592425Y153624*
X591607Y153999*
X591061*
X595970Y146874D02*
X595698Y146499D01*
X595970Y146124*
X596243Y146499*
X595970Y146874*
X600334Y153999D02*
X599516Y153624D01*
X598970Y152499*
X598698Y150624*
Y149499*
X598970Y147624*
X599516Y146499*
X600334Y146124*
X600880*
X601698Y146499*
X602243Y147624*
X602516Y149499*
Y150624*
X602243Y152499*
X601698Y153624*
X600880Y153999*
X600334*
X357970Y128499D02*
X358516Y128874D01*
X359334Y129999*
Y122124*
X362061Y128124D02*
Y128499D01*
X362334Y129249*
X362607Y129624*
X363152Y129999*
X364243*
X364789Y129624*
X365061Y129249*
X365334Y128499*
Y127749*
X365061Y126999*
X364516Y125874*
X361789Y122124*
X365607*
X371607Y127374D02*
X371334Y126249D01*
X370789Y125499*
X369970Y125124*
X369698*
X368880Y125499*
X368334Y126249*
X368061Y127374*
Y127749*
X368334Y128874*
X368880Y129624*
X369698Y129999*
X369970*
X370789Y129624*
X371334Y128874*
X371607Y127374*
Y125499*
X371334Y123624*
X370789Y122499*
X369970Y122124*
X369425*
X368607Y122499*
X368334Y123249*
X374334Y122874D02*
X374061Y122499D01*
X374334Y122124*
X374607Y122499*
X374334Y122874*
X380607Y127374D02*
X380334Y126249D01*
X379789Y125499*
X378970Y125124*
X378698*
X377880Y125499*
X377334Y126249*
X377061Y127374*
Y127749*
X377334Y128874*
X377880Y129624*
X378698Y129999*
X378970*
X379789Y129624*
X380334Y128874*
X380607Y127374*
Y125499*
X380334Y123624*
X379789Y122499*
X378970Y122124*
X378425*
X377607Y122499*
X377334Y123249*
X383334Y128124D02*
Y128499D01*
X383607Y129249*
X383880Y129624*
X384425Y129999*
X385516*
X386061Y129624*
X386334Y129249*
X386607Y128499*
Y127749*
X386334Y126999*
X385789Y125874*
X383061Y122124*
X386880*
X453607Y129999D02*
X450880Y124749D01*
X454970*
X453607Y129999D02*
Y122124D01*
X483970D02*
X495970D01*
X483970Y134124*
X495970*
X483970Y122124*
X516607Y129999D02*
X518789Y126249D01*
Y122124*
X520970Y129999D02*
X518789Y126249D01*
X523425Y129999D02*
Y122124D01*
Y129999D02*
X526970D01*
X523425Y126249D02*
X525607D01*
X523425Y122124D02*
X526970D01*
X533243Y128874D02*
X532698Y129624D01*
X531880Y129999*
X530789*
X529970Y129624*
X529425Y128874*
Y128124*
X529698Y127374*
X529970Y126999*
X530516Y126624*
X532152Y125874*
X532698Y125499*
X532970Y125124*
X533243Y124374*
Y123249*
X532698Y122499*
X531880Y122124*
X530789*
X529970Y122499*
X529425Y123249*
X569789Y128874D02*
Y122124D01*
X567334Y125499D02*
X572243D01*
X579607Y131499D02*
X574698Y119499D01*
X582061Y125499D02*
X586970D01*
X591061Y129999D02*
X590243Y129624D01*
X589698Y128499*
X589425Y126624*
Y125499*
X589698Y123624*
X590243Y122499*
X591061Y122124*
X591607*
X592425Y122499*
X592970Y123624*
X593243Y125499*
Y126624*
X592970Y128499*
X592425Y129624*
X591607Y129999*
X591061*
X595970Y122874D02*
X595698Y122499D01*
X595970Y122124*
X596243Y122499*
X595970Y122874*
X600334Y129999D02*
X599516Y129624D01*
X598970Y128499*
X598698Y126624*
Y125499*
X598970Y123624*
X599516Y122499*
X600334Y122124*
X600880*
X601698Y122499*
X602243Y123624*
X602516Y125499*
Y126624*
X602243Y128499*
X601698Y129624*
X600880Y129999*
X600334*
X357970Y104499D02*
X358516Y104874D01*
X359334Y105999*
Y98124*
X362334Y105999D02*
X365334D01*
X363698Y102999*
X364516*
X365061Y102624*
X365334Y102249*
X365607Y101124*
Y100374*
X365334Y99249*
X364789Y98499*
X363970Y98124*
X363152*
X362334Y98499*
X362061Y98874*
X361789Y99624*
X368334Y98874D02*
X368061Y98499D01*
X368334Y98124*
X368607Y98499*
X368334Y98874*
X374880Y105999D02*
X372152Y98124D01*
X371061Y105999D02*
X374880D01*
X378698D02*
X377880Y105624D01*
X377607Y104874*
Y104124*
X377880Y103374*
X378425Y102999*
X379516Y102624*
X380334Y102249*
X380880Y101499*
X381152Y100749*
Y99624*
X380880Y98874*
X380607Y98499*
X379789Y98124*
X378698*
X377880Y98499*
X377607Y98874*
X377334Y99624*
Y100749*
X377607Y101499*
X378152Y102249*
X378970Y102624*
X380061Y102999*
X380607Y103374*
X380880Y104124*
Y104874*
X380607Y105624*
X379789Y105999*
X378698*
X447334Y104499D02*
X447880Y104874D01*
X448698Y105999*
Y98124*
X451152Y104499D02*
X451698Y104874D01*
X452516Y105999*
Y98124*
X458243Y104874D02*
X457970Y105624D01*
X457152Y105999*
X456607*
X455789Y105624*
X455243Y104499*
X454970Y102624*
Y100749*
X455243Y99249*
X455789Y98499*
X456607Y98124*
X456880*
X457698Y98499*
X458243Y99249*
X458516Y100374*
Y100749*
X458243Y101874*
X457698Y102624*
X456880Y102999*
X456607*
X455789Y102624*
X455243Y101874*
X454970Y100749*
X483970Y98124D02*
X495970Y110124D01*
Y98124*
X483970Y110124*
Y98124*
X516607Y105999D02*
X518789Y102249D01*
Y98124*
X520970Y105999D02*
X518789Y102249D01*
X523425Y105999D02*
Y98124D01*
Y105999D02*
X526970D01*
X523425Y102249D02*
X525607D01*
X523425Y98124D02*
X526970D01*
X533243Y104874D02*
X532698Y105624D01*
X531880Y105999*
X530789*
X529970Y105624*
X529425Y104874*
Y104124*
X529698Y103374*
X529970Y102999*
X530516Y102624*
X532152Y101874*
X532698Y101499*
X532970Y101124*
X533243Y100374*
Y99249*
X532698Y98499*
X531880Y98124*
X530789*
X529970Y98499*
X529425Y99249*
X569789Y104874D02*
Y98124D01*
X567334Y101499D02*
X572243D01*
X579607Y107499D02*
X574698Y95499D01*
X582061Y101499D02*
X586970D01*
X591061Y105999D02*
X590243Y105624D01*
X589698Y104499*
X589425Y102624*
Y101499*
X589698Y99624*
X590243Y98499*
X591061Y98124*
X591607*
X592425Y98499*
X592970Y99624*
X593243Y101499*
Y102624*
X592970Y104499*
X592425Y105624*
X591607Y105999*
X591061*
X595970Y98874D02*
X595698Y98499D01*
X595970Y98124*
X596243Y98499*
X595970Y98874*
X600334Y105999D02*
X599516Y105624D01*
X598970Y104499*
X598698Y102624*
Y101499*
X598970Y99624*
X599516Y98499*
X600334Y98124*
X600880*
X601698Y98499*
X602243Y99624*
X602516Y101499*
Y102624*
X602243Y104499*
X601698Y105624*
X600880Y105999*
X600334*
G54D43*
X96063Y96063D02*
X100000Y92126D01*
X308661*
X312598Y96063*
Y324409*
X308661Y328346*
X100000*
X96063Y324409*
Y96063*
X0Y0D02*
M02*
