*
*
G04 PADS VX.2.4 Build Number: 11282995 generated Gerber (RS-274-X) file*
G04 PC Version=2.1*
*
%IN "ESP-12E Dev Board_with_"*%
*
%MOIN*%
*
%FSLAX35Y35*%
*
*
*
*
G04 PC Standard Apertures*
*
*
G04 Thermal Relief Aperture macro.*
%AMTER*
1,1,$1,0,0*
1,0,$1-$2,0,0*
21,0,$3,$4,0,0,45*
21,0,$3,$4,0,0,135*
%
*
*
G04 Annular Aperture macro.*
%AMANN*
1,1,$1,0,0*
1,0,$2,0,0*
%
*
*
G04 Odd Aperture macro.*
%AMODD*
1,1,$1,0,0*
1,0,$1-0.005,0,0*
%
*
*
G04 PC Custom Aperture Macros*
*
*
*
*
*
*
G04 PC Aperture Table*
*
%ADD010C,0.001*%
%ADD011R,0.05906X0.05118*%
%ADD012R,0.05118X0.05906*%
%ADD013R,0.09449X0.06299*%
%ADD014R,0.06299X0.09449*%
%ADD015R,0.11024X0.03937*%
%ADD016R,0.055X0.055*%
%ADD017R,0.01575X0.05315*%
%ADD018R,0.08661X0.06299*%
%ADD019R,0.07087X0.0748*%
%ADD020R,0.0748X0.0748*%
%ADD025R,0.04724X0.04724*%
%ADD026R,0.04331X0.01575*%
%ADD027R,0.09055X0.06299*%
%ADD028R,0.07874X0.04724*%
%ADD029R,0.04724X0.07874*%
%ADD030R,0.03543X0.07283*%
%ADD031R,0.12598X0.07283*%
%ADD032R,0.025X0.06*%
%ADD033R,0.039X0.012*%
%ADD043C,0.00004*%
*
*
*
*
G04 PC Circuitry*
G04 Layer Name ESP-12E Dev Board_with_ - circuitry*
%LPD*%
*
*
G04 PC Custom Flashes*
G04 Layer Name ESP-12E Dev Board_with_ - flashes*
%LPD*%
*
*
G04 PC Circuitry*
G04 Layer Name ESP-12E Dev Board_with_ - circuitry*
%LPD*%
*
G54D10*
G54D11*
G01X175926Y129460D03*
Y136940D03*
X178756Y221488D03*
Y214008D03*
X186750Y221534D03*
Y214054D03*
X232248Y141578D03*
Y149058D03*
X240826D03*
Y141578D03*
X179522Y173736D03*
Y181216D03*
X226845Y214060D03*
Y221540D03*
X151685Y176866D03*
Y169386D03*
X242865Y221551D03*
Y214071D03*
X234865D03*
Y221551D03*
X142685Y176866D03*
Y169386D03*
X218845Y214060D03*
Y221540D03*
X210845Y214060D03*
Y221540D03*
X194845Y214060D03*
Y221540D03*
X159882Y169386D03*
Y176866D03*
X133500D03*
Y169386D03*
X167000Y136940D03*
Y129460D03*
X202800Y221540D03*
Y214060D03*
G54D12*
X238956Y189148D03*
X246436D03*
X232178Y124052D03*
X239658D03*
X279686Y119500D03*
X287166D03*
X222060Y195600D03*
X229540D03*
G54D13*
X168356Y223854D03*
Y212043D03*
G54D14*
X285856Y187124D03*
X297667D03*
G54D15*
X298556Y140282D03*
X280052D03*
X298652Y167600D03*
X280148D03*
G54D16*
X184000Y141626D03*
Y128626D03*
X192400Y141826D03*
Y128826D03*
G54D17*
X181701Y110803D03*
X184260D03*
X186819D03*
X189378D03*
X191937D03*
G54D18*
X174417Y110311D03*
X199220D03*
G54D19*
X171071Y100272D03*
X202567D03*
G54D20*
X182094D03*
X191543D03*
G54D25*
X305808Y120322D03*
X297540D03*
G54D26*
X177291Y192685D03*
Y195244D03*
Y197803D03*
X170205D03*
Y195244D03*
Y192685D03*
G54D27*
X280028Y106126D03*
X255224D03*
X216157Y105874D03*
X240961D03*
G54D28*
X172252Y241630D03*
Y249504D03*
Y257378D03*
Y265252D03*
Y273126D03*
Y281000D03*
Y288874D03*
Y296748D03*
X236031Y241630D03*
Y249504D03*
Y257378D03*
Y265252D03*
Y273126D03*
Y281000D03*
Y288874D03*
Y296748D03*
G54D29*
X215559Y233756D03*
X184063D03*
X191937D03*
X223433D03*
X199811D03*
X207685D03*
G54D30*
X203441Y124669D03*
X212496D03*
X221551D03*
X250841D03*
X259896D03*
X268951D03*
G54D31*
X212496Y149079D03*
X259896D03*
G54D32*
X190752Y163146D03*
X200752Y184366D03*
X185752Y163146D03*
X195752D03*
X200752D03*
X195752Y184366D03*
X205752D03*
X210752D03*
Y163146D03*
X220752Y184366D03*
X205752Y163146D03*
X215752D03*
Y184366D03*
X220752Y163146D03*
X190752Y184366D03*
X185752D03*
G54D33*
X230013Y181122D03*
Y178563D03*
Y176004D03*
Y173445D03*
Y170886D03*
Y168327D03*
Y165768D03*
X252987D03*
Y168327D03*
Y170886D03*
Y173445D03*
Y176004D03*
Y178563D03*
Y181122D03*
G54D43*
X96063Y96063D02*
X100000Y92126D01*
X308661*
X312598Y96063*
Y324409*
X308661Y328346*
X100000*
X96063Y324409*
Y96063*
X0Y0D02*
M02*
