*
*
G04 PADS VX.2.4 Build Number: 11282995 generated Gerber (RS-274-X) file*
G04 PC Version=2.1*
*
%IN "ESP-12E Dev Board_with_"*%
*
%MOIN*%
*
%FSLAX35Y35*%
*
*
*
*
G04 PC Standard Apertures*
*
*
G04 Thermal Relief Aperture macro.*
%AMTER*
1,1,$1,0,0*
1,0,$1-$2,0,0*
21,0,$3,$4,0,0,45*
21,0,$3,$4,0,0,135*
%
*
*
G04 Annular Aperture macro.*
%AMANN*
1,1,$1,0,0*
1,0,$2,0,0*
%
*
*
G04 Odd Aperture macro.*
%AMODD*
1,1,$1,0,0*
1,0,$1-0.005,0,0*
%
*
*
G04 PC Custom Aperture Macros*
*
*
*
*
*
*
G04 PC Aperture Table*
*
%ADD010C,0.001*%
%ADD011R,0.05906X0.05118*%
%ADD012R,0.05118X0.05906*%
%ADD013R,0.09449X0.06299*%
%ADD014R,0.06299X0.09449*%
%ADD015R,0.11024X0.03937*%
%ADD016R,0.055X0.055*%
%ADD017R,0.01575X0.05315*%
%ADD018R,0.08661X0.06299*%
%ADD019R,0.07087X0.0748*%
%ADD020R,0.0748X0.0748*%
%ADD021O,0.0515X0.10299*%
%ADD022O,0.10299X0.0515*%
%ADD023O,0.15748X0.07874*%
%ADD024O,0.07874X0.15748*%
%ADD025R,0.04724X0.04724*%
%ADD026R,0.04331X0.01575*%
%ADD027R,0.09055X0.06299*%
%ADD028R,0.07874X0.04724*%
%ADD029R,0.04724X0.07874*%
%ADD030R,0.03543X0.07283*%
%ADD031R,0.12598X0.07283*%
%ADD032R,0.025X0.06*%
%ADD033R,0.039X0.012*%
%ADD034C,0.07087*%
%ADD035C,0.16929*%
%ADD036C,0.018*%
%ADD037C,0.03*%
%ADD038C,0.032*%
%ADD039C,0.01*%
%ADD040C,0.006*%
%ADD041C,0.02*%
%ADD042C,0.02978*%
%ADD043C,0.00004*%
*
*
*
*
G04 PC Circuitry*
G04 Layer Name ESP-12E Dev Board_with_ - circuitry*
%LPD*%
*
*
G04 PC Custom Flashes*
G04 Layer Name ESP-12E Dev Board_with_ - flashes*
%LPD*%
*
*
G04 PC Circuitry*
G04 Layer Name ESP-12E Dev Board_with_ - circuitry*
%LPD*%
*
G54D10*
G54D11*
G01X175926Y129460D03*
Y136940D03*
X178756Y221488D03*
Y214008D03*
X186750Y221534D03*
Y214054D03*
X232248Y141578D03*
Y149058D03*
X240826D03*
Y141578D03*
X179522Y173736D03*
Y181216D03*
X226845Y214060D03*
Y221540D03*
X151685Y176866D03*
Y169386D03*
X242865Y221551D03*
Y214071D03*
X234865D03*
Y221551D03*
X142685Y176866D03*
Y169386D03*
X218845Y214060D03*
Y221540D03*
X210845Y214060D03*
Y221540D03*
X194845Y214060D03*
Y221540D03*
X159882Y169386D03*
Y176866D03*
X133500D03*
Y169386D03*
X167000Y136940D03*
Y129460D03*
X202800Y221540D03*
Y214060D03*
G54D12*
X238956Y189148D03*
X246436D03*
X232178Y124052D03*
X239658D03*
X279686Y119500D03*
X287166D03*
X222060Y195600D03*
X229540D03*
G54D13*
X168356Y223854D03*
Y212043D03*
G54D14*
X285856Y187124D03*
X297667D03*
G54D15*
X298556Y140282D03*
X280052D03*
X298652Y167600D03*
X280148D03*
G54D16*
X184000Y141626D03*
Y128626D03*
X192400Y141826D03*
Y128826D03*
G54D17*
X181701Y110803D03*
X184260D03*
X186819D03*
X189378D03*
X191937D03*
G54D18*
X174417Y110311D03*
X199220D03*
G54D19*
X171071Y100272D03*
X202567D03*
G54D20*
X182094D03*
X191543D03*
G54D21*
X132315Y237756D03*
X142157D03*
X152000D03*
X256693Y209756D03*
X266535D03*
X276378D03*
X286220D03*
X256693Y292756D03*
X266535D03*
X276378D03*
X286220D03*
X256693Y265756D03*
X266535D03*
X276378D03*
X286220D03*
X122693Y264945D03*
X132535D03*
X142378D03*
X152220D03*
X256615Y319726D03*
X266457D03*
X276300D03*
X256693Y237756D03*
X266535D03*
X276378D03*
X286220D03*
X132000Y210811D03*
X141843D03*
X151685D03*
G54D22*
X107000Y165366D03*
Y175209D03*
Y185051D03*
Y194894D03*
Y204736D03*
Y214579D03*
Y224421D03*
Y234264D03*
Y132181D03*
Y142024D03*
G54D23*
X136346Y145457D03*
Y120654D03*
G54D24*
X156031Y133646D03*
G54D25*
X305808Y120322D03*
X297540D03*
G54D26*
X177291Y192685D03*
Y195244D03*
Y197803D03*
X170205D03*
Y195244D03*
Y192685D03*
G54D27*
X280028Y106126D03*
X255224D03*
X216157Y105874D03*
X240961D03*
G54D28*
X172252Y241630D03*
Y249504D03*
Y257378D03*
Y265252D03*
Y273126D03*
Y281000D03*
Y288874D03*
Y296748D03*
X236031Y241630D03*
Y249504D03*
Y257378D03*
Y265252D03*
Y273126D03*
Y281000D03*
Y288874D03*
Y296748D03*
G54D29*
X215559Y233756D03*
X184063D03*
X191937D03*
X223433D03*
X199811D03*
X207685D03*
G54D30*
X203441Y124669D03*
X212496D03*
X221551D03*
X250841D03*
X259896D03*
X268951D03*
G54D31*
X212496Y149079D03*
X259896D03*
G54D32*
X190752Y163146D03*
X200752Y184366D03*
X185752Y163146D03*
X195752D03*
X200752D03*
X195752Y184366D03*
X205752D03*
X210752D03*
Y163146D03*
X220752Y184366D03*
X205752Y163146D03*
X215752D03*
Y184366D03*
X220752Y163146D03*
X190752Y184366D03*
X185752D03*
G54D33*
X230013Y181122D03*
Y178563D03*
Y176004D03*
Y173445D03*
Y170886D03*
Y168327D03*
Y165768D03*
X252987D03*
Y168327D03*
Y170886D03*
Y173445D03*
Y176004D03*
Y178563D03*
Y181122D03*
G54D34*
X133469Y279232D03*
X143311D03*
X153154D03*
G54D35*
X160240Y306791D03*
X126382D03*
G54D36*
X208728Y99272D02*
X209000Y99000D01*
X174000Y115000D02*
X174417Y114583D01*
Y110311*
X170799Y100000D02*
X171071Y100272D01*
X181572Y116198D02*
X192400Y127026D01*
Y128826*
X181572Y116198D02*
Y110931D01*
X181701Y110803*
X271300Y115600D02*
X280028Y106872D01*
Y106126*
X287166Y119500D02*
X287988Y120322D01*
X297540*
X279686Y119500D02*
X279700Y119514D01*
Y128000*
X133500Y169386D02*
Y156500D01*
X134000Y156000*
X142685Y169386D02*
Y167115D01*
X147200Y162600*
X181802Y155524D02*
Y165967D01*
X185752Y169917*
Y184366*
X181802Y155524D02*
X185081Y152246D01*
X193486*
X200402Y159162*
Y162796*
X200752Y163146*
X252987Y165768D02*
X260832D01*
X261000Y165600*
X151000Y193000D02*
X159882Y184118D01*
Y176866*
X151685Y210811D02*
X162131Y221257D01*
Y239930*
X167694Y245492*
X186366*
X190474Y249600*
X198400*
X179522Y181216D02*
X182672Y184366D01*
X185752*
X213000Y202200D02*
Y205600D01*
X214800Y207400*
X185400Y190200D02*
X185752Y189848D01*
Y184366*
X202800Y214060D02*
X206221Y217481D01*
X206374*
X207253Y218360*
Y218513*
X210280Y221540*
X210845*
X186750Y214054D02*
X190171Y217475D01*
X190324*
X191203Y218354*
Y218507*
X194236Y221540*
X194845*
X253000Y189200D02*
Y194400D01*
X254200Y195600*
X230000Y190000D02*
X230013Y189987D01*
X252000Y210000D02*
X252244Y209756D01*
X256693*
X229540Y195600D02*
X230013Y195128D01*
Y189987*
X252987Y181122D02*
X253000Y181300D01*
Y189200*
X230013Y181122D02*
Y189987D01*
X246436Y189148D02*
X246488Y189200D01*
X253000*
X132000Y229000D02*
X132315Y229315D01*
Y237756*
X191400Y227200D02*
X194845Y223755D01*
Y221540*
X172252Y288874D02*
X190726D01*
X207800Y271800*
Y252476*
X215687Y244589*
X221611*
X225600Y240600*
X172252Y281000D02*
X176264Y276988D01*
X176810*
X177689Y276109*
X177689D02*
Y247892D01*
X185372*
X190069Y252589*
X199638*
X203789Y248438*
Y228596*
X210845Y221540*
G54D37*
X107000Y132181D02*
X126419Y151600D01*
X167820*
X171910Y155690*
X167000Y129460D02*
Y124400D01*
X170200Y121200*
X176571*
X181572Y116198*
X212496Y124669D02*
Y149079D01*
X259896Y124669D02*
Y128000D01*
X264400*
X259896Y124669D02*
Y141800D01*
X221551Y124669D02*
X231561D01*
X232178Y124052*
X268951Y124669D02*
X280052Y135770D01*
Y140282*
X136346Y145457D02*
X136479Y145589D01*
X170611*
X175926Y140274*
Y136940*
X107000Y175209D02*
X139118Y207327D01*
X171910Y155690D02*
X173000Y156780D01*
Y184236*
X171910Y155690D02*
X178521Y149079D01*
X190200*
X172000Y150200D02*
Y149826D01*
X180200Y141626*
X184000*
X212496Y149079D02*
X190200D01*
Y144026*
X192400Y141826*
X212496Y149079D02*
X213153Y148422D01*
X223000*
X229844Y141578*
X232248*
X184000Y141626D02*
Y136400D01*
X184189Y136211*
X200282*
X208624Y127869*
Y120158*
X209855Y118928*
X215138*
X220879Y124669*
X221551*
X259896Y141800D02*
Y149079D01*
X261000Y150183*
Y165600*
X240826Y141578D02*
X259674D01*
X259896Y141800*
X232248Y141578D02*
Y136200D01*
X235048Y133400*
X240426*
X246969Y126857*
Y120158*
X248199Y118928*
X262538*
X268279Y124669*
X268951*
X261000Y165600D02*
Y167600D01*
Y190000*
Y167600D02*
X280148D01*
X280052Y140282D02*
Y157054D01*
X287760Y164762*
Y170838*
X139118Y207327D02*
X141843Y210051D01*
Y210811*
X139118Y207327D02*
X145327D01*
X168417Y184236*
X173000*
X168356Y217336D02*
X168400Y217292D01*
X174270*
X168356Y217336D02*
Y223854D01*
X141843Y210811D02*
Y237441D01*
X142157Y237756*
X141843Y210811D02*
X145327Y207327D01*
X182364Y207400D02*
X194800D01*
X214800*
X194800D02*
Y214015D01*
X194845Y214060*
X214800Y207400D02*
X221600D01*
X227861Y201139*
X261000*
X214800Y207400D02*
Y214060D01*
X218845*
X210845D02*
X214800D01*
X218845D02*
X226845D01*
X265811Y194313D02*
Y202387D01*
X266535Y203111*
Y209756*
X265811Y194313D02*
X273113Y187011D01*
X285743*
X285856Y187124*
X261000Y201139D02*
X261861Y202000D01*
Y228986*
X266535Y233661*
Y237756*
X261000Y190000D02*
Y201139D01*
X266535Y209756D02*
Y228570D01*
X271210Y233245*
Y242267*
X285856Y187124D02*
X286000Y186980D01*
Y172598*
X287760Y170838*
X107000Y224421D02*
X114979D01*
X117200Y222200*
Y200000*
X142157Y237756D02*
Y255538D01*
X147053Y260434*
Y273131*
X153154Y279232*
X168356Y223854D02*
Y237734D01*
X172252Y241630*
X234865Y221551D02*
X242865D01*
X286220Y265756D02*
Y292756D01*
X276378Y265756D02*
Y292756D01*
X266535D02*
Y265756D01*
Y246942*
X271210Y242267*
X266457Y319726D02*
Y292834D01*
X266535Y292756*
G54D38*
X175926Y136940D02*
X178647Y134219D01*
X179790*
X184000Y130009*
Y128626*
X174270Y217292D02*
X174329D01*
X174892Y216729*
X176035*
X178756Y214008*
Y211008*
X182364Y207400*
G54D39*
X209000Y106000D02*
X216031D01*
X216157Y105874*
X186819Y110803D02*
Y114445D01*
X188374Y116000*
X192400*
X194800Y118400*
X184260Y110803D02*
Y115057D01*
X187802Y118600*
X190200*
X133500Y176866D02*
X142685D01*
X205752Y163146D02*
X206000Y162898D01*
Y156000*
X210752Y163146D02*
X211000Y162898D01*
Y156000*
X195752Y163146D02*
Y167552D01*
X206200Y178000*
X190752Y163146D02*
X193402Y160496D01*
Y159690*
X194046Y159046*
X197458*
X198402Y159990*
Y166601*
X199046Y167246*
X200246*
X211000Y178000*
X246900Y176100D02*
X246996Y176004D01*
X252987*
Y178563D02*
X256600D01*
X257100Y179063*
Y193000*
X108000Y194894D02*
X118694D01*
X124768Y200968*
Y250171*
X269400Y200900D02*
X272703Y204203D01*
Y213853*
X280053Y221202*
Y241853*
X124768Y250171D02*
X119018Y255921D01*
Y272202*
X130716Y283900*
X148600*
X172252Y296748D02*
X172400Y296600D01*
X181200*
X226000Y297000D02*
X235780D01*
X236031Y296748*
X226000Y289000D02*
X235906D01*
X236031Y288874*
X276378Y265756D02*
Y245528D01*
X280053Y241853*
G54D40*
X147832Y173934D02*
Y180325D01*
X150525*
X154200Y184000*
X147832Y173934D02*
X151685Y170082D01*
Y169386*
X142685Y176866D02*
X147832Y171719D01*
Y166454*
X160086Y154200*
X166800*
X170400Y157800*
Y178400*
X151685Y176866D02*
X155351Y173200D01*
X163800*
X167600Y177000*
X167800*
X224800Y179800D02*
X226037Y178563D01*
X230013*
Y176004D02*
X238604D01*
X243600Y181000*
X124800Y187200D02*
X129200Y191600D01*
X137800*
X107000Y194894D02*
X108000D01*
X165200Y195600D02*
X168115Y192685D01*
X170205*
X169400Y180600D02*
Y179400D01*
X170400Y178400*
X170205Y195244D02*
X170500Y195100D01*
X173200*
X175600Y192700*
X177100*
X177291Y192685*
X170205Y197803D02*
X170500Y197800D01*
X172300*
X174700Y195400*
X177100*
X177291Y195244*
Y197803D02*
X180503D01*
X182600Y199900*
X183800*
X177291Y195244D02*
X177400Y195100D01*
X195500*
X200752Y189848*
Y184366*
X177291Y192685D02*
X192000D01*
X195752Y188933*
Y184366*
X242865Y214071D02*
X246718Y217924D01*
Y224483*
X274600Y190600D02*
X289900Y205900D01*
Y261400*
X152000Y237756D02*
X163748Y249504D01*
X172252*
X214211Y248610D02*
Y250590D01*
X215200Y251579*
Y253800*
X218900Y257500*
X236200*
X214211Y248610D02*
X216432Y246389D01*
X228790*
X230189Y244990*
X211600Y241600D02*
Y225000D01*
X211601Y224999*
X214170*
X214992Y224178*
Y218608*
X215519Y218081*
X223386*
X226845Y221540*
X216600Y249600D02*
X235935D01*
X236031Y249504*
X218845Y221540D02*
X229994Y232689D01*
X230189*
Y244990*
X244400Y231200D02*
Y226801D01*
X246718Y224483*
X236200Y257500D02*
X257900D01*
X260800Y260400*
Y321700*
X265000Y325900*
X268000*
X270100Y323800*
Y318400*
X282600Y305900*
Y233800*
X286000Y230400*
Y209800*
X286220Y209756*
X236031Y257378D02*
X236200Y257500D01*
X148600Y283900D02*
X151600D01*
X167800Y300100*
X241600*
X256300Y285400*
X258400*
X165400Y265100D02*
X172100D01*
X172252Y265252*
X152220Y264945D02*
X159787Y257378D01*
X172252*
X211600Y261000D02*
X215852Y265252D01*
X236031*
Y281000D02*
X236200Y280900D01*
X248900*
X254800Y275000*
X257200*
X236031Y273126D02*
X236200Y273100D01*
X250300*
X250500Y273300*
X286220Y265756D02*
X286900Y264400D01*
X289900Y261400*
G54D41*
X107000Y185051D02*
X112458D01*
X126868Y199460*
Y267756*
X130806Y271694*
X135773*
X143311Y279232*
X234600Y229200D02*
Y221816D01*
X234865Y221551*
G54D42*
X118800Y112000D03*
X150800Y116200D03*
X161400Y109800D03*
X194800Y118400D03*
X209000Y106000D03*
X190200Y118600D03*
X207800Y112000D03*
X199400Y130800D03*
X203600Y117200D03*
X250400Y134600D03*
X237400Y115000D03*
X255600Y124600D03*
X220000Y133000D03*
X271300Y115600D03*
X279700Y128000D03*
X264400D03*
X292400Y136000D03*
X266600Y136400D03*
X299800Y131000D03*
X134000Y156000D03*
X123000Y157500D03*
X147200Y162600D03*
X167800Y177000D03*
X172000Y150200D03*
X178400Y167600D03*
X167200Y169600D03*
X149000Y142000D03*
X165400Y159200D03*
X206200Y178000D03*
X206000Y156000D03*
X211000D03*
Y178000D03*
X192000Y170600D03*
X189000Y157000D03*
X201800Y141600D03*
X217800Y156600D03*
X246900Y176100D03*
X224800Y179800D03*
X225000Y165600D03*
X242400Y167000D03*
X248400Y149000D03*
X236000Y156600D03*
X292800Y173800D03*
X272600Y177000D03*
X267600Y159400D03*
X300000Y178600D03*
Y151200D03*
X300200Y158200D03*
X117200Y200000D03*
X137800Y191600D03*
X124800Y187200D03*
X122000Y183000D03*
X154200Y184000D03*
X151000Y193000D03*
X165200Y195600D03*
X169400Y180600D03*
X159200Y210000D03*
X146800Y217600D03*
X165400Y201600D03*
X172800Y202000D03*
X175400Y207400D03*
X142000Y183000D03*
X183800Y199900D03*
X213000Y202200D03*
X185400Y190200D03*
X180000Y186800D03*
X217400Y201800D03*
X214200Y195400D03*
X257100Y193000D03*
X243600Y181000D03*
X254200Y195600D03*
X230000Y190000D03*
X231400Y208200D03*
X269400Y200900D03*
X274600Y190600D03*
X261000Y190000D03*
X298600Y201000D03*
X108800Y245800D03*
X122800Y255800D03*
X179000Y227800D03*
X177200Y236400D03*
X154000Y246000D03*
X211600Y241600D03*
X191400Y227200D03*
X198400Y249600D03*
X216600D03*
X200200Y227200D03*
X186200D03*
X244400Y231200D03*
X225600Y240600D03*
X234600Y229200D03*
X243000Y249000D03*
X235400Y235900D03*
X242200Y235600D03*
X227800Y244000D03*
X257000Y228000D03*
X244000Y241800D03*
X272000Y257000D03*
X124200Y273200D03*
X165400Y265100D03*
X159000Y268000D03*
X211600Y261000D03*
X181200Y296600D03*
X203000Y262000D03*
X192800Y265000D03*
X212000Y296000D03*
X193000D03*
X258400Y285400D03*
X226000Y297000D03*
X257200Y275000D03*
X250500Y273300D03*
X226000Y289000D03*
X250600Y261200D03*
X252000Y284000D03*
X242000Y319000D03*
X299200Y305000D03*
G54D43*
X96063Y96063D02*
X100000Y92126D01*
X308661*
X312598Y96063*
Y324409*
X308661Y328346*
X100000*
X96063Y324409*
Y96063*
X0Y0D02*
M02*
