M48
;FILE_FORMAT=2:4
INCH,LZ
FMAT,2
ICI,OFF
;TYPE=PLATED
T1C.01378
T2C.0315
T3C.03937
T4C.04724
T5C.11693
T6C.12992
%
M72
G90
G93X0Y0
T1C.01378F095S3
X01188Y0112
X01508Y01162
X0149Y0142
X0134Y0156
X0123Y01575
X01472Y01626
X0122Y0183
X0142Y0183
X01542Y0184
X01248Y01872
X01378Y01916
X0151Y0193
X01172Y02
X01468Y02176
X01088Y02458
X0154Y0246
X01228Y02558
X01242Y02732
X01812Y02966
X0159Y0268
X01654Y02651
X01772Y02364
X0179Y02278
X01592Y021
X01754Y02074
X01728Y0202
X01654Y02016
X01652Y01956
X018Y01868
X01694Y01806
X01678Y0177
X01672Y01696
X01784Y01676
X01654Y01592
X0172Y01502
X01614Y01098
X02036Y01172
X01948Y01184
X01902Y01186
X01994Y01308
X02018Y01416
X0206Y0156
X0189Y0157
X0192Y01706
X02062Y0178
X01854Y01902
X01838Y01999
X01862Y02272
X01914Y02272
X02002Y02272
X01984Y02496
X0203Y0262
X01928Y0265
X0193Y0296
X0226Y0297
X0212Y0296
X0226Y0289
X02116Y0261
X02166Y02496
X02278Y0244
X02116Y02416
X02256Y02406
X02314Y02082
X0213Y02022
X02174Y02018
X02142Y01954
X023Y019
X02248Y01798
X0211Y0178
X0225Y01656
X02178Y01566
X0211Y0156
X022Y0133
X02078Y0112
X0209Y0106
X02374Y0115
X02556Y01246
X02504Y01346
X02484Y0149
X0236Y01566
X02424Y0167
X02469Y01761
X02436Y0181
X02542Y01956
X02346Y02292
X02444Y02312
X02422Y02356
X02354Y02359
X0244Y02418
X0243Y0249
X02506Y02612
X02505Y02733
X0252Y0284
X0242Y0319
X02584Y02854
X02572Y0275
X0272Y0257
X0257Y0228
X02694Y02009
X02571Y0193
X02746Y01906
X0261Y019
X02726Y0177
X02676Y01594
X02666Y01364
X02797Y0128
X02644Y0128
X02713Y01156
X02998Y0131
X02924Y0136
X03Y01512
X03002Y01582
X02928Y01738
X03Y01786
X02986Y0201
X02992Y0305
T2C.0315F197S55
X0107Y013218
X0107Y014202
X0107Y016537
X0107Y017521
X0107Y018505
X0107Y019489
X0107Y020474
X0107Y021458
X0107Y022442
X0107Y023426
X012269Y026494
X013254Y026494
X014238Y026494
X015222Y026494
X013231Y023776
X014216Y023776
X0152Y023776
X0132Y021081
X014184Y021081
X015169Y021081
X025669Y020976
X025669Y023776
X025669Y026576
X025669Y029276
X025661Y031973
X026646Y031973
X02763Y031973
X026654Y029276
X027638Y029276
X026654Y026576
X027638Y026576
X026654Y023776
X027638Y023776
X026654Y020976
X027638Y020976
X028622Y020976
X028622Y023776
X028622Y026576
X028622Y029276
T3C.03937F197S55
X013635Y012065
X015603Y013365
X013635Y014546
T4C.04724F139S55
X013347Y027923
X014331Y027923
X015315Y027923
T5C.11693F069S658
X012638Y030679
X016024Y030679
T6C.12992F035S794
X010787Y010394
X010787Y031654
X030079Y031654
X030079Y010394
M30
