M48
;GenerationSoftware,Autodesk,EAGLE,9.0.1*%
;CreationDate,2018-06-28T06:08:18Z*%
FMAT,2
ICI,OFF
METRIC,TZ,000.000
T10C0.800
T9C0.813
T8C0.850
T7C0.889
T6C0.914
T5C1.000
T4C1.016
T3C1.168
T2C2.286
T1C3.000
%
G90
M71
T1
X80899Y95758
X80899Y4191
X4039Y95961
T2
X9283Y78156
X9283Y66116
T3
X39918Y95250
X80493Y39562
X80493Y44562
X72858Y95250
X67858Y95250
X53888Y95250
X44918Y95250
X58888Y95250
T4
X63373Y17526
X9017Y16510
X43866Y87630
X40970Y87630
X81280Y25400
X78740Y25400
X76200Y25400
X73660Y25400
X57836Y87630
X54940Y87630
X81280Y19050
X78740Y19050
X76200Y19050
X73660Y19050
X71806Y87630
X68910Y87630
X63373Y4826
X63373Y7366
X63373Y9906
X63373Y12446
X63373Y14986
X66675Y40386
X63373Y20066
X63373Y22606
X63373Y25146
X63373Y27686
X63373Y30226
X63373Y32766
X63373Y35306
X63373Y37846
X63373Y40386
X66675Y4826
X66675Y7366
X66675Y9906
X66675Y12446
X66675Y14986
X66675Y17526
X66675Y20066
X66675Y22606
X66675Y25146
X66675Y27686
X66675Y30226
X66675Y32766
X66675Y35306
X66675Y37846
X72771Y40970
X24765Y4826
X24765Y7366
X24765Y9906
X24765Y12446
X24765Y14986
X24765Y17526
X24765Y20066
X24765Y22606
X24765Y25146
X24765Y27686
X24765Y30226
X24765Y32766
X24765Y35306
X24765Y37846
X24765Y40386
X28067Y4826
X28067Y7366
X28067Y9906
X28067Y12446
X28067Y14986
X28067Y17526
X28067Y20066
X28067Y22606
X28067Y27686
X28067Y30226
X28067Y32766
X28067Y35306
X28067Y37846
X28067Y40386
X28448Y88900
X30988Y88900
X25019Y69723
X25019Y72263
X81280Y12700
X78740Y12700
X76200Y12700
X73660Y12700
X28067Y25146
X81280Y31750
X72771Y43866
X78740Y31750
X76200Y31750
X73660Y31750
X20193Y48133
X10033Y44069
X10033Y41529
X10033Y38989
X10033Y36449
X8890Y2540
X8890Y5080
X8890Y7620
X8890Y10160
X8890Y12700
X9017Y21590
X8763Y19050
T5
X6865Y88225
X10165Y83225
X13165Y88225
T6
X13982Y73386
X12001Y70886
X12001Y73386
X13982Y70886
T7
X22733Y55753
X22733Y53213
X3937Y33909
X22733Y50673
X3937Y44069
X3937Y41529
X3937Y38989
X3937Y36449
X3937Y31369
X3937Y26289
X3937Y28829
X20193Y50673
X20193Y53213
X20193Y55753
X20193Y58293
X22733Y58293
T8
X25278Y94320
X16378Y94320
X12578Y94320
X29078Y94320
T9
X25400Y83947
X27940Y83947
X19685Y80391
X19685Y76835
X3937Y12827
X3937Y7747
X19685Y89408
X19685Y85852
X19304Y66421
X19304Y71501
X3937Y17907
X3937Y15367
X3937Y10287
X3937Y5207
X3937Y2667
T10
X38227Y40386
X38227Y37846
X38227Y35306
X38227Y32766
X38227Y30226
X38227Y27686
X43307Y39116
X48387Y39116
X53467Y32766
X53467Y22606
X53467Y25146
X53467Y9906
X53467Y7366
X38227Y9906
X38227Y7366
X53467Y27686
X53467Y30226
X38227Y4826
X53467Y14986
X53467Y17526
X53467Y20066
X53467Y35306
X53467Y37846
X53467Y40386
X38227Y12446
X38227Y14986
X53467Y4826
X38227Y17526
X48387Y41656
X45847Y41656
X38227Y20066
X38227Y22606
X43307Y41656
X38227Y25146
X45847Y39116
X53467Y12446
M30