G04 EAGLE Gerber X2 export*
G75*
%MOMM*%
%FSLAX34Y34*%
%LPD*%
%AMOC8*
5,1,8,0,0,1.08239X$1,22.5*%
G01*
%ADD10C,0.254000*%


D10*
X0Y0D02*
X850700Y0D01*
X850700Y1000000D01*
X0Y1000000D01*
X0Y0D01*
X85650Y832250D02*
X85669Y831814D01*
X85726Y831382D01*
X85820Y830956D01*
X85952Y830540D01*
X86118Y830137D01*
X86320Y829750D01*
X86554Y829382D01*
X86820Y829036D01*
X87114Y828714D01*
X87436Y828420D01*
X87782Y828154D01*
X88150Y827920D01*
X88537Y827718D01*
X88940Y827552D01*
X89356Y827420D01*
X89782Y827326D01*
X90214Y827269D01*
X90650Y827250D01*
X112650Y827250D01*
X113086Y827269D01*
X113518Y827326D01*
X113944Y827420D01*
X114360Y827552D01*
X114763Y827718D01*
X115150Y827920D01*
X115518Y828154D01*
X115864Y828420D01*
X116186Y828714D01*
X116480Y829036D01*
X116746Y829382D01*
X116980Y829750D01*
X117182Y830137D01*
X117348Y830540D01*
X117480Y830956D01*
X117574Y831382D01*
X117631Y831814D01*
X117650Y832250D01*
X117631Y832686D01*
X117574Y833118D01*
X117480Y833544D01*
X117348Y833960D01*
X117182Y834363D01*
X116980Y834750D01*
X116746Y835118D01*
X116480Y835464D01*
X116186Y835786D01*
X115864Y836080D01*
X115518Y836346D01*
X115150Y836580D01*
X114763Y836782D01*
X114360Y836948D01*
X113944Y837080D01*
X113518Y837174D01*
X113086Y837231D01*
X112650Y837250D01*
X90650Y837250D01*
X90214Y837231D01*
X89782Y837174D01*
X89356Y837080D01*
X88940Y836948D01*
X88537Y836782D01*
X88150Y836580D01*
X87782Y836346D01*
X87436Y836080D01*
X87114Y835786D01*
X86820Y835464D01*
X86554Y835118D01*
X86320Y834750D01*
X86118Y834363D01*
X85952Y833960D01*
X85820Y833544D01*
X85726Y833118D01*
X85669Y832686D01*
X85650Y832250D01*
X63650Y871250D02*
X63669Y870814D01*
X63726Y870382D01*
X63820Y869956D01*
X63952Y869540D01*
X64118Y869137D01*
X64320Y868750D01*
X64554Y868382D01*
X64820Y868036D01*
X65114Y867714D01*
X65436Y867420D01*
X65782Y867154D01*
X66150Y866920D01*
X66537Y866718D01*
X66940Y866552D01*
X67356Y866420D01*
X67782Y866326D01*
X68214Y866269D01*
X68650Y866250D01*
X69086Y866269D01*
X69518Y866326D01*
X69944Y866420D01*
X70360Y866552D01*
X70763Y866718D01*
X71150Y866920D01*
X71518Y867154D01*
X71864Y867420D01*
X72186Y867714D01*
X72480Y868036D01*
X72746Y868382D01*
X72980Y868750D01*
X73182Y869137D01*
X73348Y869540D01*
X73480Y869956D01*
X73574Y870382D01*
X73631Y870814D01*
X73650Y871250D01*
X73650Y893250D01*
X73631Y893686D01*
X73574Y894118D01*
X73480Y894544D01*
X73348Y894960D01*
X73182Y895363D01*
X72980Y895750D01*
X72746Y896118D01*
X72480Y896464D01*
X72186Y896786D01*
X71864Y897080D01*
X71518Y897346D01*
X71150Y897580D01*
X70763Y897782D01*
X70360Y897948D01*
X69944Y898080D01*
X69518Y898174D01*
X69086Y898231D01*
X68650Y898250D01*
X68214Y898231D01*
X67782Y898174D01*
X67356Y898080D01*
X66940Y897948D01*
X66537Y897782D01*
X66150Y897580D01*
X65782Y897346D01*
X65436Y897080D01*
X65114Y896786D01*
X64820Y896464D01*
X64554Y896118D01*
X64320Y895750D01*
X64118Y895363D01*
X63952Y894960D01*
X63820Y894544D01*
X63726Y894118D01*
X63669Y893686D01*
X63650Y893250D01*
X63650Y871250D01*
X131650Y866250D02*
X132086Y866269D01*
X132518Y866326D01*
X132944Y866420D01*
X133360Y866552D01*
X133763Y866718D01*
X134150Y866920D01*
X134518Y867154D01*
X134864Y867420D01*
X135186Y867714D01*
X135480Y868036D01*
X135746Y868382D01*
X135980Y868750D01*
X136182Y869137D01*
X136348Y869540D01*
X136480Y869956D01*
X136574Y870382D01*
X136631Y870814D01*
X136650Y871250D01*
X136650Y893250D01*
X136631Y893686D01*
X136574Y894118D01*
X136480Y894544D01*
X136348Y894960D01*
X136182Y895363D01*
X135980Y895750D01*
X135746Y896118D01*
X135480Y896464D01*
X135186Y896786D01*
X134864Y897080D01*
X134518Y897346D01*
X134150Y897580D01*
X133763Y897782D01*
X133360Y897948D01*
X132944Y898080D01*
X132518Y898174D01*
X132086Y898231D01*
X131650Y898250D01*
X131650Y866250D01*
X126650Y871250D02*
X126669Y870814D01*
X126726Y870382D01*
X126820Y869956D01*
X126952Y869540D01*
X127118Y869137D01*
X127320Y868750D01*
X127554Y868382D01*
X127820Y868036D01*
X128114Y867714D01*
X128436Y867420D01*
X128782Y867154D01*
X129150Y866920D01*
X129537Y866718D01*
X129940Y866552D01*
X130356Y866420D01*
X130782Y866326D01*
X131214Y866269D01*
X131650Y866250D01*
X131650Y898250D01*
X131214Y898231D01*
X130782Y898174D01*
X130356Y898080D01*
X129940Y897948D01*
X129537Y897782D01*
X129150Y897580D01*
X128782Y897346D01*
X128436Y897080D01*
X128114Y896786D01*
X127820Y896464D01*
X127554Y896118D01*
X127320Y895750D01*
X127118Y895363D01*
X126952Y894960D01*
X126820Y894544D01*
X126726Y894118D01*
X126669Y893686D01*
X126650Y893250D01*
X126650Y871250D01*
X126650Y871250D02*
X126669Y870814D01*
X126726Y870382D01*
X126820Y869956D01*
X126952Y869540D01*
X127118Y869137D01*
X127320Y868750D01*
X127554Y868382D01*
X127820Y868036D01*
X128114Y867714D01*
X128436Y867420D01*
X128782Y867154D01*
X129150Y866920D01*
X129537Y866718D01*
X129940Y866552D01*
X130356Y866420D01*
X130782Y866326D01*
X131214Y866269D01*
X131650Y866250D01*
X132086Y866269D01*
X132518Y866326D01*
X132944Y866420D01*
X133360Y866552D01*
X133763Y866718D01*
X134150Y866920D01*
X134518Y867154D01*
X134864Y867420D01*
X135186Y867714D01*
X135480Y868036D01*
X135746Y868382D01*
X135980Y868750D01*
X136182Y869137D01*
X136348Y869540D01*
X136480Y869956D01*
X136574Y870382D01*
X136631Y870814D01*
X136650Y871250D01*
X136650Y893250D01*
X136631Y893686D01*
X136574Y894118D01*
X136480Y894544D01*
X136348Y894960D01*
X136182Y895363D01*
X135980Y895750D01*
X135746Y896118D01*
X135480Y896464D01*
X135186Y896786D01*
X134864Y897080D01*
X134518Y897346D01*
X134150Y897580D01*
X133763Y897782D01*
X133360Y897948D01*
X132944Y898080D01*
X132518Y898174D01*
X132086Y898231D01*
X131650Y898250D01*
X131214Y898231D01*
X130782Y898174D01*
X130356Y898080D01*
X129940Y897948D01*
X129537Y897782D01*
X129150Y897580D01*
X128782Y897346D01*
X128436Y897080D01*
X128114Y896786D01*
X127820Y896464D01*
X127554Y896118D01*
X127320Y895750D01*
X127118Y895363D01*
X126952Y894960D01*
X126820Y894544D01*
X126726Y894118D01*
X126669Y893686D01*
X126650Y893250D01*
X126650Y871250D01*
X290501Y938950D02*
X289949Y939023D01*
X289411Y939167D01*
X288896Y939380D01*
X288414Y939659D01*
X287972Y939998D01*
X287578Y940392D01*
X287239Y940834D01*
X286960Y941316D01*
X286747Y941831D01*
X286603Y942369D01*
X286530Y942921D01*
X286530Y943479D01*
X286603Y944031D01*
X286747Y944569D01*
X286960Y945084D01*
X287239Y945566D01*
X287578Y946008D01*
X287972Y946402D01*
X288414Y946741D01*
X288896Y947020D01*
X289411Y947233D01*
X289949Y947377D01*
X290501Y947450D01*
X291059Y947450D01*
X291611Y947377D01*
X292149Y947233D01*
X292664Y947020D01*
X293146Y946741D01*
X293588Y946402D01*
X293982Y946008D01*
X294321Y945566D01*
X294600Y945084D01*
X294813Y944569D01*
X294957Y944031D01*
X295030Y943479D01*
X295030Y942921D01*
X294957Y942369D01*
X294813Y941831D01*
X294600Y941316D01*
X294321Y940834D01*
X293982Y940392D01*
X293588Y939998D01*
X293146Y939659D01*
X292664Y939380D01*
X292149Y939167D01*
X291611Y939023D01*
X291059Y938950D01*
X290501Y938950D01*
X252501Y938950D02*
X251949Y939023D01*
X251411Y939167D01*
X250896Y939380D01*
X250414Y939659D01*
X249972Y939998D01*
X249578Y940392D01*
X249239Y940834D01*
X248960Y941316D01*
X248747Y941831D01*
X248603Y942369D01*
X248530Y942921D01*
X248530Y943479D01*
X248603Y944031D01*
X248747Y944569D01*
X248960Y945084D01*
X249239Y945566D01*
X249578Y946008D01*
X249972Y946402D01*
X250414Y946741D01*
X250896Y947020D01*
X251411Y947233D01*
X251949Y947377D01*
X252501Y947450D01*
X253059Y947450D01*
X253611Y947377D01*
X254149Y947233D01*
X254664Y947020D01*
X255146Y946741D01*
X255588Y946402D01*
X255982Y946008D01*
X256321Y945566D01*
X256600Y945084D01*
X256813Y944569D01*
X256957Y944031D01*
X257030Y943479D01*
X257030Y942921D01*
X256957Y942369D01*
X256813Y941831D01*
X256600Y941316D01*
X256321Y940834D01*
X255982Y940392D01*
X255588Y939998D01*
X255146Y939659D01*
X254664Y939380D01*
X254149Y939167D01*
X253611Y939023D01*
X253059Y938950D01*
X252501Y938950D01*
X163501Y938950D02*
X162949Y939023D01*
X162411Y939167D01*
X161896Y939380D01*
X161414Y939659D01*
X160972Y939998D01*
X160578Y940392D01*
X160239Y940834D01*
X159960Y941316D01*
X159747Y941831D01*
X159603Y942369D01*
X159530Y942921D01*
X159530Y943479D01*
X159603Y944031D01*
X159747Y944569D01*
X159960Y945084D01*
X160239Y945566D01*
X160578Y946008D01*
X160972Y946402D01*
X161414Y946741D01*
X161896Y947020D01*
X162411Y947233D01*
X162949Y947377D01*
X163501Y947450D01*
X164059Y947450D01*
X164611Y947377D01*
X165149Y947233D01*
X165664Y947020D01*
X166146Y946741D01*
X166588Y946402D01*
X166982Y946008D01*
X167321Y945566D01*
X167600Y945084D01*
X167813Y944569D01*
X167957Y944031D01*
X168030Y943479D01*
X168030Y942921D01*
X167957Y942369D01*
X167813Y941831D01*
X167600Y941316D01*
X167321Y940834D01*
X166982Y940392D01*
X166588Y939998D01*
X166146Y939659D01*
X165664Y939380D01*
X165149Y939167D01*
X164611Y939023D01*
X164059Y938950D01*
X163501Y938950D01*
X125501Y938950D02*
X124949Y939023D01*
X124411Y939167D01*
X123896Y939380D01*
X123414Y939659D01*
X122972Y939998D01*
X122578Y940392D01*
X122239Y940834D01*
X121960Y941316D01*
X121747Y941831D01*
X121603Y942369D01*
X121530Y942921D01*
X121530Y943479D01*
X121603Y944031D01*
X121747Y944569D01*
X121960Y945084D01*
X122239Y945566D01*
X122578Y946008D01*
X122972Y946402D01*
X123414Y946741D01*
X123896Y947020D01*
X124411Y947233D01*
X124949Y947377D01*
X125501Y947450D01*
X126059Y947450D01*
X126611Y947377D01*
X127149Y947233D01*
X127664Y947020D01*
X128146Y946741D01*
X128588Y946402D01*
X128982Y946008D01*
X129321Y945566D01*
X129600Y945084D01*
X129813Y944569D01*
X129957Y944031D01*
X130030Y943479D01*
X130030Y942921D01*
X129957Y942369D01*
X129813Y941831D01*
X129600Y941316D01*
X129321Y940834D01*
X128982Y940392D01*
X128588Y939998D01*
X128146Y939659D01*
X127664Y939380D01*
X127149Y939167D01*
X126611Y939023D01*
X126059Y938950D01*
X125501Y938950D01*
X823990Y957044D02*
X823914Y955976D01*
X823761Y954915D01*
X823533Y953868D01*
X823231Y952840D01*
X822857Y951836D01*
X822412Y950861D01*
X821898Y949921D01*
X821319Y949020D01*
X820677Y948162D01*
X819975Y947352D01*
X819218Y946595D01*
X818408Y945893D01*
X817550Y945251D01*
X816649Y944672D01*
X815709Y944158D01*
X814734Y943713D01*
X813730Y943339D01*
X812702Y943037D01*
X811655Y942809D01*
X810594Y942656D01*
X809526Y942580D01*
X808454Y942580D01*
X807386Y942656D01*
X806325Y942809D01*
X805278Y943037D01*
X804250Y943339D01*
X803246Y943713D01*
X802271Y944158D01*
X801331Y944672D01*
X800430Y945251D01*
X799572Y945893D01*
X798762Y946595D01*
X798005Y947352D01*
X797303Y948162D01*
X796661Y949020D01*
X796082Y949921D01*
X795568Y950861D01*
X795123Y951836D01*
X794749Y952840D01*
X794447Y953868D01*
X794219Y954915D01*
X794066Y955976D01*
X793990Y957044D01*
X793990Y958116D01*
X794066Y959184D01*
X794219Y960245D01*
X794447Y961292D01*
X794749Y962320D01*
X795123Y963324D01*
X795568Y964299D01*
X796082Y965239D01*
X796661Y966140D01*
X797303Y966998D01*
X798005Y967808D01*
X798762Y968565D01*
X799572Y969267D01*
X800430Y969909D01*
X801331Y970488D01*
X802271Y971002D01*
X803246Y971447D01*
X804250Y971821D01*
X805278Y972123D01*
X806325Y972351D01*
X807386Y972504D01*
X808454Y972580D01*
X809526Y972580D01*
X810594Y972504D01*
X811655Y972351D01*
X812702Y972123D01*
X813730Y971821D01*
X814734Y971447D01*
X815709Y971002D01*
X816649Y970488D01*
X817550Y969909D01*
X818408Y969267D01*
X819218Y968565D01*
X819975Y967808D01*
X820677Y966998D01*
X821319Y966140D01*
X821898Y965239D01*
X822412Y964299D01*
X822857Y963324D01*
X823231Y962320D01*
X823533Y961292D01*
X823761Y960245D01*
X823914Y959184D01*
X823990Y958116D01*
X823990Y957044D01*
X823990Y41374D02*
X823914Y40306D01*
X823761Y39245D01*
X823533Y38198D01*
X823231Y37170D01*
X822857Y36166D01*
X822412Y35191D01*
X821898Y34251D01*
X821319Y33350D01*
X820677Y32492D01*
X819975Y31682D01*
X819218Y30925D01*
X818408Y30223D01*
X817550Y29581D01*
X816649Y29002D01*
X815709Y28488D01*
X814734Y28043D01*
X813730Y27669D01*
X812702Y27367D01*
X811655Y27139D01*
X810594Y26986D01*
X809526Y26910D01*
X808454Y26910D01*
X807386Y26986D01*
X806325Y27139D01*
X805278Y27367D01*
X804250Y27669D01*
X803246Y28043D01*
X802271Y28488D01*
X801331Y29002D01*
X800430Y29581D01*
X799572Y30223D01*
X798762Y30925D01*
X798005Y31682D01*
X797303Y32492D01*
X796661Y33350D01*
X796082Y34251D01*
X795568Y35191D01*
X795123Y36166D01*
X794749Y37170D01*
X794447Y38198D01*
X794219Y39245D01*
X794066Y40306D01*
X793990Y41374D01*
X793990Y42446D01*
X794066Y43514D01*
X794219Y44575D01*
X794447Y45622D01*
X794749Y46650D01*
X795123Y47654D01*
X795568Y48629D01*
X796082Y49569D01*
X796661Y50470D01*
X797303Y51328D01*
X798005Y52138D01*
X798762Y52895D01*
X799572Y53597D01*
X800430Y54239D01*
X801331Y54818D01*
X802271Y55332D01*
X803246Y55777D01*
X804250Y56151D01*
X805278Y56453D01*
X806325Y56681D01*
X807386Y56834D01*
X808454Y56910D01*
X809526Y56910D01*
X810594Y56834D01*
X811655Y56681D01*
X812702Y56453D01*
X813730Y56151D01*
X814734Y55777D01*
X815709Y55332D01*
X816649Y54818D01*
X817550Y54239D01*
X818408Y53597D01*
X819218Y52895D01*
X819975Y52138D01*
X820677Y51328D01*
X821319Y50470D01*
X821898Y49569D01*
X822412Y48629D01*
X822857Y47654D01*
X823231Y46650D01*
X823533Y45622D01*
X823761Y44575D01*
X823914Y43514D01*
X823990Y42446D01*
X823990Y41374D01*
X55386Y959076D02*
X55310Y958008D01*
X55157Y956947D01*
X54929Y955900D01*
X54627Y954872D01*
X54253Y953868D01*
X53808Y952893D01*
X53294Y951953D01*
X52715Y951052D01*
X52073Y950194D01*
X51371Y949384D01*
X50614Y948627D01*
X49804Y947925D01*
X48946Y947283D01*
X48045Y946704D01*
X47105Y946190D01*
X46130Y945745D01*
X45126Y945371D01*
X44098Y945069D01*
X43051Y944841D01*
X41990Y944688D01*
X40922Y944612D01*
X39850Y944612D01*
X38782Y944688D01*
X37721Y944841D01*
X36674Y945069D01*
X35646Y945371D01*
X34642Y945745D01*
X33667Y946190D01*
X32727Y946704D01*
X31826Y947283D01*
X30968Y947925D01*
X30158Y948627D01*
X29401Y949384D01*
X28699Y950194D01*
X28057Y951052D01*
X27478Y951953D01*
X26964Y952893D01*
X26519Y953868D01*
X26145Y954872D01*
X25843Y955900D01*
X25615Y956947D01*
X25462Y958008D01*
X25386Y959076D01*
X25386Y960148D01*
X25462Y961216D01*
X25615Y962277D01*
X25843Y963324D01*
X26145Y964352D01*
X26519Y965356D01*
X26964Y966331D01*
X27478Y967271D01*
X28057Y968172D01*
X28699Y969030D01*
X29401Y969840D01*
X30158Y970597D01*
X30968Y971299D01*
X31826Y971941D01*
X32727Y972520D01*
X33667Y973034D01*
X34642Y973479D01*
X35646Y973853D01*
X36674Y974155D01*
X37721Y974383D01*
X38782Y974536D01*
X39850Y974612D01*
X40922Y974612D01*
X41990Y974536D01*
X43051Y974383D01*
X44098Y974155D01*
X45126Y973853D01*
X46130Y973479D01*
X47105Y973034D01*
X48045Y972520D01*
X48946Y971941D01*
X49804Y971299D01*
X50614Y970597D01*
X51371Y969840D01*
X52073Y969030D01*
X52715Y968172D01*
X53294Y967271D01*
X53808Y966331D01*
X54253Y965356D01*
X54627Y964352D01*
X54929Y963324D01*
X55157Y962277D01*
X55310Y961216D01*
X55386Y960148D01*
X55386Y959076D01*
M02*
