*
*
G04 PADS VX.2.4 Build Number: 11282995 generated Gerber (RS-274-X) file*
G04 PC Version=2.1*
*
%IN "ESP-12E Dev Board_with_"*%
*
%MOIN*%
*
%FSLAX35Y35*%
*
*
*
*
G04 PC Standard Apertures*
*
*
G04 Thermal Relief Aperture macro.*
%AMTER*
1,1,$1,0,0*
1,0,$1-$2,0,0*
21,0,$3,$4,0,0,45*
21,0,$3,$4,0,0,135*
%
*
*
G04 Annular Aperture macro.*
%AMANN*
1,1,$1,0,0*
1,0,$2,0,0*
%
*
*
G04 Odd Aperture macro.*
%AMODD*
1,1,$1,0,0*
1,0,$1-0.005,0,0*
%
*
*
G04 PC Custom Aperture Macros*
*
*
*
*
*
*
G04 PC Aperture Table*
*
%ADD010C,0.001*%
%ADD043C,0.00004*%
%ADD044R,0.06906X0.06118*%
%ADD045R,0.06118X0.06906*%
%ADD046R,0.10449X0.07299*%
%ADD047R,0.07299X0.10449*%
%ADD048R,0.12024X0.04937*%
%ADD049R,0.065X0.065*%
%ADD050R,0.02575X0.06315*%
%ADD051R,0.09661X0.07299*%
%ADD052R,0.08087X0.0848*%
%ADD053R,0.0848X0.0848*%
%ADD054O,0.0615X0.11299*%
%ADD055O,0.11299X0.0615*%
%ADD056O,0.16748X0.08874*%
%ADD057O,0.08874X0.16748*%
%ADD058R,0.05724X0.05724*%
%ADD059R,0.05331X0.02575*%
%ADD060R,0.10055X0.07299*%
%ADD061R,0.08874X0.05724*%
%ADD062R,0.05724X0.08874*%
%ADD063R,0.04543X0.08283*%
%ADD064R,0.13598X0.08283*%
%ADD065R,0.035X0.07*%
%ADD066R,0.049X0.022*%
%ADD067C,0.08087*%
%ADD068C,0.17929*%
*
*
*
*
G04 PC Circuitry*
G04 Layer Name ESP-12E Dev Board_with_ - circuitry*
%LPD*%
*
*
G04 PC Custom Flashes*
G04 Layer Name ESP-12E Dev Board_with_ - flashes*
%LPD*%
*
*
G04 PC Circuitry*
G04 Layer Name ESP-12E Dev Board_with_ - circuitry*
%LPD*%
*
G54D10*
G54D43*
G01X96063Y96063D02*
X100000Y92126D01*
X308661*
X312598Y96063*
Y324409*
X308661Y328346*
X100000*
X96063Y324409*
Y96063*
G54D44*
X175926Y129460D03*
Y136940D03*
X178756Y221488D03*
Y214008D03*
X186750Y221534D03*
Y214054D03*
X232248Y141578D03*
Y149058D03*
X240826D03*
Y141578D03*
X179522Y173736D03*
Y181216D03*
X226845Y214060D03*
Y221540D03*
X151685Y176866D03*
Y169386D03*
X242865Y221551D03*
Y214071D03*
X234865D03*
Y221551D03*
X142685Y176866D03*
Y169386D03*
X218845Y214060D03*
Y221540D03*
X210845Y214060D03*
Y221540D03*
X194845Y214060D03*
Y221540D03*
X159882Y169386D03*
Y176866D03*
X133500D03*
Y169386D03*
X167000Y136940D03*
Y129460D03*
X202800Y221540D03*
Y214060D03*
G54D45*
X238956Y189148D03*
X246436D03*
X232178Y124052D03*
X239658D03*
X279686Y119500D03*
X287166D03*
X222060Y195600D03*
X229540D03*
G54D46*
X168356Y223854D03*
Y212043D03*
G54D47*
X285856Y187124D03*
X297667D03*
G54D48*
X298556Y140282D03*
X280052D03*
X298652Y167600D03*
X280148D03*
G54D49*
X184000Y141626D03*
Y128626D03*
X192400Y141826D03*
Y128826D03*
G54D50*
X181701Y110803D03*
X184260D03*
X186819D03*
X189378D03*
X191937D03*
G54D51*
X174417Y110311D03*
X199220D03*
G54D52*
X171071Y100272D03*
X202567D03*
G54D53*
X182094D03*
X191543D03*
G54D54*
X132315Y237756D03*
X142157D03*
X152000D03*
X256693Y209756D03*
X266535D03*
X276378D03*
X286220D03*
X256693Y292756D03*
X266535D03*
X276378D03*
X286220D03*
X256693Y265756D03*
X266535D03*
X276378D03*
X286220D03*
X122693Y264945D03*
X132535D03*
X142378D03*
X152220D03*
X256615Y319726D03*
X266457D03*
X276300D03*
X256693Y237756D03*
X266535D03*
X276378D03*
X286220D03*
X132000Y210811D03*
X141843D03*
X151685D03*
G54D55*
X107000Y165366D03*
Y175209D03*
Y185051D03*
Y194894D03*
Y204736D03*
Y214579D03*
Y224421D03*
Y234264D03*
Y132181D03*
Y142024D03*
G54D56*
X136346Y145457D03*
Y120654D03*
G54D57*
X156031Y133646D03*
G54D58*
X305808Y120322D03*
X297540D03*
G54D59*
X177291Y192685D03*
Y195244D03*
Y197803D03*
X170205D03*
Y195244D03*
Y192685D03*
G54D60*
X280028Y106126D03*
X255224D03*
X216157Y105874D03*
X240961D03*
G54D61*
X172252Y241630D03*
Y249504D03*
Y257378D03*
Y265252D03*
Y273126D03*
Y281000D03*
Y288874D03*
Y296748D03*
X236031Y241630D03*
Y249504D03*
Y257378D03*
Y265252D03*
Y273126D03*
Y281000D03*
Y288874D03*
Y296748D03*
G54D62*
X215559Y233756D03*
X184063D03*
X191937D03*
X223433D03*
X199811D03*
X207685D03*
G54D63*
X203441Y124669D03*
X212496D03*
X221551D03*
X250841D03*
X259896D03*
X268951D03*
G54D64*
X212496Y149079D03*
X259896D03*
G54D65*
X190752Y163146D03*
X200752Y184366D03*
X185752Y163146D03*
X195752D03*
X200752D03*
X195752Y184366D03*
X205752D03*
X210752D03*
Y163146D03*
X220752Y184366D03*
X205752Y163146D03*
X215752D03*
Y184366D03*
X220752Y163146D03*
X190752Y184366D03*
X185752D03*
G54D66*
X230013Y181122D03*
Y178563D03*
Y176004D03*
Y173445D03*
Y170886D03*
Y168327D03*
Y165768D03*
X252987D03*
Y168327D03*
Y170886D03*
Y173445D03*
Y176004D03*
Y178563D03*
Y181122D03*
G54D67*
X133469Y279232D03*
X143311D03*
X153154D03*
G54D68*
X160240Y306791D03*
X126382D03*
X0Y0D02*
M02*
