G04 EAGLE Gerber RS-274X export*
G75*
%MOMM*%
%FSLAX34Y34*%
%LPD*%
%INSoldermask Top*%
%IPPOS*%
%AMOC8*
5,1,8,0,0,1.08239X$1,22.5*%
G01*
%ADD10C,3.503200*%
%ADD11R,1.703200X1.503200*%
%ADD12R,2.603200X1.803200*%
%ADD13R,1.503200X1.703200*%
%ADD14R,1.203200X3.003200*%
%ADD15R,1.600200X1.600200*%
%ADD16R,0.603200X1.553200*%
%ADD17R,2.403200X1.803200*%
%ADD18R,2.003200X2.103200*%
%ADD19R,2.103200X2.103200*%
%ADD20C,1.511200*%
%ADD21C,1.711200*%
%ADD22C,2.203200*%
%ADD23R,1.003200X1.003200*%
%ADD24R,1.303200X0.603200*%
%ADD25R,2.503200X1.803200*%
%ADD26R,2.203200X1.403200*%
%ADD27R,1.403200X2.203200*%
%ADD28R,1.103200X2.053200*%
%ADD29R,3.403200X2.053200*%
%ADD30R,0.838200X1.727200*%
%ADD31C,2.003200*%
%ADD32C,4.503200*%

G36*
X365775Y224541D02*
X365775Y224541D01*
X365791Y224539D01*
X365842Y224560D01*
X365895Y224576D01*
X365906Y224588D01*
X365920Y224594D01*
X365952Y224640D01*
X365989Y224681D01*
X365991Y224697D01*
X366000Y224710D01*
X366013Y224790D01*
X366013Y228600D01*
X366010Y228611D01*
X366011Y228619D01*
X366010Y228622D01*
X366011Y228631D01*
X365990Y228682D01*
X365974Y228735D01*
X365962Y228746D01*
X365956Y228760D01*
X365910Y228792D01*
X365869Y228829D01*
X365853Y228831D01*
X365840Y228840D01*
X365760Y228853D01*
X355600Y228853D01*
X355585Y228849D01*
X355569Y228851D01*
X355518Y228830D01*
X355465Y228814D01*
X355454Y228802D01*
X355440Y228796D01*
X355408Y228750D01*
X355371Y228709D01*
X355369Y228693D01*
X355360Y228680D01*
X355347Y228600D01*
X355347Y224790D01*
X355351Y224775D01*
X355349Y224759D01*
X355370Y224708D01*
X355386Y224655D01*
X355398Y224644D01*
X355404Y224630D01*
X355450Y224598D01*
X355491Y224561D01*
X355507Y224559D01*
X355520Y224550D01*
X355600Y224537D01*
X365760Y224537D01*
X365775Y224541D01*
G37*
G36*
X438165Y224541D02*
X438165Y224541D01*
X438181Y224539D01*
X438232Y224560D01*
X438285Y224576D01*
X438296Y224588D01*
X438310Y224594D01*
X438342Y224640D01*
X438379Y224681D01*
X438381Y224697D01*
X438390Y224710D01*
X438403Y224790D01*
X438403Y228600D01*
X438400Y228611D01*
X438401Y228619D01*
X438400Y228622D01*
X438401Y228631D01*
X438380Y228682D01*
X438364Y228735D01*
X438352Y228746D01*
X438346Y228760D01*
X438300Y228792D01*
X438259Y228829D01*
X438243Y228831D01*
X438230Y228840D01*
X438150Y228853D01*
X427990Y228853D01*
X427975Y228849D01*
X427959Y228851D01*
X427908Y228830D01*
X427855Y228814D01*
X427844Y228802D01*
X427830Y228796D01*
X427798Y228750D01*
X427761Y228709D01*
X427759Y228693D01*
X427750Y228680D01*
X427737Y228600D01*
X427737Y224790D01*
X427741Y224775D01*
X427739Y224759D01*
X427760Y224708D01*
X427776Y224655D01*
X427788Y224644D01*
X427794Y224630D01*
X427840Y224598D01*
X427881Y224561D01*
X427897Y224559D01*
X427910Y224550D01*
X427990Y224537D01*
X438150Y224537D01*
X438165Y224541D01*
G37*
D10*
X30000Y550000D03*
X490000Y550000D03*
X490000Y10000D03*
X30000Y10000D03*
D11*
X208092Y74828D03*
X208092Y93828D03*
D12*
X173624Y314588D03*
X173624Y284588D03*
D11*
X200040Y308580D03*
X200040Y289580D03*
X220345Y308697D03*
X220345Y289697D03*
D13*
X350972Y61092D03*
X369972Y61092D03*
D11*
X351150Y105608D03*
X351150Y124608D03*
D12*
X489905Y172353D03*
X489905Y202353D03*
D14*
X432608Y210200D03*
X432608Y163200D03*
D11*
X372938Y124608D03*
X372938Y105608D03*
X201986Y187289D03*
X201986Y206289D03*
D15*
X228600Y105730D03*
X228600Y72710D03*
X249936Y106238D03*
X249936Y73218D03*
D16*
X207520Y27440D03*
X214020Y27440D03*
X220520Y27440D03*
X227020Y27440D03*
X233520Y27440D03*
D17*
X189020Y26190D03*
X252020Y26190D03*
D18*
X180520Y690D03*
D19*
X208520Y690D03*
X232520Y690D03*
D18*
X260520Y690D03*
D20*
X82080Y343360D02*
X82080Y356440D01*
X107080Y356440D02*
X107080Y343360D01*
X132080Y343360D02*
X132080Y356440D01*
X398000Y285320D02*
X398000Y272240D01*
X423000Y272240D02*
X423000Y285320D01*
X448000Y285320D02*
X448000Y272240D01*
X473000Y272240D02*
X473000Y285320D01*
D21*
X25320Y166030D02*
X10240Y166030D01*
D20*
X11240Y191030D02*
X24320Y191030D01*
X24320Y216030D02*
X11240Y216030D01*
X11240Y241030D02*
X24320Y241030D01*
X24320Y266030D02*
X11240Y266030D01*
X11240Y291030D02*
X24320Y291030D01*
X24320Y316030D02*
X11240Y316030D01*
D21*
X10240Y341030D02*
X25320Y341030D01*
D20*
X398000Y483060D02*
X398000Y496140D01*
X423000Y496140D02*
X423000Y483060D01*
X448000Y483060D02*
X448000Y496140D01*
X473000Y496140D02*
X473000Y483060D01*
X24320Y81740D02*
X11240Y81740D01*
X11240Y106740D02*
X24320Y106740D01*
X398000Y414480D02*
X398000Y427560D01*
X423000Y427560D02*
X423000Y414480D01*
X448000Y414480D02*
X448000Y427560D01*
X473000Y427560D02*
X473000Y414480D01*
X57640Y412420D02*
X57640Y425500D01*
X82640Y425500D02*
X82640Y412420D01*
X107640Y412420D02*
X107640Y425500D01*
X132640Y425500D02*
X132640Y412420D01*
X382562Y551564D02*
X382562Y564644D01*
X407562Y564644D02*
X407562Y551564D01*
X432562Y551564D02*
X432562Y564644D01*
X398000Y356440D02*
X398000Y343360D01*
X423000Y343360D02*
X423000Y356440D01*
X448000Y356440D02*
X448000Y343360D01*
X473000Y343360D02*
X473000Y356440D01*
D22*
X115020Y115460D02*
X95020Y115460D01*
X95020Y52460D02*
X115020Y52460D01*
X155020Y75460D02*
X155020Y95460D01*
D23*
X494848Y66988D03*
X494848Y81988D03*
D24*
X196320Y235420D03*
X196320Y241920D03*
X196320Y248420D03*
X178320Y248420D03*
X178320Y241920D03*
X178320Y235420D03*
D11*
X322186Y289712D03*
X322186Y308712D03*
X131280Y195240D03*
X131280Y176240D03*
X362877Y308740D03*
X362877Y289740D03*
X342557Y289740D03*
X342557Y308740D03*
X108420Y195240D03*
X108420Y176240D03*
X301866Y289712D03*
X301866Y308712D03*
X281546Y289712D03*
X281546Y308712D03*
X240906Y289712D03*
X240906Y308712D03*
X152100Y176240D03*
X152100Y195240D03*
X495300Y131608D03*
X495300Y112608D03*
X85090Y195240D03*
X85090Y176240D03*
D25*
X450412Y15052D03*
X387412Y15052D03*
X295040Y14920D03*
X358040Y14920D03*
D26*
X183520Y359740D03*
X183520Y379740D03*
X183520Y399740D03*
X183520Y419740D03*
X183520Y439740D03*
X183520Y459740D03*
X183520Y479740D03*
X183520Y499740D03*
X345520Y359740D03*
X345520Y379740D03*
X345520Y399740D03*
X345520Y419740D03*
X345520Y439740D03*
X345520Y459740D03*
X345520Y479740D03*
X345520Y499740D03*
D27*
X293520Y339740D03*
X213520Y339740D03*
X233520Y339740D03*
X313520Y339740D03*
X253520Y339740D03*
X273520Y339740D03*
D28*
X285620Y63300D03*
X308620Y63300D03*
X331620Y63300D03*
D29*
X308620Y125300D03*
D28*
X397634Y63300D03*
X420634Y63300D03*
X443634Y63300D03*
D29*
X420634Y125300D03*
D30*
X230510Y160390D03*
X255910Y214290D03*
X217810Y160390D03*
X243210Y160390D03*
X255910Y160390D03*
X243210Y214290D03*
X268610Y214290D03*
X281310Y214290D03*
X281310Y160390D03*
X306710Y214290D03*
X268610Y160390D03*
X294010Y160390D03*
X294010Y214290D03*
X306710Y160390D03*
X230510Y214290D03*
X217810Y214290D03*
D31*
X87550Y455250D03*
X112550Y455250D03*
X137550Y455250D03*
D32*
X155550Y525250D03*
X69550Y525250D03*
D20*
X81280Y288000D02*
X81280Y274920D01*
X106280Y274920D02*
X106280Y288000D01*
X131280Y288000D02*
X131280Y274920D01*
D14*
X360680Y210444D03*
X360680Y163444D03*
D11*
X185420Y93828D03*
X185420Y74828D03*
X261112Y308712D03*
X261112Y289712D03*
M02*
