G04 EAGLE Gerber RS-274X export*
G75*
%MOMM*%
%FSLAX34Y34*%
%LPD*%
%INSoldermask Bottom*%
%IPPOS*%
%AMOC8*
5,1,8,0,0,1.08239X$1,22.5*%
G01*
%ADD10C,3.503200*%
%ADD11C,1.511200*%
%ADD12C,1.711200*%
%ADD13C,2.203200*%
%ADD14C,2.003200*%
%ADD15C,4.503200*%


D10*
X30000Y550000D03*
X490000Y550000D03*
X490000Y10000D03*
X30000Y10000D03*
D11*
X82080Y343360D02*
X82080Y356440D01*
X107080Y356440D02*
X107080Y343360D01*
X132080Y343360D02*
X132080Y356440D01*
X398000Y285320D02*
X398000Y272240D01*
X423000Y272240D02*
X423000Y285320D01*
X448000Y285320D02*
X448000Y272240D01*
X473000Y272240D02*
X473000Y285320D01*
D12*
X25320Y166030D02*
X10240Y166030D01*
D11*
X11240Y191030D02*
X24320Y191030D01*
X24320Y216030D02*
X11240Y216030D01*
X11240Y241030D02*
X24320Y241030D01*
X24320Y266030D02*
X11240Y266030D01*
X11240Y291030D02*
X24320Y291030D01*
X24320Y316030D02*
X11240Y316030D01*
D12*
X10240Y341030D02*
X25320Y341030D01*
D11*
X398000Y483060D02*
X398000Y496140D01*
X423000Y496140D02*
X423000Y483060D01*
X448000Y483060D02*
X448000Y496140D01*
X473000Y496140D02*
X473000Y483060D01*
X24320Y81740D02*
X11240Y81740D01*
X11240Y106740D02*
X24320Y106740D01*
X398000Y414480D02*
X398000Y427560D01*
X423000Y427560D02*
X423000Y414480D01*
X448000Y414480D02*
X448000Y427560D01*
X473000Y427560D02*
X473000Y414480D01*
X57640Y412420D02*
X57640Y425500D01*
X82640Y425500D02*
X82640Y412420D01*
X107640Y412420D02*
X107640Y425500D01*
X132640Y425500D02*
X132640Y412420D01*
X382562Y551564D02*
X382562Y564644D01*
X407562Y564644D02*
X407562Y551564D01*
X432562Y551564D02*
X432562Y564644D01*
X398000Y356440D02*
X398000Y343360D01*
X423000Y343360D02*
X423000Y356440D01*
X448000Y356440D02*
X448000Y343360D01*
X473000Y343360D02*
X473000Y356440D01*
D13*
X115020Y115460D02*
X95020Y115460D01*
X95020Y52460D02*
X115020Y52460D01*
X155020Y75460D02*
X155020Y95460D01*
D14*
X87550Y455250D03*
X112550Y455250D03*
X137550Y455250D03*
D15*
X155550Y525250D03*
X69550Y525250D03*
D11*
X81280Y288000D02*
X81280Y274920D01*
X106280Y274920D02*
X106280Y288000D01*
X131280Y288000D02*
X131280Y274920D01*
M02*
