M48
;GenerationSoftware,Autodesk,EAGLE,9.5.2*%
;CreationDate,2019-12-10T04:48:20Z*%
FMAT,2
ICI,OFF
METRIC,TZ,000.000
T6C0.350
T5C0.800
T4C1.000
T3C1.200
T2C2.970
T1C3.300
%
G90
M71
T1
X3000Y55000
X49000Y55000
X49000Y1000
X3000Y1000
T2
X15555Y52525
X6955Y52525
T3
X11255Y45525
X8755Y45525
X13755Y45525
T4
X1778Y16603
X1778Y34103
X10502Y11546
X10502Y5246
X15502Y8546
T5
X1778Y19103
X1778Y21603
X1778Y24103
X1778Y26603
X1778Y29103
X1778Y31603
X39800Y48960
X42300Y48960
X44800Y48960
X47300Y48960
X1778Y8174
X1778Y10674
X39800Y42102
X42300Y42102
X44800Y42102
X47300Y42102
X5764Y41896
X10764Y41896
X13264Y41896
X38256Y55810
X40756Y55810
X43256Y55810
X39800Y34990
X42300Y34990
X8208Y34990
X47300Y34990
X8264Y41896
X13208Y34990
X39800Y27878
X42300Y27878
X44800Y34990
X44800Y27878
X47300Y27878
X10708Y34990
X8128Y28146
X10628Y28146
X13128Y28146
T6
X33833Y20472
X21895Y32309
X16612Y25806
X34392Y34519
X36322Y37846
X50597Y52070
X11887Y29870
X17069Y17678
X26365Y4572
X50444Y25654
X25451Y32309
X15037Y27940
X39218Y12446
X32055Y20015
X32004Y17374
X20320Y22047
X19914Y17170
X17780Y4318
X40894Y22860
X43282Y7112
X21692Y22911
X28702Y25959
X46279Y9398
X44653Y4216
X20625Y49936
X23216Y32309
X16561Y24282
X12954Y23622
X24994Y37998
X29616Y37998
X39878Y32512
X39726Y29972
X21285Y25375
X17628Y20472
X28346Y35966
X28346Y40894
X18288Y12751
X27686Y1524
X8636Y14224
X22911Y4724
X28194Y14224
X24079Y4674
X26924Y14224
X34188Y32817
X31902Y35712
X17221Y19558
X16612Y41935
X9601Y23266
X6299Y22149
X41097Y44856
X43739Y44450
X40792Y46685
X43688Y46787
X32004Y48006
X28194Y19812
X32004Y50038
X26975Y19812
X13767Y21336
X11989Y15900
X4369Y25400
X36678Y33325
X8992Y2997
X23622Y49784
X28448Y49784
X23571Y41910
X26162Y41148
X29464Y23724
X29921Y14376
X5588Y21082
X10668Y21082
X4775Y3048
X14986Y42672
X13716Y37084
X38252Y21692
X44755Y18847
X45110Y20828
X49987Y22352
X26619Y10820
X32004Y8382
X27584Y3353
X36576Y36017
X5791Y39573
X33376Y27483
X19152Y27280
X18491Y25908
X29667Y25095
X13665Y4877
X16612Y16815
X43891Y25603
X4064Y51054
X48260Y57404
X43536Y30074
X43688Y39878
X47752Y22403
X37846Y18186
X43332Y10262
X40538Y8788
X32461Y36576
X13208Y9906
X38608Y46736
X38252Y40945
X6147Y43993
X22606Y14478
X26772Y7823
X36982Y4267
X36119Y34442
X19609Y34646
X20066Y32461
X23368Y17932
X48971Y18745
X47092Y6350
X38964Y8788
M30