G04 EAGLE Gerber X2 export*
G75*
%MOMM*%
%FSLAX34Y34*%
%LPD*%
%AMOC8*
5,1,8,0,0,1.08239X$1,22.5*%
G01*
%ADD10C,1.524000*%
%ADD11P,1.732040X8X202.500000*%
%ADD12C,1.600200*%
%ADD13P,1.732040X8X112.500000*%
%ADD14C,1.320800*%
%ADD15R,1.651000X1.651000*%
%ADD16C,1.651000*%
%ADD17C,2.000000*%
%ADD18P,1.429621X8X112.500000*%
%ADD19R,2.032000X2.032000*%
%ADD20C,2.032000*%
%ADD21C,1.308000*%
%ADD22C,1.308000*%
%ADD23C,1.676400*%
%ADD24C,3.302000*%
%ADD25P,2.336880X8X202.500000*%
%ADD26C,1.879600*%
%ADD27C,0.152400*%

G36*
X782298Y10179D02*
X782298Y10179D01*
X782411Y10195D01*
X782419Y10199D01*
X782429Y10200D01*
X782529Y10254D01*
X782631Y10305D01*
X782638Y10311D01*
X782646Y10316D01*
X782724Y10398D01*
X782805Y10479D01*
X782809Y10487D01*
X782815Y10494D01*
X782863Y10598D01*
X782914Y10699D01*
X782915Y10709D01*
X782919Y10717D01*
X782931Y10830D01*
X782947Y10943D01*
X782945Y10952D01*
X782946Y10961D01*
X782922Y11073D01*
X782900Y11185D01*
X782896Y11193D01*
X782894Y11202D01*
X782835Y11299D01*
X782779Y11399D01*
X782771Y11407D01*
X782768Y11413D01*
X782750Y11428D01*
X782660Y11517D01*
X779205Y14273D01*
X772382Y24280D01*
X768812Y35854D01*
X768812Y47966D01*
X772382Y59540D01*
X773198Y60736D01*
X773198Y60737D01*
X774755Y63020D01*
X775793Y64543D01*
X776831Y66065D01*
X778388Y68349D01*
X779205Y69547D01*
X788674Y77098D01*
X799948Y81523D01*
X812026Y82429D01*
X815057Y81737D01*
X815058Y81737D01*
X818393Y80975D01*
X821728Y80214D01*
X823835Y79733D01*
X834324Y73677D01*
X839220Y68401D01*
X839288Y68348D01*
X839350Y68289D01*
X839384Y68273D01*
X839414Y68250D01*
X839495Y68221D01*
X839573Y68185D01*
X839611Y68181D01*
X839646Y68169D01*
X839732Y68168D01*
X839817Y68158D01*
X839854Y68166D01*
X839892Y68166D01*
X839974Y68192D01*
X840058Y68210D01*
X840090Y68230D01*
X840126Y68241D01*
X840195Y68293D01*
X840269Y68337D01*
X840294Y68365D01*
X840324Y68388D01*
X840373Y68458D01*
X840429Y68523D01*
X840443Y68559D01*
X840465Y68590D01*
X840489Y68672D01*
X840521Y68752D01*
X840526Y68800D01*
X840534Y68826D01*
X840532Y68856D01*
X840539Y68918D01*
X840539Y930572D01*
X840525Y930656D01*
X840520Y930742D01*
X840506Y930777D01*
X840500Y930814D01*
X840459Y930890D01*
X840427Y930970D01*
X840402Y930998D01*
X840384Y931032D01*
X840322Y931091D01*
X840266Y931156D01*
X840234Y931175D01*
X840206Y931201D01*
X840128Y931237D01*
X840054Y931281D01*
X840017Y931289D01*
X839983Y931305D01*
X839898Y931314D01*
X839814Y931332D01*
X839776Y931328D01*
X839739Y931332D01*
X839655Y931314D01*
X839569Y931304D01*
X839535Y931288D01*
X839498Y931280D01*
X839425Y931236D01*
X839347Y931199D01*
X839310Y931167D01*
X839287Y931153D01*
X839267Y931130D01*
X839220Y931089D01*
X834324Y925813D01*
X823835Y919757D01*
X812026Y917061D01*
X799948Y917967D01*
X788674Y922392D01*
X779205Y929943D01*
X772382Y939950D01*
X768812Y951524D01*
X768812Y963636D01*
X772382Y975210D01*
X772756Y975759D01*
X773794Y977281D01*
X773794Y977282D01*
X774832Y978804D01*
X776389Y981088D01*
X777427Y982610D01*
X778465Y984133D01*
X779205Y985217D01*
X783300Y988483D01*
X783376Y988567D01*
X783455Y988650D01*
X783459Y988658D01*
X783465Y988665D01*
X783510Y988769D01*
X783558Y988873D01*
X783559Y988882D01*
X783563Y988891D01*
X783573Y989004D01*
X783586Y989117D01*
X783584Y989127D01*
X783584Y989136D01*
X783557Y989247D01*
X783533Y989358D01*
X783529Y989366D01*
X783526Y989375D01*
X783466Y989471D01*
X783407Y989569D01*
X783400Y989575D01*
X783395Y989583D01*
X783307Y989654D01*
X783220Y989729D01*
X783211Y989732D01*
X783204Y989738D01*
X783099Y989778D01*
X782992Y989821D01*
X782981Y989822D01*
X782974Y989825D01*
X782951Y989825D01*
X782825Y989839D01*
X68894Y989839D01*
X68837Y989830D01*
X68779Y989831D01*
X68716Y989810D01*
X68651Y989800D01*
X68600Y989773D01*
X68545Y989755D01*
X68492Y989715D01*
X68434Y989684D01*
X68394Y989643D01*
X68348Y989608D01*
X68310Y989554D01*
X68264Y989506D01*
X68240Y989454D01*
X68207Y989407D01*
X68188Y989343D01*
X68161Y989283D01*
X68154Y989226D01*
X68138Y989171D01*
X68141Y989104D01*
X68133Y989039D01*
X68146Y988982D01*
X68148Y988925D01*
X68172Y988863D01*
X68186Y988798D01*
X68215Y988749D01*
X68236Y988695D01*
X68296Y988614D01*
X68312Y988587D01*
X68322Y988578D01*
X68336Y988560D01*
X73958Y982501D01*
X79213Y971589D01*
X81018Y959612D01*
X79213Y947636D01*
X73958Y936723D01*
X65720Y927844D01*
X55231Y921789D01*
X43422Y919093D01*
X31344Y919999D01*
X20070Y924424D01*
X11397Y931340D01*
X11371Y931355D01*
X11350Y931375D01*
X11264Y931414D01*
X11182Y931461D01*
X11153Y931466D01*
X11127Y931478D01*
X11033Y931489D01*
X10940Y931506D01*
X10911Y931502D01*
X10883Y931505D01*
X10790Y931485D01*
X10697Y931472D01*
X10671Y931459D01*
X10642Y931453D01*
X10561Y931405D01*
X10477Y931363D01*
X10456Y931342D01*
X10431Y931327D01*
X10370Y931255D01*
X10303Y931188D01*
X10290Y931162D01*
X10271Y931140D01*
X10236Y931052D01*
X10194Y930968D01*
X10190Y930939D01*
X10179Y930912D01*
X10161Y930745D01*
X10161Y597916D01*
X10164Y597896D01*
X10162Y597877D01*
X10184Y597775D01*
X10200Y597673D01*
X10210Y597656D01*
X10214Y597636D01*
X10267Y597547D01*
X10316Y597456D01*
X10330Y597442D01*
X10340Y597425D01*
X10419Y597358D01*
X10494Y597286D01*
X10512Y597278D01*
X10527Y597265D01*
X10623Y597226D01*
X10717Y597183D01*
X10737Y597181D01*
X10755Y597173D01*
X10922Y597155D01*
X70420Y597155D01*
X70867Y596708D01*
X70867Y493460D01*
X70420Y493013D01*
X10922Y493013D01*
X10902Y493010D01*
X10883Y493012D01*
X10781Y492990D01*
X10679Y492974D01*
X10662Y492964D01*
X10642Y492960D01*
X10553Y492907D01*
X10462Y492858D01*
X10448Y492844D01*
X10431Y492834D01*
X10364Y492755D01*
X10292Y492680D01*
X10284Y492662D01*
X10271Y492647D01*
X10232Y492551D01*
X10189Y492457D01*
X10187Y492437D01*
X10179Y492419D01*
X10161Y492252D01*
X10161Y10922D01*
X10164Y10902D01*
X10162Y10883D01*
X10184Y10781D01*
X10200Y10679D01*
X10210Y10662D01*
X10214Y10642D01*
X10267Y10553D01*
X10316Y10462D01*
X10330Y10448D01*
X10340Y10431D01*
X10419Y10364D01*
X10494Y10292D01*
X10512Y10284D01*
X10527Y10271D01*
X10623Y10232D01*
X10717Y10189D01*
X10737Y10187D01*
X10755Y10179D01*
X10922Y10161D01*
X782186Y10161D01*
X782298Y10179D01*
G37*
%LPC*%
G36*
X526526Y40195D02*
X526526Y40195D01*
X523562Y41423D01*
X521293Y43692D01*
X520065Y46656D01*
X520065Y49864D01*
X521293Y52828D01*
X523161Y54696D01*
X523173Y54713D01*
X523188Y54725D01*
X523244Y54812D01*
X523305Y54896D01*
X523311Y54915D01*
X523321Y54932D01*
X523347Y55032D01*
X523377Y55131D01*
X523377Y55151D01*
X523381Y55170D01*
X523373Y55273D01*
X523371Y55377D01*
X523364Y55396D01*
X523362Y55416D01*
X523322Y55510D01*
X523286Y55608D01*
X523274Y55624D01*
X523266Y55642D01*
X523161Y55773D01*
X395516Y183418D01*
X395442Y183471D01*
X395372Y183531D01*
X395342Y183543D01*
X395316Y183562D01*
X395229Y183589D01*
X395144Y183623D01*
X395103Y183627D01*
X395081Y183634D01*
X395049Y183633D01*
X394977Y183641D01*
X393477Y183641D01*
X393381Y183626D01*
X393284Y183616D01*
X393260Y183606D01*
X393234Y183602D01*
X393148Y183556D01*
X393059Y183516D01*
X393040Y183499D01*
X393017Y183486D01*
X392950Y183416D01*
X392878Y183350D01*
X392865Y183327D01*
X392847Y183308D01*
X392806Y183220D01*
X392759Y183134D01*
X392755Y183109D01*
X392744Y183085D01*
X392733Y182988D01*
X392716Y182892D01*
X392720Y182866D01*
X392717Y182841D01*
X392737Y182745D01*
X392752Y182649D01*
X392763Y182626D01*
X392769Y182600D01*
X392819Y182517D01*
X392863Y182430D01*
X392882Y182411D01*
X392895Y182389D01*
X392969Y182326D01*
X393039Y182258D01*
X393067Y182242D01*
X393082Y182229D01*
X393113Y182217D01*
X393186Y182177D01*
X393378Y182097D01*
X395647Y179828D01*
X396875Y176864D01*
X396875Y173656D01*
X395647Y170692D01*
X393378Y168423D01*
X390414Y167195D01*
X374126Y167195D01*
X371162Y168423D01*
X368893Y170692D01*
X367665Y173656D01*
X367665Y176864D01*
X368893Y179828D01*
X371162Y182097D01*
X371354Y182177D01*
X371437Y182228D01*
X371523Y182274D01*
X371541Y182292D01*
X371563Y182306D01*
X371625Y182381D01*
X371693Y182452D01*
X371704Y182476D01*
X371720Y182496D01*
X371755Y182587D01*
X371796Y182675D01*
X371799Y182701D01*
X371808Y182725D01*
X371813Y182823D01*
X371823Y182919D01*
X371818Y182945D01*
X371819Y182971D01*
X371792Y183065D01*
X371771Y183160D01*
X371758Y183182D01*
X371750Y183207D01*
X371695Y183287D01*
X371645Y183371D01*
X371625Y183388D01*
X371610Y183409D01*
X371532Y183468D01*
X371458Y183531D01*
X371434Y183541D01*
X371413Y183556D01*
X371320Y183586D01*
X371230Y183623D01*
X371197Y183626D01*
X371179Y183632D01*
X371146Y183632D01*
X371063Y183641D01*
X294679Y183641D01*
X294608Y183630D01*
X294537Y183628D01*
X294488Y183610D01*
X294436Y183602D01*
X294373Y183568D01*
X294306Y183543D01*
X294265Y183511D01*
X294219Y183486D01*
X294170Y183434D01*
X294114Y183390D01*
X294085Y183346D01*
X294050Y183308D01*
X294019Y183243D01*
X293981Y183183D01*
X293968Y183132D01*
X293946Y183085D01*
X293938Y183014D01*
X293921Y182944D01*
X293925Y182892D01*
X293919Y182841D01*
X293934Y182770D01*
X293940Y182699D01*
X293960Y182651D01*
X293971Y182600D01*
X294008Y182539D01*
X294036Y182473D01*
X294081Y182417D01*
X294097Y182389D01*
X294115Y182374D01*
X294141Y182342D01*
X296043Y180440D01*
X297435Y177079D01*
X297435Y173441D01*
X296043Y170080D01*
X293470Y167507D01*
X290109Y166115D01*
X271231Y166115D01*
X267870Y167507D01*
X265297Y170080D01*
X264863Y171128D01*
X264826Y171189D01*
X264796Y171255D01*
X264761Y171293D01*
X264734Y171337D01*
X264679Y171383D01*
X264630Y171436D01*
X264584Y171461D01*
X264544Y171494D01*
X264477Y171520D01*
X264414Y171554D01*
X264363Y171564D01*
X264315Y171582D01*
X264243Y171585D01*
X264172Y171598D01*
X264121Y171590D01*
X264069Y171593D01*
X264000Y171573D01*
X263929Y171562D01*
X263883Y171539D01*
X263833Y171524D01*
X263774Y171483D01*
X263710Y171451D01*
X263673Y171413D01*
X263631Y171384D01*
X263588Y171326D01*
X263538Y171275D01*
X263503Y171212D01*
X263484Y171186D01*
X263477Y171164D01*
X263457Y171128D01*
X263023Y170080D01*
X260450Y167507D01*
X257089Y166115D01*
X238211Y166115D01*
X234850Y167507D01*
X232277Y170080D01*
X230885Y173441D01*
X230885Y177079D01*
X232277Y180440D01*
X234850Y183013D01*
X236696Y183777D01*
X236735Y183802D01*
X236778Y183817D01*
X236839Y183866D01*
X236905Y183907D01*
X236935Y183942D01*
X236970Y183971D01*
X237012Y184036D01*
X237062Y184096D01*
X237079Y184139D01*
X237103Y184178D01*
X237122Y184253D01*
X237150Y184326D01*
X237152Y184372D01*
X237163Y184416D01*
X237157Y184494D01*
X237161Y184572D01*
X237148Y184616D01*
X237144Y184662D01*
X237114Y184733D01*
X237114Y184734D01*
X237106Y184767D01*
X237102Y184774D01*
X237092Y184808D01*
X237066Y184846D01*
X237048Y184888D01*
X236993Y184957D01*
X236980Y184978D01*
X236967Y184990D01*
X236963Y184995D01*
X236952Y185010D01*
X236948Y185013D01*
X236943Y185019D01*
X236758Y185204D01*
X185165Y236797D01*
X185165Y413266D01*
X185154Y413336D01*
X185152Y413408D01*
X185134Y413457D01*
X185126Y413508D01*
X185092Y413572D01*
X185067Y413639D01*
X185035Y413680D01*
X185010Y413726D01*
X184959Y413775D01*
X184914Y413831D01*
X184870Y413859D01*
X184832Y413895D01*
X184767Y413925D01*
X184707Y413964D01*
X184656Y413977D01*
X184609Y413999D01*
X184538Y414007D01*
X184468Y414024D01*
X184416Y414020D01*
X184365Y414026D01*
X184294Y414011D01*
X184223Y414005D01*
X184175Y413985D01*
X184124Y413974D01*
X184063Y413937D01*
X183997Y413909D01*
X183941Y413864D01*
X183913Y413847D01*
X183898Y413830D01*
X183866Y413804D01*
X44031Y273969D01*
X43989Y273911D01*
X43940Y273859D01*
X43918Y273812D01*
X43888Y273770D01*
X43867Y273701D01*
X43836Y273636D01*
X43831Y273584D01*
X43815Y273534D01*
X43817Y273463D01*
X43809Y273392D01*
X43820Y273341D01*
X43822Y273289D01*
X43846Y273221D01*
X43861Y273151D01*
X43888Y273107D01*
X43906Y273058D01*
X43951Y273002D01*
X43988Y272940D01*
X44027Y272906D01*
X44060Y272866D01*
X44120Y272827D01*
X44175Y272780D01*
X44223Y272761D01*
X44267Y272733D01*
X44336Y272715D01*
X44403Y272688D01*
X44474Y272680D01*
X44505Y272672D01*
X44529Y272674D01*
X44569Y272670D01*
X48257Y272670D01*
X49150Y271777D01*
X49150Y254003D01*
X48257Y253110D01*
X30483Y253110D01*
X29590Y254003D01*
X29590Y271777D01*
X30483Y272670D01*
X36576Y272670D01*
X36596Y272673D01*
X36615Y272671D01*
X36717Y272693D01*
X36819Y272709D01*
X36836Y272719D01*
X36856Y272723D01*
X36945Y272776D01*
X37036Y272825D01*
X37050Y272839D01*
X37067Y272849D01*
X37134Y272928D01*
X37206Y273003D01*
X37214Y273021D01*
X37227Y273036D01*
X37266Y273132D01*
X37309Y273226D01*
X37311Y273246D01*
X37319Y273264D01*
X37337Y273431D01*
X37337Y273743D01*
X40670Y277076D01*
X40723Y277150D01*
X40783Y277220D01*
X40795Y277250D01*
X40814Y277276D01*
X40841Y277363D01*
X40875Y277448D01*
X40879Y277489D01*
X40886Y277511D01*
X40885Y277543D01*
X40893Y277614D01*
X40893Y286767D01*
X50046Y286767D01*
X50136Y286782D01*
X50227Y286789D01*
X50256Y286801D01*
X50288Y286807D01*
X50369Y286849D01*
X50453Y286885D01*
X50485Y286911D01*
X50506Y286922D01*
X50528Y286945D01*
X50584Y286990D01*
X181894Y418300D01*
X181947Y418374D01*
X182007Y418444D01*
X182019Y418474D01*
X182038Y418500D01*
X182065Y418587D01*
X182099Y418672D01*
X182103Y418713D01*
X182110Y418735D01*
X182109Y418767D01*
X182117Y418839D01*
X182117Y581591D01*
X197173Y596647D01*
X210312Y596647D01*
X210332Y596650D01*
X210351Y596648D01*
X210453Y596670D01*
X210555Y596686D01*
X210572Y596696D01*
X210592Y596700D01*
X210681Y596753D01*
X210772Y596802D01*
X210786Y596816D01*
X210803Y596826D01*
X210870Y596905D01*
X210942Y596980D01*
X210950Y596998D01*
X210963Y597013D01*
X211002Y597109D01*
X211045Y597203D01*
X211047Y597223D01*
X211055Y597241D01*
X211073Y597408D01*
X211073Y629673D01*
X211059Y629764D01*
X211051Y629854D01*
X211039Y629884D01*
X211034Y629916D01*
X210991Y629997D01*
X210955Y630081D01*
X210929Y630113D01*
X210918Y630134D01*
X210895Y630156D01*
X210850Y630212D01*
X142332Y698730D01*
X142258Y698783D01*
X142188Y698843D01*
X142158Y698855D01*
X142132Y698874D01*
X142045Y698901D01*
X141960Y698935D01*
X141919Y698939D01*
X141897Y698946D01*
X141865Y698945D01*
X141793Y698953D01*
X137851Y698953D01*
X134210Y700461D01*
X131423Y703248D01*
X131152Y703903D01*
X131130Y703939D01*
X131116Y703978D01*
X131066Y704042D01*
X131023Y704112D01*
X130990Y704139D01*
X130965Y704172D01*
X130896Y704217D01*
X130833Y704269D01*
X130794Y704284D01*
X130759Y704307D01*
X130680Y704328D01*
X130604Y704357D01*
X130562Y704359D01*
X130521Y704369D01*
X130440Y704364D01*
X130358Y704367D01*
X130318Y704356D01*
X130276Y704353D01*
X130200Y704322D01*
X130122Y704299D01*
X130087Y704275D01*
X130048Y704259D01*
X129987Y704205D01*
X129920Y704159D01*
X129895Y704125D01*
X129863Y704097D01*
X129778Y703968D01*
X129773Y703961D01*
X129772Y703959D01*
X129771Y703957D01*
X129352Y703135D01*
X128341Y701744D01*
X127126Y700529D01*
X125735Y699518D01*
X124203Y698738D01*
X122568Y698206D01*
X121533Y698042D01*
X121533Y708098D01*
X121530Y708118D01*
X121532Y708137D01*
X121510Y708239D01*
X121493Y708341D01*
X121484Y708358D01*
X121480Y708378D01*
X121427Y708467D01*
X121378Y708558D01*
X121364Y708572D01*
X121354Y708589D01*
X121275Y708656D01*
X121200Y708727D01*
X121182Y708736D01*
X121167Y708749D01*
X121071Y708787D01*
X120977Y708831D01*
X120957Y708833D01*
X120939Y708841D01*
X120772Y708859D01*
X120009Y708859D01*
X120009Y708861D01*
X120772Y708861D01*
X120792Y708864D01*
X120811Y708862D01*
X120913Y708884D01*
X121015Y708901D01*
X121032Y708910D01*
X121052Y708914D01*
X121141Y708967D01*
X121232Y709016D01*
X121246Y709030D01*
X121263Y709040D01*
X121330Y709119D01*
X121401Y709194D01*
X121410Y709212D01*
X121423Y709227D01*
X121462Y709323D01*
X121505Y709417D01*
X121507Y709437D01*
X121515Y709455D01*
X121533Y709622D01*
X121533Y719678D01*
X122568Y719514D01*
X124203Y718982D01*
X125735Y718202D01*
X127126Y717191D01*
X128341Y715976D01*
X129352Y714585D01*
X129771Y713763D01*
X129796Y713729D01*
X129813Y713691D01*
X129868Y713630D01*
X129916Y713565D01*
X129951Y713540D01*
X129979Y713510D01*
X130051Y713470D01*
X130118Y713423D01*
X130158Y713411D01*
X130195Y713391D01*
X130275Y713376D01*
X130353Y713353D01*
X130395Y713355D01*
X130437Y713347D01*
X130518Y713359D01*
X130599Y713362D01*
X130638Y713377D01*
X130680Y713383D01*
X130753Y713420D01*
X130829Y713449D01*
X130862Y713476D01*
X130899Y713495D01*
X130957Y713553D01*
X131020Y713605D01*
X131042Y713640D01*
X131071Y713670D01*
X131146Y713806D01*
X131151Y713813D01*
X131151Y713815D01*
X131152Y713817D01*
X131423Y714472D01*
X134210Y717259D01*
X137851Y718767D01*
X141793Y718767D01*
X142907Y718305D01*
X143021Y718278D01*
X143134Y718250D01*
X143140Y718250D01*
X143146Y718249D01*
X143263Y718260D01*
X143379Y718269D01*
X143385Y718272D01*
X143391Y718272D01*
X143499Y718320D01*
X143605Y718365D01*
X143611Y718370D01*
X143616Y718372D01*
X143630Y718385D01*
X143736Y718470D01*
X188252Y762986D01*
X188320Y763080D01*
X188390Y763175D01*
X188392Y763181D01*
X188396Y763186D01*
X188430Y763297D01*
X188467Y763409D01*
X188467Y763415D01*
X188468Y763421D01*
X188465Y763538D01*
X188464Y763655D01*
X188462Y763662D01*
X188462Y763667D01*
X188456Y763685D01*
X188417Y763816D01*
X187324Y766455D01*
X187324Y770245D01*
X188774Y773746D01*
X191454Y776426D01*
X194955Y777876D01*
X198745Y777876D01*
X202246Y776426D01*
X204926Y773746D01*
X206376Y770245D01*
X206376Y766455D01*
X204926Y762954D01*
X202246Y760274D01*
X198745Y758824D01*
X194955Y758824D01*
X192316Y759917D01*
X192202Y759944D01*
X192089Y759973D01*
X192083Y759972D01*
X192076Y759974D01*
X191960Y759963D01*
X191844Y759954D01*
X191838Y759951D01*
X191832Y759951D01*
X191724Y759903D01*
X191617Y759857D01*
X191611Y759853D01*
X191607Y759851D01*
X191593Y759838D01*
X191486Y759752D01*
X147751Y716017D01*
X147740Y716001D01*
X147724Y715989D01*
X147668Y715901D01*
X147608Y715818D01*
X147602Y715799D01*
X147591Y715782D01*
X147566Y715681D01*
X147535Y715583D01*
X147536Y715563D01*
X147531Y715543D01*
X147539Y715440D01*
X147542Y715337D01*
X147549Y715318D01*
X147550Y715298D01*
X147591Y715203D01*
X147626Y715106D01*
X147639Y715090D01*
X147647Y715072D01*
X147751Y714941D01*
X148221Y714472D01*
X149729Y710831D01*
X149729Y706889D01*
X148221Y703248D01*
X146789Y701817D01*
X146778Y701801D01*
X146762Y701788D01*
X146706Y701701D01*
X146646Y701617D01*
X146640Y701598D01*
X146629Y701582D01*
X146604Y701481D01*
X146573Y701382D01*
X146574Y701362D01*
X146569Y701343D01*
X146577Y701240D01*
X146580Y701136D01*
X146587Y701118D01*
X146588Y701098D01*
X146629Y701003D01*
X146664Y700905D01*
X146677Y700890D01*
X146685Y700872D01*
X146789Y700741D01*
X183612Y663918D01*
X183670Y663876D01*
X183722Y663827D01*
X183769Y663805D01*
X183811Y663775D01*
X183880Y663754D01*
X183945Y663723D01*
X183997Y663718D01*
X184047Y663702D01*
X184118Y663704D01*
X184189Y663696D01*
X184240Y663707D01*
X184292Y663709D01*
X184360Y663733D01*
X184430Y663748D01*
X184474Y663775D01*
X184523Y663793D01*
X184579Y663838D01*
X184641Y663875D01*
X184675Y663914D01*
X184715Y663947D01*
X184754Y664007D01*
X184801Y664062D01*
X184820Y664110D01*
X184848Y664154D01*
X184866Y664223D01*
X184893Y664290D01*
X184901Y664361D01*
X184909Y664392D01*
X184907Y664416D01*
X184911Y664456D01*
X184911Y667577D01*
X189673Y672339D01*
X196407Y672339D01*
X201169Y667577D01*
X201169Y660843D01*
X196407Y656081D01*
X193286Y656081D01*
X193216Y656070D01*
X193144Y656068D01*
X193095Y656050D01*
X193044Y656042D01*
X192980Y656008D01*
X192913Y655983D01*
X192872Y655951D01*
X192826Y655926D01*
X192777Y655874D01*
X192721Y655830D01*
X192693Y655786D01*
X192657Y655748D01*
X192627Y655683D01*
X192588Y655623D01*
X192575Y655572D01*
X192553Y655525D01*
X192545Y655454D01*
X192528Y655384D01*
X192532Y655332D01*
X192526Y655281D01*
X192541Y655210D01*
X192547Y655139D01*
X192567Y655091D01*
X192578Y655040D01*
X192615Y654979D01*
X192643Y654913D01*
X192688Y654857D01*
X192705Y654829D01*
X192722Y654814D01*
X192748Y654782D01*
X215647Y631883D01*
X215647Y557523D01*
X215661Y557433D01*
X215669Y557342D01*
X215681Y557312D01*
X215686Y557280D01*
X215729Y557199D01*
X215765Y557115D01*
X215791Y557083D01*
X215802Y557062D01*
X215825Y557040D01*
X215846Y557013D01*
X215849Y557009D01*
X215852Y557006D01*
X215870Y556984D01*
X216251Y556603D01*
X216309Y556561D01*
X216361Y556512D01*
X216408Y556490D01*
X216450Y556460D01*
X216519Y556439D01*
X216584Y556408D01*
X216636Y556403D01*
X216686Y556387D01*
X216757Y556389D01*
X216828Y556381D01*
X216879Y556392D01*
X216931Y556394D01*
X216999Y556418D01*
X217069Y556433D01*
X217114Y556460D01*
X217162Y556478D01*
X217218Y556523D01*
X217280Y556560D01*
X217314Y556599D01*
X217354Y556632D01*
X217393Y556692D01*
X217440Y556747D01*
X217459Y556795D01*
X217487Y556839D01*
X217505Y556908D01*
X217532Y556975D01*
X217540Y557046D01*
X217548Y557077D01*
X217546Y557101D01*
X217550Y557141D01*
X217550Y559475D01*
X219039Y563070D01*
X221790Y565821D01*
X225385Y567310D01*
X227719Y567310D01*
X227789Y567321D01*
X227861Y567323D01*
X227910Y567341D01*
X227961Y567349D01*
X228025Y567383D01*
X228092Y567408D01*
X228133Y567440D01*
X228179Y567465D01*
X228228Y567517D01*
X228284Y567561D01*
X228312Y567605D01*
X228348Y567643D01*
X228378Y567708D01*
X228417Y567768D01*
X228430Y567819D01*
X228452Y567866D01*
X228460Y567937D01*
X228477Y568007D01*
X228473Y568059D01*
X228479Y568110D01*
X228464Y568181D01*
X228458Y568252D01*
X228438Y568300D01*
X228427Y568351D01*
X228390Y568412D01*
X228362Y568478D01*
X228317Y568534D01*
X228300Y568562D01*
X228283Y568577D01*
X228257Y568609D01*
X226313Y570553D01*
X226313Y572389D01*
X226310Y572409D01*
X226312Y572428D01*
X226290Y572530D01*
X226274Y572632D01*
X226264Y572649D01*
X226260Y572669D01*
X226207Y572758D01*
X226158Y572849D01*
X226144Y572863D01*
X226134Y572880D01*
X226055Y572947D01*
X225980Y573019D01*
X225962Y573027D01*
X225947Y573040D01*
X225851Y573079D01*
X225757Y573122D01*
X225737Y573124D01*
X225719Y573132D01*
X225552Y573150D01*
X225385Y573150D01*
X221790Y574639D01*
X219039Y577390D01*
X217550Y580985D01*
X217550Y584875D01*
X219039Y588470D01*
X221790Y591221D01*
X225385Y592710D01*
X229275Y592710D01*
X232870Y591221D01*
X235621Y588470D01*
X237110Y584875D01*
X237110Y580985D01*
X235621Y577390D01*
X232870Y574639D01*
X231357Y574012D01*
X231257Y573951D01*
X231157Y573891D01*
X231153Y573886D01*
X231148Y573883D01*
X231073Y573793D01*
X230997Y573704D01*
X230995Y573698D01*
X230991Y573693D01*
X230949Y573585D01*
X230905Y573476D01*
X230904Y573468D01*
X230903Y573464D01*
X230902Y573445D01*
X230887Y573309D01*
X230887Y572763D01*
X230901Y572672D01*
X230909Y572582D01*
X230921Y572552D01*
X230926Y572520D01*
X230969Y572439D01*
X231005Y572355D01*
X231031Y572323D01*
X231042Y572302D01*
X231065Y572280D01*
X231110Y572224D01*
X244603Y558731D01*
X244603Y419677D01*
X239230Y414304D01*
X239188Y414246D01*
X239139Y414194D01*
X239117Y414147D01*
X239087Y414105D01*
X239066Y414036D01*
X239035Y413971D01*
X239030Y413919D01*
X239014Y413869D01*
X239016Y413798D01*
X239008Y413727D01*
X239019Y413676D01*
X239021Y413624D01*
X239045Y413556D01*
X239060Y413486D01*
X239087Y413441D01*
X239105Y413393D01*
X239150Y413337D01*
X239187Y413275D01*
X239226Y413241D01*
X239259Y413201D01*
X239319Y413162D01*
X239374Y413115D01*
X239422Y413096D01*
X239466Y413068D01*
X239535Y413050D01*
X239602Y413023D01*
X239673Y413015D01*
X239704Y413007D01*
X239728Y413009D01*
X239768Y413005D01*
X257089Y413005D01*
X260450Y411613D01*
X263023Y409040D01*
X263457Y407992D01*
X263494Y407931D01*
X263524Y407865D01*
X263559Y407827D01*
X263586Y407783D01*
X263641Y407737D01*
X263690Y407684D01*
X263736Y407659D01*
X263776Y407626D01*
X263843Y407600D01*
X263906Y407566D01*
X263957Y407556D01*
X264005Y407538D01*
X264077Y407535D01*
X264148Y407522D01*
X264199Y407530D01*
X264251Y407527D01*
X264320Y407547D01*
X264391Y407558D01*
X264437Y407581D01*
X264487Y407596D01*
X264546Y407637D01*
X264610Y407669D01*
X264647Y407707D01*
X264689Y407736D01*
X264732Y407794D01*
X264782Y407845D01*
X264817Y407908D01*
X264836Y407934D01*
X264843Y407956D01*
X264863Y407992D01*
X265297Y409040D01*
X267870Y411613D01*
X271231Y413005D01*
X290109Y413005D01*
X293470Y411613D01*
X296043Y409040D01*
X297435Y405679D01*
X297435Y402041D01*
X296043Y398680D01*
X293470Y396107D01*
X290109Y394715D01*
X271231Y394715D01*
X267870Y396107D01*
X265297Y398680D01*
X264863Y399728D01*
X264826Y399789D01*
X264796Y399855D01*
X264761Y399893D01*
X264734Y399937D01*
X264678Y399983D01*
X264630Y400036D01*
X264584Y400061D01*
X264544Y400094D01*
X264477Y400120D01*
X264414Y400154D01*
X264363Y400164D01*
X264315Y400182D01*
X264243Y400185D01*
X264172Y400198D01*
X264121Y400190D01*
X264069Y400193D01*
X264000Y400173D01*
X263929Y400162D01*
X263883Y400139D01*
X263833Y400124D01*
X263774Y400083D01*
X263710Y400051D01*
X263673Y400013D01*
X263631Y399984D01*
X263588Y399926D01*
X263538Y399875D01*
X263503Y399812D01*
X263484Y399786D01*
X263477Y399764D01*
X263457Y399728D01*
X263023Y398680D01*
X260450Y396107D01*
X257089Y394715D01*
X238211Y394715D01*
X234850Y396107D01*
X233710Y397247D01*
X233652Y397289D01*
X233600Y397338D01*
X233553Y397360D01*
X233511Y397391D01*
X233442Y397412D01*
X233377Y397442D01*
X233325Y397448D01*
X233275Y397463D01*
X233204Y397461D01*
X233133Y397469D01*
X233082Y397458D01*
X233030Y397457D01*
X232962Y397432D01*
X232892Y397417D01*
X232847Y397390D01*
X232799Y397372D01*
X232743Y397327D01*
X232681Y397291D01*
X232647Y397251D01*
X232607Y397219D01*
X232568Y397158D01*
X232521Y397104D01*
X232502Y397055D01*
X232474Y397012D01*
X232456Y396942D01*
X232429Y396876D01*
X232421Y396804D01*
X232413Y396773D01*
X232415Y396750D01*
X232411Y396709D01*
X232411Y385611D01*
X232422Y385540D01*
X232424Y385469D01*
X232442Y385420D01*
X232450Y385368D01*
X232484Y385305D01*
X232509Y385238D01*
X232541Y385197D01*
X232566Y385151D01*
X232618Y385102D01*
X232662Y385046D01*
X232706Y385017D01*
X232744Y384982D01*
X232809Y384951D01*
X232869Y384913D01*
X232920Y384900D01*
X232967Y384878D01*
X233038Y384870D01*
X233108Y384853D01*
X233160Y384857D01*
X233211Y384851D01*
X233282Y384866D01*
X233353Y384872D01*
X233401Y384892D01*
X233452Y384903D01*
X233513Y384940D01*
X233579Y384968D01*
X233635Y385013D01*
X233663Y385029D01*
X233678Y385047D01*
X233710Y385073D01*
X234850Y386213D01*
X238211Y387605D01*
X257089Y387605D01*
X260450Y386213D01*
X263023Y383640D01*
X263457Y382592D01*
X263494Y382531D01*
X263524Y382465D01*
X263559Y382427D01*
X263586Y382383D01*
X263641Y382337D01*
X263690Y382284D01*
X263736Y382259D01*
X263776Y382226D01*
X263843Y382200D01*
X263906Y382166D01*
X263957Y382156D01*
X264005Y382138D01*
X264077Y382135D01*
X264148Y382122D01*
X264199Y382130D01*
X264251Y382127D01*
X264320Y382147D01*
X264391Y382158D01*
X264437Y382181D01*
X264487Y382196D01*
X264546Y382237D01*
X264610Y382269D01*
X264647Y382307D01*
X264689Y382336D01*
X264732Y382394D01*
X264782Y382445D01*
X264817Y382508D01*
X264836Y382534D01*
X264843Y382556D01*
X264863Y382592D01*
X265297Y383640D01*
X267870Y386213D01*
X271231Y387605D01*
X290109Y387605D01*
X293470Y386213D01*
X296043Y383640D01*
X297435Y380279D01*
X297435Y376641D01*
X296043Y373280D01*
X293470Y370707D01*
X290109Y369315D01*
X271231Y369315D01*
X267870Y370707D01*
X265297Y373280D01*
X264863Y374328D01*
X264826Y374389D01*
X264796Y374455D01*
X264761Y374493D01*
X264734Y374537D01*
X264678Y374583D01*
X264630Y374636D01*
X264584Y374661D01*
X264544Y374694D01*
X264477Y374720D01*
X264414Y374754D01*
X264363Y374764D01*
X264315Y374782D01*
X264243Y374785D01*
X264172Y374798D01*
X264121Y374790D01*
X264069Y374793D01*
X264000Y374773D01*
X263929Y374762D01*
X263883Y374739D01*
X263833Y374724D01*
X263774Y374683D01*
X263710Y374651D01*
X263673Y374613D01*
X263631Y374584D01*
X263588Y374526D01*
X263538Y374475D01*
X263503Y374412D01*
X263484Y374386D01*
X263477Y374364D01*
X263457Y374328D01*
X263023Y373280D01*
X260450Y370707D01*
X257089Y369315D01*
X238211Y369315D01*
X234850Y370707D01*
X233710Y371847D01*
X233652Y371889D01*
X233600Y371938D01*
X233553Y371960D01*
X233511Y371991D01*
X233442Y372012D01*
X233377Y372042D01*
X233325Y372048D01*
X233275Y372063D01*
X233204Y372061D01*
X233133Y372069D01*
X233082Y372058D01*
X233030Y372057D01*
X232962Y372032D01*
X232892Y372017D01*
X232847Y371990D01*
X232799Y371972D01*
X232743Y371927D01*
X232681Y371891D01*
X232647Y371851D01*
X232607Y371819D01*
X232568Y371758D01*
X232521Y371704D01*
X232502Y371655D01*
X232474Y371612D01*
X232456Y371542D01*
X232429Y371476D01*
X232421Y371404D01*
X232413Y371373D01*
X232415Y371350D01*
X232411Y371309D01*
X232411Y360211D01*
X232422Y360140D01*
X232424Y360069D01*
X232442Y360020D01*
X232450Y359968D01*
X232484Y359905D01*
X232509Y359838D01*
X232541Y359797D01*
X232566Y359751D01*
X232618Y359702D01*
X232662Y359646D01*
X232706Y359617D01*
X232744Y359582D01*
X232809Y359551D01*
X232869Y359513D01*
X232920Y359500D01*
X232967Y359478D01*
X233038Y359470D01*
X233108Y359453D01*
X233160Y359457D01*
X233211Y359451D01*
X233282Y359466D01*
X233353Y359472D01*
X233401Y359492D01*
X233452Y359503D01*
X233513Y359540D01*
X233579Y359568D01*
X233635Y359613D01*
X233663Y359629D01*
X233678Y359647D01*
X233710Y359673D01*
X234850Y360813D01*
X238211Y362205D01*
X257089Y362205D01*
X260450Y360813D01*
X263023Y358240D01*
X263457Y357192D01*
X263494Y357131D01*
X263524Y357065D01*
X263559Y357027D01*
X263586Y356983D01*
X263641Y356937D01*
X263690Y356884D01*
X263736Y356859D01*
X263776Y356826D01*
X263843Y356800D01*
X263906Y356766D01*
X263957Y356756D01*
X264005Y356738D01*
X264077Y356735D01*
X264148Y356722D01*
X264199Y356730D01*
X264251Y356727D01*
X264320Y356747D01*
X264391Y356758D01*
X264437Y356781D01*
X264487Y356796D01*
X264546Y356837D01*
X264610Y356869D01*
X264647Y356907D01*
X264689Y356936D01*
X264732Y356994D01*
X264782Y357045D01*
X264817Y357108D01*
X264836Y357134D01*
X264843Y357156D01*
X264863Y357192D01*
X265297Y358240D01*
X267870Y360813D01*
X271231Y362205D01*
X290109Y362205D01*
X293470Y360813D01*
X296043Y358240D01*
X297435Y354879D01*
X297435Y351241D01*
X296043Y347880D01*
X293470Y345307D01*
X290109Y343915D01*
X271231Y343915D01*
X267870Y345307D01*
X265297Y347880D01*
X264863Y348928D01*
X264826Y348989D01*
X264796Y349055D01*
X264761Y349093D01*
X264734Y349137D01*
X264678Y349183D01*
X264630Y349236D01*
X264584Y349261D01*
X264544Y349294D01*
X264477Y349320D01*
X264414Y349354D01*
X264363Y349364D01*
X264315Y349382D01*
X264243Y349385D01*
X264172Y349398D01*
X264121Y349390D01*
X264069Y349393D01*
X264000Y349373D01*
X263929Y349362D01*
X263883Y349339D01*
X263833Y349324D01*
X263774Y349283D01*
X263710Y349251D01*
X263673Y349213D01*
X263631Y349184D01*
X263588Y349126D01*
X263538Y349075D01*
X263503Y349012D01*
X263484Y348986D01*
X263477Y348964D01*
X263457Y348928D01*
X263023Y347880D01*
X260450Y345307D01*
X257089Y343915D01*
X238211Y343915D01*
X234850Y345307D01*
X233710Y346447D01*
X233652Y346489D01*
X233600Y346538D01*
X233553Y346560D01*
X233511Y346591D01*
X233442Y346612D01*
X233377Y346642D01*
X233325Y346648D01*
X233275Y346663D01*
X233204Y346661D01*
X233133Y346669D01*
X233082Y346658D01*
X233030Y346657D01*
X232962Y346632D01*
X232892Y346617D01*
X232847Y346590D01*
X232799Y346572D01*
X232743Y346527D01*
X232681Y346491D01*
X232647Y346451D01*
X232607Y346419D01*
X232568Y346358D01*
X232521Y346304D01*
X232502Y346255D01*
X232474Y346212D01*
X232456Y346142D01*
X232429Y346076D01*
X232421Y346004D01*
X232413Y345973D01*
X232415Y345950D01*
X232411Y345909D01*
X232411Y334811D01*
X232422Y334740D01*
X232424Y334669D01*
X232442Y334620D01*
X232450Y334568D01*
X232484Y334505D01*
X232509Y334438D01*
X232541Y334397D01*
X232566Y334351D01*
X232618Y334302D01*
X232662Y334246D01*
X232706Y334217D01*
X232744Y334182D01*
X232809Y334151D01*
X232869Y334113D01*
X232920Y334100D01*
X232967Y334078D01*
X233038Y334070D01*
X233108Y334053D01*
X233160Y334057D01*
X233211Y334051D01*
X233282Y334066D01*
X233353Y334072D01*
X233401Y334092D01*
X233452Y334103D01*
X233513Y334140D01*
X233579Y334168D01*
X233635Y334213D01*
X233663Y334229D01*
X233678Y334247D01*
X233710Y334273D01*
X234850Y335413D01*
X238211Y336805D01*
X257089Y336805D01*
X260450Y335413D01*
X263023Y332840D01*
X263457Y331792D01*
X263494Y331731D01*
X263524Y331665D01*
X263559Y331627D01*
X263586Y331583D01*
X263641Y331537D01*
X263690Y331484D01*
X263736Y331459D01*
X263776Y331426D01*
X263843Y331400D01*
X263906Y331366D01*
X263957Y331356D01*
X264005Y331338D01*
X264077Y331335D01*
X264148Y331322D01*
X264199Y331330D01*
X264251Y331327D01*
X264320Y331347D01*
X264391Y331358D01*
X264437Y331381D01*
X264487Y331396D01*
X264546Y331437D01*
X264610Y331469D01*
X264647Y331507D01*
X264689Y331536D01*
X264732Y331594D01*
X264782Y331645D01*
X264817Y331708D01*
X264836Y331734D01*
X264843Y331756D01*
X264863Y331792D01*
X265297Y332840D01*
X267870Y335413D01*
X271231Y336805D01*
X290109Y336805D01*
X293470Y335413D01*
X296043Y332840D01*
X297435Y329479D01*
X297435Y325841D01*
X296043Y322480D01*
X293470Y319907D01*
X290109Y318515D01*
X271231Y318515D01*
X267870Y319907D01*
X265297Y322480D01*
X264863Y323528D01*
X264826Y323589D01*
X264796Y323655D01*
X264761Y323693D01*
X264734Y323737D01*
X264678Y323783D01*
X264630Y323836D01*
X264584Y323861D01*
X264544Y323894D01*
X264477Y323920D01*
X264414Y323954D01*
X264363Y323964D01*
X264315Y323982D01*
X264243Y323985D01*
X264172Y323998D01*
X264121Y323990D01*
X264069Y323993D01*
X264000Y323973D01*
X263929Y323962D01*
X263883Y323939D01*
X263833Y323924D01*
X263774Y323883D01*
X263710Y323851D01*
X263673Y323813D01*
X263631Y323784D01*
X263588Y323726D01*
X263538Y323675D01*
X263503Y323612D01*
X263484Y323586D01*
X263477Y323564D01*
X263457Y323528D01*
X263023Y322480D01*
X260450Y319907D01*
X257089Y318515D01*
X238211Y318515D01*
X234850Y319907D01*
X233710Y321047D01*
X233652Y321089D01*
X233600Y321138D01*
X233553Y321160D01*
X233511Y321191D01*
X233442Y321212D01*
X233377Y321242D01*
X233325Y321248D01*
X233275Y321263D01*
X233204Y321261D01*
X233133Y321269D01*
X233082Y321258D01*
X233030Y321257D01*
X232962Y321232D01*
X232892Y321217D01*
X232847Y321190D01*
X232799Y321172D01*
X232743Y321127D01*
X232681Y321091D01*
X232647Y321051D01*
X232607Y321019D01*
X232568Y320958D01*
X232521Y320904D01*
X232502Y320855D01*
X232474Y320812D01*
X232456Y320742D01*
X232429Y320676D01*
X232421Y320604D01*
X232413Y320573D01*
X232415Y320550D01*
X232411Y320509D01*
X232411Y309411D01*
X232422Y309340D01*
X232424Y309269D01*
X232442Y309220D01*
X232450Y309168D01*
X232484Y309105D01*
X232509Y309038D01*
X232541Y308997D01*
X232566Y308951D01*
X232618Y308902D01*
X232662Y308846D01*
X232706Y308817D01*
X232744Y308782D01*
X232809Y308751D01*
X232869Y308713D01*
X232920Y308700D01*
X232967Y308678D01*
X233038Y308670D01*
X233108Y308653D01*
X233160Y308657D01*
X233211Y308651D01*
X233282Y308666D01*
X233353Y308672D01*
X233401Y308692D01*
X233452Y308703D01*
X233513Y308740D01*
X233579Y308768D01*
X233635Y308813D01*
X233663Y308829D01*
X233678Y308847D01*
X233710Y308873D01*
X234850Y310013D01*
X238211Y311405D01*
X257089Y311405D01*
X260450Y310013D01*
X263023Y307440D01*
X263457Y306392D01*
X263494Y306331D01*
X263524Y306265D01*
X263559Y306227D01*
X263586Y306183D01*
X263641Y306137D01*
X263690Y306084D01*
X263736Y306059D01*
X263776Y306026D01*
X263843Y306000D01*
X263906Y305966D01*
X263957Y305956D01*
X264005Y305938D01*
X264077Y305935D01*
X264148Y305922D01*
X264199Y305930D01*
X264251Y305927D01*
X264320Y305947D01*
X264391Y305958D01*
X264437Y305981D01*
X264487Y305996D01*
X264546Y306037D01*
X264610Y306069D01*
X264647Y306107D01*
X264689Y306136D01*
X264732Y306194D01*
X264782Y306245D01*
X264817Y306308D01*
X264836Y306334D01*
X264843Y306356D01*
X264863Y306392D01*
X265297Y307440D01*
X267870Y310013D01*
X271231Y311405D01*
X290109Y311405D01*
X293470Y310013D01*
X296043Y307440D01*
X297435Y304079D01*
X297435Y300441D01*
X296043Y297080D01*
X293470Y294507D01*
X290109Y293115D01*
X271231Y293115D01*
X267870Y294507D01*
X265297Y297080D01*
X264863Y298128D01*
X264826Y298189D01*
X264796Y298255D01*
X264761Y298293D01*
X264734Y298337D01*
X264678Y298383D01*
X264630Y298436D01*
X264584Y298461D01*
X264544Y298494D01*
X264477Y298520D01*
X264414Y298554D01*
X264363Y298564D01*
X264315Y298582D01*
X264243Y298585D01*
X264172Y298598D01*
X264121Y298590D01*
X264069Y298593D01*
X264000Y298573D01*
X263929Y298562D01*
X263883Y298539D01*
X263833Y298524D01*
X263774Y298483D01*
X263710Y298451D01*
X263673Y298413D01*
X263631Y298384D01*
X263588Y298326D01*
X263538Y298275D01*
X263503Y298212D01*
X263484Y298186D01*
X263477Y298164D01*
X263457Y298128D01*
X263023Y297080D01*
X260450Y294507D01*
X257089Y293115D01*
X238211Y293115D01*
X234850Y294507D01*
X233710Y295647D01*
X233652Y295689D01*
X233600Y295738D01*
X233553Y295760D01*
X233511Y295791D01*
X233442Y295812D01*
X233377Y295842D01*
X233325Y295848D01*
X233275Y295863D01*
X233204Y295861D01*
X233133Y295869D01*
X233082Y295858D01*
X233030Y295857D01*
X232962Y295832D01*
X232892Y295817D01*
X232847Y295790D01*
X232799Y295772D01*
X232743Y295727D01*
X232681Y295691D01*
X232647Y295651D01*
X232607Y295619D01*
X232568Y295558D01*
X232521Y295504D01*
X232502Y295455D01*
X232474Y295412D01*
X232456Y295342D01*
X232429Y295276D01*
X232421Y295204D01*
X232413Y295173D01*
X232415Y295150D01*
X232411Y295109D01*
X232411Y284011D01*
X232422Y283940D01*
X232424Y283869D01*
X232442Y283820D01*
X232450Y283768D01*
X232484Y283705D01*
X232509Y283638D01*
X232541Y283597D01*
X232566Y283551D01*
X232618Y283502D01*
X232662Y283446D01*
X232706Y283417D01*
X232744Y283382D01*
X232809Y283351D01*
X232869Y283313D01*
X232920Y283300D01*
X232967Y283278D01*
X233038Y283270D01*
X233108Y283253D01*
X233160Y283257D01*
X233211Y283251D01*
X233282Y283266D01*
X233353Y283272D01*
X233401Y283292D01*
X233452Y283303D01*
X233513Y283340D01*
X233579Y283368D01*
X233635Y283413D01*
X233663Y283429D01*
X233678Y283447D01*
X233710Y283473D01*
X234850Y284613D01*
X238211Y286005D01*
X257089Y286005D01*
X260450Y284613D01*
X263023Y282040D01*
X263457Y280992D01*
X263494Y280931D01*
X263524Y280865D01*
X263559Y280827D01*
X263586Y280783D01*
X263641Y280737D01*
X263690Y280684D01*
X263736Y280659D01*
X263776Y280626D01*
X263843Y280600D01*
X263906Y280566D01*
X263957Y280556D01*
X264005Y280538D01*
X264077Y280535D01*
X264148Y280522D01*
X264199Y280530D01*
X264251Y280527D01*
X264320Y280547D01*
X264391Y280558D01*
X264437Y280581D01*
X264487Y280596D01*
X264546Y280637D01*
X264610Y280669D01*
X264647Y280707D01*
X264689Y280736D01*
X264732Y280794D01*
X264782Y280845D01*
X264817Y280908D01*
X264836Y280934D01*
X264843Y280956D01*
X264863Y280992D01*
X265297Y282040D01*
X267870Y284613D01*
X271231Y286005D01*
X290109Y286005D01*
X293470Y284613D01*
X296043Y282040D01*
X297435Y278679D01*
X297435Y275041D01*
X296043Y271680D01*
X293470Y269107D01*
X290109Y267715D01*
X271231Y267715D01*
X267870Y269107D01*
X265297Y271680D01*
X264863Y272728D01*
X264826Y272789D01*
X264796Y272855D01*
X264761Y272893D01*
X264734Y272937D01*
X264678Y272983D01*
X264630Y273036D01*
X264584Y273061D01*
X264544Y273094D01*
X264477Y273120D01*
X264414Y273154D01*
X264363Y273164D01*
X264315Y273182D01*
X264243Y273185D01*
X264172Y273198D01*
X264121Y273190D01*
X264069Y273193D01*
X264000Y273173D01*
X263929Y273162D01*
X263883Y273139D01*
X263833Y273124D01*
X263774Y273083D01*
X263710Y273051D01*
X263673Y273013D01*
X263631Y272984D01*
X263588Y272926D01*
X263538Y272875D01*
X263503Y272812D01*
X263484Y272786D01*
X263477Y272764D01*
X263457Y272728D01*
X263023Y271680D01*
X260450Y269107D01*
X257089Y267715D01*
X238211Y267715D01*
X234850Y269107D01*
X233710Y270247D01*
X233652Y270289D01*
X233600Y270338D01*
X233553Y270360D01*
X233511Y270391D01*
X233442Y270412D01*
X233377Y270442D01*
X233325Y270448D01*
X233275Y270463D01*
X233204Y270461D01*
X233133Y270469D01*
X233082Y270458D01*
X233030Y270457D01*
X232962Y270432D01*
X232892Y270417D01*
X232847Y270390D01*
X232799Y270372D01*
X232743Y270327D01*
X232681Y270291D01*
X232647Y270251D01*
X232607Y270219D01*
X232568Y270158D01*
X232521Y270104D01*
X232502Y270055D01*
X232474Y270012D01*
X232456Y269942D01*
X232429Y269876D01*
X232421Y269804D01*
X232413Y269773D01*
X232415Y269750D01*
X232411Y269709D01*
X232411Y258611D01*
X232422Y258540D01*
X232424Y258469D01*
X232442Y258420D01*
X232450Y258368D01*
X232484Y258305D01*
X232509Y258238D01*
X232541Y258197D01*
X232566Y258151D01*
X232618Y258102D01*
X232662Y258046D01*
X232706Y258017D01*
X232744Y257982D01*
X232809Y257951D01*
X232869Y257913D01*
X232920Y257900D01*
X232967Y257878D01*
X233038Y257870D01*
X233108Y257853D01*
X233160Y257857D01*
X233211Y257851D01*
X233282Y257866D01*
X233353Y257872D01*
X233401Y257892D01*
X233452Y257903D01*
X233513Y257940D01*
X233579Y257968D01*
X233635Y258013D01*
X233663Y258029D01*
X233678Y258047D01*
X233710Y258073D01*
X234850Y259213D01*
X238211Y260605D01*
X257089Y260605D01*
X260450Y259213D01*
X263023Y256640D01*
X263457Y255592D01*
X263494Y255531D01*
X263524Y255465D01*
X263559Y255427D01*
X263586Y255383D01*
X263641Y255337D01*
X263690Y255284D01*
X263736Y255259D01*
X263776Y255226D01*
X263843Y255200D01*
X263906Y255166D01*
X263957Y255156D01*
X264005Y255138D01*
X264077Y255135D01*
X264148Y255122D01*
X264199Y255130D01*
X264251Y255127D01*
X264320Y255147D01*
X264391Y255158D01*
X264437Y255181D01*
X264487Y255196D01*
X264546Y255237D01*
X264610Y255269D01*
X264647Y255307D01*
X264689Y255336D01*
X264732Y255394D01*
X264782Y255445D01*
X264817Y255508D01*
X264836Y255534D01*
X264843Y255556D01*
X264863Y255592D01*
X265297Y256640D01*
X267870Y259213D01*
X271231Y260605D01*
X290109Y260605D01*
X293470Y259213D01*
X296043Y256640D01*
X297435Y253279D01*
X297435Y249641D01*
X296043Y246280D01*
X293470Y243707D01*
X290109Y242315D01*
X271231Y242315D01*
X267870Y243707D01*
X265297Y246280D01*
X264863Y247328D01*
X264826Y247389D01*
X264796Y247455D01*
X264761Y247493D01*
X264734Y247537D01*
X264678Y247583D01*
X264630Y247636D01*
X264584Y247661D01*
X264544Y247694D01*
X264477Y247720D01*
X264414Y247754D01*
X264363Y247764D01*
X264315Y247782D01*
X264243Y247785D01*
X264172Y247798D01*
X264121Y247790D01*
X264069Y247793D01*
X264000Y247773D01*
X263929Y247762D01*
X263883Y247739D01*
X263833Y247724D01*
X263774Y247683D01*
X263710Y247651D01*
X263673Y247613D01*
X263631Y247584D01*
X263588Y247526D01*
X263538Y247475D01*
X263503Y247412D01*
X263484Y247386D01*
X263477Y247364D01*
X263457Y247328D01*
X263023Y246280D01*
X260450Y243707D01*
X257089Y242315D01*
X238211Y242315D01*
X236065Y243204D01*
X235970Y243227D01*
X235877Y243255D01*
X235851Y243254D01*
X235825Y243260D01*
X235729Y243251D01*
X235631Y243249D01*
X235607Y243240D01*
X235581Y243237D01*
X235492Y243198D01*
X235400Y243164D01*
X235380Y243148D01*
X235356Y243137D01*
X235284Y243072D01*
X235208Y243011D01*
X235194Y242989D01*
X235175Y242971D01*
X235128Y242886D01*
X235075Y242804D01*
X235069Y242778D01*
X235056Y242755D01*
X235039Y242659D01*
X235015Y242565D01*
X235017Y242539D01*
X235012Y242513D01*
X235027Y242417D01*
X235034Y242320D01*
X235044Y242296D01*
X235048Y242270D01*
X235092Y242183D01*
X235130Y242094D01*
X235151Y242068D01*
X235160Y242051D01*
X235183Y242028D01*
X235235Y241963D01*
X241770Y235428D01*
X241844Y235375D01*
X241914Y235315D01*
X241944Y235303D01*
X241970Y235284D01*
X242057Y235257D01*
X242142Y235223D01*
X242183Y235219D01*
X242205Y235212D01*
X242237Y235213D01*
X242309Y235205D01*
X257089Y235205D01*
X260450Y233813D01*
X263023Y231240D01*
X263457Y230192D01*
X263494Y230131D01*
X263524Y230065D01*
X263559Y230027D01*
X263586Y229983D01*
X263641Y229937D01*
X263690Y229884D01*
X263736Y229859D01*
X263776Y229826D01*
X263843Y229800D01*
X263906Y229766D01*
X263957Y229756D01*
X264005Y229738D01*
X264077Y229735D01*
X264148Y229722D01*
X264199Y229730D01*
X264251Y229727D01*
X264320Y229747D01*
X264391Y229758D01*
X264437Y229781D01*
X264487Y229796D01*
X264546Y229837D01*
X264610Y229869D01*
X264647Y229907D01*
X264689Y229936D01*
X264732Y229994D01*
X264782Y230045D01*
X264817Y230108D01*
X264836Y230134D01*
X264843Y230156D01*
X264863Y230192D01*
X265297Y231240D01*
X267870Y233813D01*
X271231Y235205D01*
X290109Y235205D01*
X293470Y233813D01*
X296043Y231240D01*
X297435Y227879D01*
X297435Y224241D01*
X296043Y220880D01*
X293470Y218307D01*
X290109Y216915D01*
X271231Y216915D01*
X267870Y218307D01*
X265297Y220880D01*
X264863Y221928D01*
X264826Y221989D01*
X264796Y222055D01*
X264761Y222093D01*
X264734Y222137D01*
X264678Y222183D01*
X264630Y222236D01*
X264584Y222261D01*
X264544Y222294D01*
X264477Y222320D01*
X264414Y222354D01*
X264363Y222364D01*
X264315Y222382D01*
X264243Y222385D01*
X264172Y222398D01*
X264121Y222390D01*
X264069Y222393D01*
X264000Y222373D01*
X263929Y222362D01*
X263883Y222339D01*
X263833Y222324D01*
X263774Y222283D01*
X263710Y222251D01*
X263673Y222213D01*
X263631Y222184D01*
X263588Y222126D01*
X263538Y222075D01*
X263503Y222012D01*
X263484Y221986D01*
X263477Y221964D01*
X263457Y221928D01*
X263023Y220880D01*
X260450Y218307D01*
X257089Y216915D01*
X238211Y216915D01*
X235198Y218163D01*
X235103Y218186D01*
X235010Y218214D01*
X234984Y218214D01*
X234958Y218220D01*
X234861Y218210D01*
X234764Y218208D01*
X234739Y218199D01*
X234713Y218197D01*
X234625Y218157D01*
X234533Y218124D01*
X234512Y218107D01*
X234489Y218097D01*
X234417Y218031D01*
X234341Y217970D01*
X234327Y217948D01*
X234307Y217930D01*
X234260Y217845D01*
X234208Y217763D01*
X234201Y217738D01*
X234189Y217715D01*
X234172Y217619D01*
X234148Y217524D01*
X234150Y217498D01*
X234145Y217473D01*
X234159Y217376D01*
X234167Y217279D01*
X234177Y217255D01*
X234181Y217229D01*
X234225Y217142D01*
X234263Y217053D01*
X234284Y217027D01*
X234292Y217010D01*
X234316Y216987D01*
X234368Y216922D01*
X241262Y210028D01*
X241336Y209975D01*
X241406Y209915D01*
X241436Y209903D01*
X241462Y209884D01*
X241549Y209857D01*
X241634Y209823D01*
X241675Y209819D01*
X241697Y209812D01*
X241729Y209813D01*
X241800Y209805D01*
X257089Y209805D01*
X260450Y208413D01*
X263023Y205840D01*
X263457Y204792D01*
X263494Y204731D01*
X263524Y204665D01*
X263559Y204627D01*
X263586Y204583D01*
X263642Y204537D01*
X263690Y204484D01*
X263736Y204459D01*
X263776Y204426D01*
X263843Y204400D01*
X263906Y204366D01*
X263957Y204356D01*
X264005Y204338D01*
X264077Y204335D01*
X264148Y204322D01*
X264199Y204330D01*
X264251Y204327D01*
X264320Y204347D01*
X264391Y204358D01*
X264437Y204381D01*
X264487Y204396D01*
X264546Y204437D01*
X264610Y204469D01*
X264647Y204507D01*
X264689Y204536D01*
X264732Y204594D01*
X264782Y204645D01*
X264817Y204708D01*
X264836Y204734D01*
X264843Y204756D01*
X264863Y204792D01*
X265297Y205840D01*
X267870Y208413D01*
X271231Y209805D01*
X290109Y209805D01*
X293470Y208413D01*
X296043Y205840D01*
X297435Y202479D01*
X297435Y198841D01*
X296043Y195480D01*
X293470Y192907D01*
X290109Y191515D01*
X271231Y191515D01*
X267870Y192907D01*
X265297Y195480D01*
X264863Y196528D01*
X264826Y196589D01*
X264796Y196655D01*
X264761Y196693D01*
X264734Y196737D01*
X264679Y196783D01*
X264630Y196836D01*
X264584Y196861D01*
X264544Y196894D01*
X264477Y196920D01*
X264414Y196954D01*
X264363Y196964D01*
X264315Y196982D01*
X264243Y196985D01*
X264172Y196998D01*
X264121Y196990D01*
X264069Y196993D01*
X264000Y196973D01*
X263929Y196962D01*
X263883Y196939D01*
X263833Y196924D01*
X263774Y196883D01*
X263710Y196851D01*
X263673Y196813D01*
X263631Y196784D01*
X263588Y196726D01*
X263538Y196675D01*
X263503Y196612D01*
X263484Y196586D01*
X263477Y196564D01*
X263457Y196528D01*
X263023Y195480D01*
X260450Y192907D01*
X257089Y191515D01*
X238752Y191515D01*
X238682Y191504D01*
X238610Y191502D01*
X238561Y191484D01*
X238510Y191476D01*
X238446Y191442D01*
X238379Y191417D01*
X238338Y191385D01*
X238292Y191360D01*
X238243Y191308D01*
X238187Y191264D01*
X238159Y191220D01*
X238123Y191182D01*
X238093Y191117D01*
X238054Y191057D01*
X238041Y191006D01*
X238019Y190959D01*
X238011Y190888D01*
X237994Y190818D01*
X237998Y190766D01*
X237992Y190715D01*
X238007Y190644D01*
X238013Y190573D01*
X238033Y190525D01*
X238044Y190474D01*
X238081Y190413D01*
X238109Y190347D01*
X238154Y190291D01*
X238171Y190263D01*
X238188Y190248D01*
X238214Y190216D01*
X239992Y188438D01*
X240066Y188385D01*
X240136Y188325D01*
X240166Y188313D01*
X240192Y188294D01*
X240279Y188267D01*
X240364Y188233D01*
X240405Y188229D01*
X240427Y188222D01*
X240459Y188223D01*
X240531Y188215D01*
X397187Y188215D01*
X528854Y56548D01*
X528928Y56495D01*
X528998Y56435D01*
X529028Y56423D01*
X529054Y56404D01*
X529141Y56377D01*
X529226Y56343D01*
X529267Y56339D01*
X529289Y56332D01*
X529321Y56333D01*
X529392Y56325D01*
X542814Y56325D01*
X545778Y55097D01*
X548047Y52828D01*
X549275Y49864D01*
X549275Y46656D01*
X548047Y43692D01*
X545778Y41423D01*
X542814Y40195D01*
X526526Y40195D01*
G37*
%LPD*%
G36*
X230214Y198633D02*
X230214Y198633D01*
X230266Y198635D01*
X230334Y198659D01*
X230404Y198674D01*
X230449Y198701D01*
X230497Y198719D01*
X230553Y198764D01*
X230615Y198801D01*
X230649Y198840D01*
X230689Y198873D01*
X230728Y198933D01*
X230775Y198988D01*
X230794Y199036D01*
X230822Y199080D01*
X230840Y199149D01*
X230867Y199216D01*
X230875Y199287D01*
X230883Y199318D01*
X230881Y199342D01*
X230885Y199382D01*
X230885Y202479D01*
X232277Y205840D01*
X234850Y208413D01*
X234900Y208433D01*
X234939Y208457D01*
X234982Y208473D01*
X235043Y208522D01*
X235109Y208563D01*
X235138Y208598D01*
X235174Y208627D01*
X235216Y208692D01*
X235266Y208752D01*
X235282Y208795D01*
X235307Y208834D01*
X235326Y208909D01*
X235354Y208982D01*
X235356Y209028D01*
X235367Y209072D01*
X235361Y209150D01*
X235365Y209228D01*
X235352Y209272D01*
X235348Y209318D01*
X235318Y209389D01*
X235296Y209464D01*
X235270Y209502D01*
X235252Y209544D01*
X235167Y209651D01*
X235156Y209666D01*
X235152Y209669D01*
X235147Y209675D01*
X224789Y220033D01*
X224789Y410903D01*
X236758Y422872D01*
X236811Y422946D01*
X236871Y423016D01*
X236883Y423046D01*
X236902Y423072D01*
X236929Y423159D01*
X236963Y423244D01*
X236967Y423285D01*
X236974Y423307D01*
X236973Y423339D01*
X236981Y423411D01*
X236981Y495227D01*
X236962Y495342D01*
X236944Y495462D01*
X236942Y495465D01*
X236942Y495469D01*
X236887Y495573D01*
X236831Y495680D01*
X236828Y495683D01*
X236826Y495687D01*
X236740Y495769D01*
X236655Y495852D01*
X236651Y495853D01*
X236648Y495856D01*
X236540Y495907D01*
X236433Y495958D01*
X236429Y495958D01*
X236425Y495960D01*
X236306Y495973D01*
X236189Y495987D01*
X236184Y495987D01*
X236181Y495987D01*
X236167Y495984D01*
X236023Y495962D01*
X235920Y495934D01*
X228853Y495934D01*
X228853Y505968D01*
X228850Y505988D01*
X228852Y506007D01*
X228830Y506109D01*
X228813Y506211D01*
X228804Y506228D01*
X228800Y506248D01*
X228747Y506337D01*
X228698Y506428D01*
X228684Y506442D01*
X228674Y506459D01*
X228595Y506526D01*
X228520Y506597D01*
X228502Y506606D01*
X228487Y506619D01*
X228391Y506657D01*
X228297Y506701D01*
X228277Y506703D01*
X228259Y506711D01*
X228092Y506729D01*
X227329Y506729D01*
X227329Y506731D01*
X228092Y506731D01*
X228112Y506734D01*
X228131Y506732D01*
X228233Y506754D01*
X228335Y506771D01*
X228352Y506780D01*
X228372Y506784D01*
X228461Y506837D01*
X228552Y506886D01*
X228566Y506900D01*
X228583Y506910D01*
X228650Y506989D01*
X228721Y507064D01*
X228730Y507082D01*
X228743Y507097D01*
X228782Y507193D01*
X228825Y507287D01*
X228827Y507307D01*
X228835Y507325D01*
X228853Y507492D01*
X228853Y517526D01*
X235920Y517526D01*
X236023Y517498D01*
X236141Y517486D01*
X236259Y517473D01*
X236264Y517474D01*
X236268Y517474D01*
X236383Y517500D01*
X236500Y517525D01*
X236503Y517527D01*
X236507Y517528D01*
X236609Y517590D01*
X236711Y517652D01*
X236714Y517655D01*
X236717Y517657D01*
X236793Y517748D01*
X236871Y517838D01*
X236872Y517842D01*
X236875Y517845D01*
X236918Y517955D01*
X236963Y518067D01*
X236963Y518071D01*
X236965Y518075D01*
X236965Y518088D01*
X236981Y518233D01*
X236981Y526113D01*
X236970Y526184D01*
X236968Y526255D01*
X236950Y526304D01*
X236942Y526356D01*
X236908Y526419D01*
X236883Y526486D01*
X236851Y526527D01*
X236826Y526573D01*
X236774Y526622D01*
X236730Y526678D01*
X236686Y526707D01*
X236648Y526742D01*
X236583Y526773D01*
X236523Y526811D01*
X236472Y526824D01*
X236425Y526846D01*
X236354Y526854D01*
X236284Y526871D01*
X236232Y526867D01*
X236181Y526873D01*
X236110Y526858D01*
X236039Y526852D01*
X235991Y526832D01*
X235940Y526821D01*
X235879Y526784D01*
X235813Y526756D01*
X235757Y526711D01*
X235729Y526695D01*
X235714Y526677D01*
X235682Y526651D01*
X232870Y523839D01*
X229275Y522350D01*
X225385Y522350D01*
X221790Y523839D01*
X219039Y526590D01*
X217550Y530185D01*
X217550Y534075D01*
X219039Y537670D01*
X221790Y540421D01*
X223690Y541208D01*
X223729Y541232D01*
X223772Y541248D01*
X223833Y541296D01*
X223899Y541337D01*
X223928Y541373D01*
X223964Y541401D01*
X224006Y541467D01*
X224056Y541527D01*
X224072Y541570D01*
X224097Y541608D01*
X224116Y541684D01*
X224144Y541756D01*
X224146Y541802D01*
X224157Y541847D01*
X224151Y541924D01*
X224154Y542002D01*
X224142Y542046D01*
X224138Y542092D01*
X224108Y542164D01*
X224086Y542238D01*
X224060Y542276D01*
X224042Y542318D01*
X223956Y542425D01*
X223946Y542440D01*
X223941Y542443D01*
X223937Y542449D01*
X212636Y553750D01*
X212249Y554137D01*
X212212Y554164D01*
X212181Y554197D01*
X212113Y554235D01*
X212050Y554280D01*
X212006Y554294D01*
X211965Y554316D01*
X211889Y554330D01*
X211814Y554353D01*
X211769Y554352D01*
X211723Y554360D01*
X211646Y554348D01*
X211569Y554346D01*
X211525Y554331D01*
X211480Y554324D01*
X211411Y554289D01*
X211338Y554262D01*
X211302Y554233D01*
X211261Y554212D01*
X211206Y554157D01*
X211146Y554108D01*
X211121Y554070D01*
X211089Y554037D01*
X211023Y553917D01*
X211013Y553901D01*
X211011Y553897D01*
X211008Y553890D01*
X210221Y551990D01*
X207470Y549239D01*
X203875Y547750D01*
X199985Y547750D01*
X196390Y549239D01*
X193639Y551990D01*
X192150Y555585D01*
X192150Y558935D01*
X192139Y559005D01*
X192137Y559077D01*
X192119Y559126D01*
X192111Y559177D01*
X192077Y559241D01*
X192052Y559308D01*
X192020Y559349D01*
X191995Y559395D01*
X191943Y559444D01*
X191899Y559500D01*
X191855Y559528D01*
X191817Y559564D01*
X191752Y559594D01*
X191692Y559633D01*
X191641Y559646D01*
X191594Y559668D01*
X191523Y559676D01*
X191453Y559693D01*
X191401Y559689D01*
X191350Y559695D01*
X191279Y559680D01*
X191208Y559674D01*
X191160Y559654D01*
X191109Y559643D01*
X191048Y559606D01*
X190982Y559578D01*
X190926Y559533D01*
X190898Y559516D01*
X190883Y559499D01*
X190851Y559473D01*
X189962Y558584D01*
X189909Y558510D01*
X189849Y558440D01*
X189837Y558410D01*
X189818Y558384D01*
X189791Y558297D01*
X189757Y558212D01*
X189753Y558171D01*
X189746Y558149D01*
X189747Y558117D01*
X189739Y558045D01*
X189739Y488399D01*
X189750Y488329D01*
X189752Y488257D01*
X189770Y488208D01*
X189778Y488157D01*
X189812Y488093D01*
X189837Y488026D01*
X189869Y487985D01*
X189894Y487939D01*
X189946Y487890D01*
X189990Y487834D01*
X190034Y487806D01*
X190072Y487770D01*
X190137Y487740D01*
X190197Y487701D01*
X190248Y487688D01*
X190295Y487666D01*
X190366Y487658D01*
X190436Y487641D01*
X190488Y487645D01*
X190539Y487639D01*
X190610Y487654D01*
X190681Y487660D01*
X190729Y487680D01*
X190780Y487691D01*
X190841Y487728D01*
X190907Y487756D01*
X190963Y487801D01*
X190991Y487817D01*
X191006Y487835D01*
X191038Y487861D01*
X196827Y493650D01*
X207033Y493650D01*
X214250Y486433D01*
X214250Y476227D01*
X207033Y469010D01*
X196827Y469010D01*
X191038Y474799D01*
X190980Y474841D01*
X190928Y474890D01*
X190881Y474912D01*
X190839Y474943D01*
X190770Y474964D01*
X190705Y474994D01*
X190653Y475000D01*
X190603Y475015D01*
X190532Y475013D01*
X190461Y475021D01*
X190410Y475010D01*
X190358Y475009D01*
X190290Y474984D01*
X190220Y474969D01*
X190175Y474942D01*
X190127Y474924D01*
X190071Y474879D01*
X190009Y474843D01*
X189975Y474803D01*
X189935Y474770D01*
X189896Y474710D01*
X189849Y474656D01*
X189830Y474607D01*
X189802Y474563D01*
X189784Y474494D01*
X189757Y474427D01*
X189749Y474356D01*
X189741Y474325D01*
X189743Y474302D01*
X189739Y474261D01*
X189739Y239007D01*
X189753Y238916D01*
X189761Y238826D01*
X189773Y238796D01*
X189778Y238764D01*
X189821Y238683D01*
X189857Y238599D01*
X189883Y238567D01*
X189894Y238546D01*
X189917Y238524D01*
X189962Y238468D01*
X229586Y198844D01*
X229644Y198802D01*
X229696Y198753D01*
X229743Y198731D01*
X229785Y198701D01*
X229854Y198680D01*
X229919Y198649D01*
X229971Y198644D01*
X230021Y198628D01*
X230092Y198630D01*
X230163Y198622D01*
X230214Y198633D01*
G37*
%LPC*%
G36*
X624291Y64515D02*
X624291Y64515D01*
X620930Y65907D01*
X618357Y68480D01*
X616965Y71841D01*
X616965Y75479D01*
X618357Y78840D01*
X620930Y81413D01*
X624291Y82805D01*
X643169Y82805D01*
X646530Y81413D01*
X649103Y78840D01*
X649537Y77792D01*
X649574Y77731D01*
X649604Y77665D01*
X649639Y77627D01*
X649666Y77583D01*
X649722Y77537D01*
X649770Y77484D01*
X649816Y77459D01*
X649856Y77426D01*
X649923Y77400D01*
X649986Y77366D01*
X650037Y77356D01*
X650085Y77338D01*
X650157Y77335D01*
X650228Y77322D01*
X650279Y77330D01*
X650331Y77327D01*
X650400Y77347D01*
X650471Y77358D01*
X650517Y77381D01*
X650567Y77396D01*
X650626Y77437D01*
X650690Y77469D01*
X650727Y77507D01*
X650769Y77536D01*
X650812Y77594D01*
X650862Y77645D01*
X650897Y77708D01*
X650916Y77734D01*
X650923Y77756D01*
X650943Y77792D01*
X651377Y78840D01*
X653950Y81413D01*
X657311Y82805D01*
X669044Y82805D01*
X669134Y82819D01*
X669225Y82827D01*
X669254Y82839D01*
X669286Y82844D01*
X669367Y82887D01*
X669451Y82923D01*
X669483Y82949D01*
X669504Y82960D01*
X669526Y82983D01*
X669582Y83028D01*
X675170Y88616D01*
X675212Y88674D01*
X675261Y88726D01*
X675283Y88773D01*
X675313Y88815D01*
X675334Y88884D01*
X675365Y88949D01*
X675370Y89001D01*
X675386Y89051D01*
X675384Y89122D01*
X675392Y89193D01*
X675381Y89244D01*
X675379Y89296D01*
X675355Y89364D01*
X675340Y89434D01*
X675313Y89478D01*
X675295Y89527D01*
X675250Y89583D01*
X675213Y89645D01*
X675174Y89679D01*
X675141Y89719D01*
X675081Y89758D01*
X675026Y89805D01*
X674978Y89824D01*
X674934Y89852D01*
X674865Y89870D01*
X674798Y89897D01*
X674727Y89905D01*
X674696Y89913D01*
X674672Y89911D01*
X674632Y89915D01*
X657311Y89915D01*
X653950Y91307D01*
X651377Y93880D01*
X650943Y94928D01*
X650906Y94989D01*
X650876Y95055D01*
X650841Y95093D01*
X650814Y95137D01*
X650759Y95183D01*
X650710Y95236D01*
X650664Y95261D01*
X650624Y95294D01*
X650557Y95320D01*
X650494Y95354D01*
X650443Y95364D01*
X650395Y95382D01*
X650323Y95385D01*
X650252Y95398D01*
X650201Y95390D01*
X650149Y95393D01*
X650080Y95373D01*
X650009Y95362D01*
X649963Y95339D01*
X649913Y95324D01*
X649854Y95283D01*
X649790Y95251D01*
X649753Y95213D01*
X649711Y95184D01*
X649668Y95126D01*
X649618Y95075D01*
X649583Y95012D01*
X649564Y94986D01*
X649557Y94964D01*
X649537Y94928D01*
X649103Y93880D01*
X646530Y91307D01*
X643169Y89915D01*
X624291Y89915D01*
X620930Y91307D01*
X618357Y93880D01*
X616965Y97241D01*
X616965Y100879D01*
X618357Y104240D01*
X620930Y106813D01*
X624291Y108205D01*
X643169Y108205D01*
X646530Y106813D01*
X649103Y104240D01*
X649537Y103192D01*
X649574Y103131D01*
X649604Y103065D01*
X649639Y103027D01*
X649666Y102983D01*
X649722Y102937D01*
X649770Y102884D01*
X649816Y102859D01*
X649856Y102826D01*
X649923Y102800D01*
X649986Y102766D01*
X650037Y102756D01*
X650085Y102738D01*
X650157Y102735D01*
X650228Y102722D01*
X650279Y102730D01*
X650331Y102727D01*
X650400Y102747D01*
X650471Y102758D01*
X650517Y102781D01*
X650567Y102796D01*
X650626Y102837D01*
X650690Y102869D01*
X650727Y102907D01*
X650769Y102936D01*
X650812Y102994D01*
X650862Y103045D01*
X650897Y103108D01*
X650916Y103134D01*
X650923Y103156D01*
X650943Y103192D01*
X651377Y104240D01*
X653950Y106813D01*
X657311Y108205D01*
X676189Y108205D01*
X679550Y106813D01*
X682123Y104240D01*
X683515Y100879D01*
X683515Y98798D01*
X683526Y98728D01*
X683528Y98656D01*
X683546Y98607D01*
X683554Y98556D01*
X683588Y98492D01*
X683613Y98425D01*
X683645Y98384D01*
X683670Y98338D01*
X683721Y98289D01*
X683766Y98233D01*
X683810Y98205D01*
X683848Y98169D01*
X683913Y98139D01*
X683973Y98100D01*
X684024Y98087D01*
X684071Y98065D01*
X684142Y98057D01*
X684212Y98040D01*
X684264Y98044D01*
X684315Y98038D01*
X684386Y98053D01*
X684457Y98059D01*
X684505Y98079D01*
X684556Y98090D01*
X684617Y98127D01*
X684683Y98155D01*
X684739Y98200D01*
X684767Y98217D01*
X684782Y98234D01*
X684814Y98260D01*
X722914Y136360D01*
X722967Y136434D01*
X723027Y136504D01*
X723039Y136534D01*
X723058Y136560D01*
X723085Y136647D01*
X723119Y136732D01*
X723123Y136773D01*
X723130Y136795D01*
X723129Y136827D01*
X723137Y136898D01*
X723137Y243263D01*
X727232Y247358D01*
X727285Y247432D01*
X727345Y247502D01*
X727357Y247532D01*
X727376Y247558D01*
X727403Y247645D01*
X727437Y247730D01*
X727441Y247771D01*
X727448Y247793D01*
X727447Y247825D01*
X727455Y247896D01*
X727455Y259595D01*
X727441Y259686D01*
X727433Y259776D01*
X727421Y259806D01*
X727416Y259838D01*
X727373Y259919D01*
X727337Y260003D01*
X727311Y260035D01*
X727300Y260056D01*
X727277Y260078D01*
X727232Y260134D01*
X723137Y264229D01*
X723137Y366021D01*
X723123Y366112D01*
X723115Y366202D01*
X723103Y366232D01*
X723098Y366264D01*
X723055Y366345D01*
X723019Y366429D01*
X722993Y366461D01*
X722982Y366482D01*
X722959Y366504D01*
X722914Y366560D01*
X684814Y404660D01*
X684756Y404702D01*
X684704Y404751D01*
X684657Y404773D01*
X684615Y404803D01*
X684546Y404824D01*
X684481Y404855D01*
X684429Y404860D01*
X684379Y404876D01*
X684308Y404874D01*
X684237Y404882D01*
X684186Y404871D01*
X684134Y404869D01*
X684066Y404845D01*
X683996Y404830D01*
X683951Y404803D01*
X683903Y404785D01*
X683847Y404740D01*
X683785Y404703D01*
X683751Y404664D01*
X683711Y404631D01*
X683672Y404571D01*
X683625Y404516D01*
X683606Y404468D01*
X683578Y404424D01*
X683560Y404355D01*
X683533Y404288D01*
X683525Y404217D01*
X683517Y404186D01*
X683519Y404162D01*
X683515Y404122D01*
X683515Y402041D01*
X682123Y398680D01*
X679550Y396107D01*
X676189Y394715D01*
X657311Y394715D01*
X653950Y396107D01*
X651377Y398680D01*
X650943Y399728D01*
X650906Y399789D01*
X650876Y399855D01*
X650841Y399893D01*
X650814Y399937D01*
X650758Y399983D01*
X650710Y400036D01*
X650664Y400061D01*
X650624Y400094D01*
X650557Y400120D01*
X650494Y400154D01*
X650443Y400164D01*
X650395Y400182D01*
X650323Y400185D01*
X650252Y400198D01*
X650201Y400190D01*
X650149Y400193D01*
X650080Y400173D01*
X650009Y400162D01*
X649963Y400139D01*
X649913Y400124D01*
X649854Y400083D01*
X649790Y400051D01*
X649753Y400013D01*
X649711Y399984D01*
X649668Y399926D01*
X649618Y399875D01*
X649583Y399812D01*
X649564Y399786D01*
X649557Y399764D01*
X649537Y399728D01*
X649103Y398680D01*
X646530Y396107D01*
X643169Y394715D01*
X624291Y394715D01*
X620930Y396107D01*
X618357Y398680D01*
X616965Y402041D01*
X616965Y405679D01*
X618357Y409040D01*
X620930Y411613D01*
X624291Y413005D01*
X643169Y413005D01*
X646530Y411613D01*
X649103Y409040D01*
X649537Y407992D01*
X649574Y407931D01*
X649604Y407865D01*
X649639Y407827D01*
X649666Y407783D01*
X649721Y407737D01*
X649770Y407684D01*
X649816Y407659D01*
X649856Y407626D01*
X649923Y407600D01*
X649986Y407566D01*
X650037Y407556D01*
X650085Y407538D01*
X650157Y407535D01*
X650228Y407522D01*
X650279Y407530D01*
X650331Y407527D01*
X650400Y407547D01*
X650471Y407558D01*
X650517Y407581D01*
X650567Y407596D01*
X650626Y407637D01*
X650690Y407669D01*
X650727Y407707D01*
X650769Y407736D01*
X650812Y407794D01*
X650862Y407845D01*
X650897Y407908D01*
X650916Y407934D01*
X650923Y407956D01*
X650943Y407992D01*
X651377Y409040D01*
X653950Y411613D01*
X657311Y413005D01*
X674632Y413005D01*
X674702Y413016D01*
X674774Y413018D01*
X674823Y413036D01*
X674874Y413044D01*
X674938Y413078D01*
X675005Y413103D01*
X675046Y413135D01*
X675092Y413160D01*
X675141Y413212D01*
X675197Y413256D01*
X675225Y413300D01*
X675261Y413338D01*
X675291Y413403D01*
X675330Y413463D01*
X675343Y413514D01*
X675365Y413561D01*
X675373Y413632D01*
X675390Y413702D01*
X675386Y413754D01*
X675392Y413805D01*
X675377Y413876D01*
X675371Y413947D01*
X675351Y413995D01*
X675340Y414046D01*
X675303Y414107D01*
X675275Y414173D01*
X675230Y414229D01*
X675213Y414257D01*
X675196Y414272D01*
X675170Y414304D01*
X278129Y811345D01*
X278129Y829183D01*
X278126Y829203D01*
X278128Y829222D01*
X278106Y829324D01*
X278090Y829426D01*
X278080Y829443D01*
X278076Y829463D01*
X278023Y829552D01*
X277974Y829643D01*
X277960Y829657D01*
X277950Y829674D01*
X277871Y829741D01*
X277796Y829813D01*
X277778Y829821D01*
X277763Y829834D01*
X277679Y829868D01*
X277645Y829886D01*
X274004Y831394D01*
X271324Y834074D01*
X269874Y837575D01*
X269874Y841365D01*
X271324Y844866D01*
X274004Y847546D01*
X277505Y848996D01*
X281295Y848996D01*
X284796Y847546D01*
X287476Y844866D01*
X288926Y841365D01*
X288926Y837575D01*
X287476Y834074D01*
X284796Y831394D01*
X283173Y830722D01*
X283073Y830661D01*
X283062Y830654D01*
X283024Y830633D01*
X283018Y830627D01*
X282973Y830601D01*
X282969Y830596D01*
X282964Y830592D01*
X282889Y830503D01*
X282813Y830414D01*
X282811Y830408D01*
X282807Y830403D01*
X282765Y830295D01*
X282721Y830186D01*
X282720Y830178D01*
X282719Y830173D01*
X282718Y830155D01*
X282703Y830019D01*
X282703Y813555D01*
X282717Y813464D01*
X282725Y813374D01*
X282737Y813344D01*
X282742Y813312D01*
X282785Y813231D01*
X282821Y813147D01*
X282847Y813115D01*
X282858Y813094D01*
X282881Y813072D01*
X282926Y813016D01*
X727711Y368231D01*
X727711Y331001D01*
X727722Y330930D01*
X727724Y330859D01*
X727742Y330810D01*
X727750Y330758D01*
X727784Y330695D01*
X727809Y330628D01*
X727841Y330587D01*
X727866Y330541D01*
X727918Y330492D01*
X727962Y330436D01*
X728006Y330407D01*
X728044Y330372D01*
X728109Y330341D01*
X728169Y330303D01*
X728220Y330290D01*
X728267Y330268D01*
X728338Y330260D01*
X728408Y330243D01*
X728460Y330247D01*
X728511Y330241D01*
X728582Y330256D01*
X728653Y330262D01*
X728701Y330282D01*
X728752Y330293D01*
X728813Y330330D01*
X728879Y330358D01*
X728935Y330403D01*
X728963Y330419D01*
X728978Y330437D01*
X729010Y330463D01*
X731420Y332873D01*
X734781Y334265D01*
X738419Y334265D01*
X741780Y332873D01*
X744353Y330300D01*
X745745Y326939D01*
X745745Y308061D01*
X744353Y304700D01*
X741780Y302127D01*
X738419Y300735D01*
X734781Y300735D01*
X731420Y302127D01*
X729010Y304537D01*
X728952Y304579D01*
X728900Y304628D01*
X728853Y304650D01*
X728811Y304681D01*
X728742Y304702D01*
X728677Y304732D01*
X728625Y304738D01*
X728575Y304753D01*
X728504Y304751D01*
X728433Y304759D01*
X728382Y304748D01*
X728330Y304747D01*
X728262Y304722D01*
X728192Y304707D01*
X728147Y304680D01*
X728099Y304662D01*
X728043Y304617D01*
X727981Y304581D01*
X727947Y304541D01*
X727907Y304509D01*
X727868Y304448D01*
X727821Y304394D01*
X727802Y304345D01*
X727774Y304302D01*
X727756Y304232D01*
X727729Y304166D01*
X727721Y304094D01*
X727713Y304063D01*
X727715Y304040D01*
X727711Y303999D01*
X727711Y267501D01*
X727722Y267430D01*
X727724Y267359D01*
X727742Y267310D01*
X727750Y267258D01*
X727784Y267195D01*
X727809Y267128D01*
X727841Y267087D01*
X727866Y267041D01*
X727918Y266992D01*
X727962Y266936D01*
X728006Y266907D01*
X728044Y266872D01*
X728109Y266841D01*
X728169Y266803D01*
X728220Y266790D01*
X728267Y266768D01*
X728338Y266760D01*
X728408Y266743D01*
X728460Y266747D01*
X728511Y266741D01*
X728582Y266756D01*
X728653Y266762D01*
X728701Y266782D01*
X728752Y266793D01*
X728813Y266830D01*
X728879Y266858D01*
X728935Y266903D01*
X728963Y266919D01*
X728978Y266937D01*
X729010Y266963D01*
X731420Y269373D01*
X734781Y270765D01*
X738419Y270765D01*
X741780Y269373D01*
X744353Y266800D01*
X745745Y263439D01*
X745745Y244561D01*
X744353Y241200D01*
X741780Y238627D01*
X738419Y237235D01*
X734781Y237235D01*
X731420Y238627D01*
X729010Y241037D01*
X728952Y241079D01*
X728900Y241128D01*
X728853Y241150D01*
X728811Y241181D01*
X728742Y241202D01*
X728677Y241232D01*
X728625Y241238D01*
X728575Y241253D01*
X728504Y241251D01*
X728433Y241259D01*
X728382Y241248D01*
X728330Y241247D01*
X728262Y241222D01*
X728192Y241207D01*
X728147Y241180D01*
X728099Y241162D01*
X728043Y241117D01*
X727981Y241081D01*
X727947Y241041D01*
X727907Y241009D01*
X727868Y240948D01*
X727821Y240894D01*
X727802Y240845D01*
X727774Y240802D01*
X727756Y240732D01*
X727729Y240666D01*
X727721Y240594D01*
X727713Y240563D01*
X727715Y240540D01*
X727711Y240499D01*
X727711Y204001D01*
X727722Y203930D01*
X727724Y203859D01*
X727742Y203810D01*
X727750Y203758D01*
X727784Y203695D01*
X727809Y203628D01*
X727841Y203587D01*
X727866Y203541D01*
X727918Y203492D01*
X727962Y203436D01*
X728006Y203407D01*
X728044Y203372D01*
X728109Y203341D01*
X728169Y203303D01*
X728220Y203290D01*
X728267Y203268D01*
X728338Y203260D01*
X728408Y203243D01*
X728460Y203247D01*
X728511Y203241D01*
X728582Y203256D01*
X728653Y203262D01*
X728701Y203282D01*
X728752Y203293D01*
X728813Y203330D01*
X728879Y203358D01*
X728935Y203403D01*
X728963Y203419D01*
X728978Y203437D01*
X729010Y203463D01*
X731420Y205873D01*
X734781Y207265D01*
X738419Y207265D01*
X741780Y205873D01*
X744353Y203300D01*
X745745Y199939D01*
X745745Y181061D01*
X744353Y177700D01*
X741780Y175127D01*
X738419Y173735D01*
X734781Y173735D01*
X731420Y175127D01*
X729010Y177537D01*
X728952Y177579D01*
X728900Y177628D01*
X728853Y177650D01*
X728811Y177681D01*
X728742Y177702D01*
X728677Y177732D01*
X728625Y177738D01*
X728575Y177753D01*
X728504Y177751D01*
X728433Y177759D01*
X728382Y177748D01*
X728330Y177747D01*
X728262Y177722D01*
X728192Y177707D01*
X728147Y177680D01*
X728099Y177662D01*
X728043Y177617D01*
X727981Y177581D01*
X727947Y177541D01*
X727907Y177509D01*
X727868Y177448D01*
X727821Y177394D01*
X727802Y177345D01*
X727774Y177302D01*
X727756Y177232D01*
X727729Y177166D01*
X727721Y177094D01*
X727713Y177063D01*
X727715Y177040D01*
X727711Y176999D01*
X727711Y141938D01*
X727722Y141867D01*
X727724Y141796D01*
X727742Y141747D01*
X727750Y141695D01*
X727784Y141632D01*
X727809Y141565D01*
X727841Y141524D01*
X727866Y141478D01*
X727918Y141429D01*
X727962Y141373D01*
X728006Y141344D01*
X728044Y141308D01*
X728109Y141278D01*
X728169Y141240D01*
X728220Y141227D01*
X728267Y141205D01*
X728338Y141197D01*
X728408Y141179D01*
X728460Y141184D01*
X728511Y141178D01*
X728582Y141193D01*
X728653Y141199D01*
X728701Y141219D01*
X728752Y141230D01*
X728813Y141267D01*
X728879Y141295D01*
X728935Y141340D01*
X728963Y141356D01*
X728978Y141374D01*
X729010Y141400D01*
X729981Y142370D01*
X731275Y143310D01*
X732700Y144036D01*
X734221Y144531D01*
X735077Y144666D01*
X735077Y128523D01*
X726439Y128523D01*
X726439Y131580D01*
X726428Y131650D01*
X726426Y131722D01*
X726408Y131771D01*
X726400Y131822D01*
X726366Y131886D01*
X726341Y131953D01*
X726309Y131994D01*
X726284Y132040D01*
X726233Y132089D01*
X726188Y132145D01*
X726144Y132173D01*
X726106Y132209D01*
X726041Y132239D01*
X725981Y132278D01*
X725930Y132291D01*
X725883Y132313D01*
X725812Y132321D01*
X725742Y132338D01*
X725690Y132334D01*
X725639Y132340D01*
X725568Y132325D01*
X725497Y132319D01*
X725449Y132299D01*
X725398Y132288D01*
X725337Y132251D01*
X725271Y132223D01*
X725215Y132178D01*
X725187Y132161D01*
X725172Y132144D01*
X725140Y132118D01*
X676738Y83716D01*
X676712Y83679D01*
X676678Y83648D01*
X676640Y83580D01*
X676595Y83517D01*
X676581Y83473D01*
X676559Y83433D01*
X676545Y83356D01*
X676522Y83282D01*
X676524Y83236D01*
X676515Y83191D01*
X676527Y83114D01*
X676529Y83036D01*
X676545Y82993D01*
X676551Y82947D01*
X676587Y82878D01*
X676613Y82805D01*
X676642Y82769D01*
X676663Y82728D01*
X676718Y82673D01*
X676767Y82613D01*
X676806Y82588D01*
X676838Y82556D01*
X676958Y82490D01*
X676974Y82480D01*
X676979Y82478D01*
X676985Y82475D01*
X679550Y81413D01*
X682123Y78840D01*
X683515Y75479D01*
X683515Y71841D01*
X682123Y68480D01*
X679550Y65907D01*
X676189Y64515D01*
X657311Y64515D01*
X653950Y65907D01*
X651377Y68480D01*
X650943Y69528D01*
X650906Y69589D01*
X650876Y69655D01*
X650841Y69693D01*
X650814Y69737D01*
X650759Y69783D01*
X650710Y69836D01*
X650664Y69861D01*
X650624Y69894D01*
X650557Y69920D01*
X650494Y69954D01*
X650443Y69964D01*
X650395Y69982D01*
X650323Y69985D01*
X650252Y69998D01*
X650201Y69990D01*
X650149Y69993D01*
X650080Y69973D01*
X650009Y69962D01*
X649963Y69939D01*
X649913Y69924D01*
X649854Y69883D01*
X649790Y69851D01*
X649753Y69813D01*
X649711Y69784D01*
X649668Y69726D01*
X649618Y69675D01*
X649583Y69612D01*
X649564Y69586D01*
X649557Y69564D01*
X649537Y69528D01*
X649103Y68480D01*
X646530Y65907D01*
X643169Y64515D01*
X624291Y64515D01*
G37*
%LPD*%
%LPC*%
G36*
X238211Y64515D02*
X238211Y64515D01*
X234850Y65907D01*
X232277Y68480D01*
X230885Y71841D01*
X230885Y75479D01*
X232277Y78840D01*
X234850Y81413D01*
X238211Y82805D01*
X257089Y82805D01*
X260450Y81413D01*
X263023Y78840D01*
X263457Y77792D01*
X263494Y77731D01*
X263524Y77665D01*
X263559Y77627D01*
X263586Y77583D01*
X263642Y77537D01*
X263690Y77484D01*
X263736Y77459D01*
X263776Y77426D01*
X263843Y77400D01*
X263906Y77366D01*
X263957Y77356D01*
X264005Y77338D01*
X264077Y77335D01*
X264148Y77322D01*
X264199Y77330D01*
X264251Y77327D01*
X264320Y77347D01*
X264391Y77358D01*
X264437Y77381D01*
X264487Y77396D01*
X264546Y77437D01*
X264610Y77469D01*
X264647Y77507D01*
X264689Y77536D01*
X264732Y77594D01*
X264782Y77645D01*
X264817Y77708D01*
X264836Y77734D01*
X264843Y77756D01*
X264863Y77792D01*
X265297Y78840D01*
X267870Y81413D01*
X271231Y82805D01*
X290109Y82805D01*
X293470Y81413D01*
X296043Y78840D01*
X297435Y75479D01*
X297435Y71841D01*
X296043Y68480D01*
X293470Y65907D01*
X290109Y64515D01*
X271231Y64515D01*
X267870Y65907D01*
X265297Y68480D01*
X264863Y69528D01*
X264826Y69589D01*
X264796Y69655D01*
X264761Y69693D01*
X264734Y69737D01*
X264679Y69783D01*
X264630Y69836D01*
X264584Y69861D01*
X264544Y69894D01*
X264477Y69920D01*
X264414Y69954D01*
X264363Y69964D01*
X264315Y69982D01*
X264243Y69985D01*
X264172Y69998D01*
X264121Y69990D01*
X264069Y69993D01*
X264000Y69973D01*
X263929Y69962D01*
X263883Y69939D01*
X263833Y69924D01*
X263774Y69883D01*
X263710Y69851D01*
X263673Y69813D01*
X263631Y69784D01*
X263588Y69726D01*
X263538Y69675D01*
X263503Y69612D01*
X263484Y69586D01*
X263477Y69564D01*
X263457Y69528D01*
X263023Y68480D01*
X260450Y65907D01*
X257089Y64515D01*
X238211Y64515D01*
G37*
%LPD*%
%LPC*%
G36*
X624291Y166115D02*
X624291Y166115D01*
X620930Y167507D01*
X618357Y170080D01*
X616965Y173441D01*
X616965Y177079D01*
X618357Y180440D01*
X620930Y183013D01*
X624291Y184405D01*
X643169Y184405D01*
X646530Y183013D01*
X649103Y180440D01*
X649537Y179392D01*
X649574Y179331D01*
X649604Y179265D01*
X649639Y179227D01*
X649666Y179183D01*
X649722Y179137D01*
X649770Y179084D01*
X649816Y179059D01*
X649856Y179026D01*
X649923Y179000D01*
X649986Y178966D01*
X650037Y178956D01*
X650085Y178938D01*
X650157Y178935D01*
X650228Y178922D01*
X650279Y178930D01*
X650331Y178927D01*
X650400Y178947D01*
X650471Y178958D01*
X650517Y178981D01*
X650567Y178996D01*
X650626Y179037D01*
X650690Y179069D01*
X650727Y179107D01*
X650769Y179136D01*
X650812Y179194D01*
X650862Y179245D01*
X650897Y179308D01*
X650916Y179334D01*
X650923Y179356D01*
X650943Y179392D01*
X651377Y180440D01*
X653950Y183013D01*
X657311Y184405D01*
X676189Y184405D01*
X679550Y183013D01*
X682123Y180440D01*
X683515Y177079D01*
X683515Y173441D01*
X682123Y170080D01*
X679550Y167507D01*
X676189Y166115D01*
X657311Y166115D01*
X653950Y167507D01*
X651377Y170080D01*
X650943Y171128D01*
X650906Y171189D01*
X650876Y171255D01*
X650841Y171293D01*
X650814Y171337D01*
X650759Y171383D01*
X650710Y171436D01*
X650664Y171461D01*
X650624Y171494D01*
X650557Y171520D01*
X650494Y171554D01*
X650443Y171564D01*
X650395Y171582D01*
X650323Y171585D01*
X650252Y171598D01*
X650201Y171590D01*
X650149Y171593D01*
X650080Y171573D01*
X650009Y171562D01*
X649963Y171539D01*
X649913Y171524D01*
X649854Y171483D01*
X649790Y171451D01*
X649753Y171413D01*
X649711Y171384D01*
X649668Y171326D01*
X649618Y171275D01*
X649583Y171212D01*
X649564Y171186D01*
X649557Y171164D01*
X649537Y171128D01*
X649103Y170080D01*
X646530Y167507D01*
X643169Y166115D01*
X624291Y166115D01*
G37*
%LPD*%
%LPC*%
G36*
X624291Y140715D02*
X624291Y140715D01*
X620930Y142107D01*
X618357Y144680D01*
X616965Y148041D01*
X616965Y151679D01*
X618357Y155040D01*
X620930Y157613D01*
X624291Y159005D01*
X643169Y159005D01*
X646530Y157613D01*
X649103Y155040D01*
X649537Y153992D01*
X649574Y153931D01*
X649604Y153865D01*
X649639Y153827D01*
X649666Y153783D01*
X649722Y153737D01*
X649770Y153684D01*
X649816Y153659D01*
X649856Y153626D01*
X649923Y153600D01*
X649986Y153566D01*
X650037Y153556D01*
X650085Y153538D01*
X650157Y153535D01*
X650228Y153522D01*
X650279Y153530D01*
X650331Y153527D01*
X650400Y153547D01*
X650471Y153558D01*
X650517Y153581D01*
X650567Y153596D01*
X650626Y153637D01*
X650690Y153669D01*
X650727Y153707D01*
X650769Y153736D01*
X650812Y153794D01*
X650862Y153845D01*
X650897Y153908D01*
X650916Y153934D01*
X650923Y153956D01*
X650943Y153992D01*
X651377Y155040D01*
X653950Y157613D01*
X657311Y159005D01*
X676189Y159005D01*
X679550Y157613D01*
X682123Y155040D01*
X683515Y151679D01*
X683515Y148041D01*
X682123Y144680D01*
X679550Y142107D01*
X676189Y140715D01*
X657311Y140715D01*
X653950Y142107D01*
X651377Y144680D01*
X650943Y145728D01*
X650906Y145789D01*
X650876Y145855D01*
X650841Y145893D01*
X650814Y145937D01*
X650759Y145983D01*
X650710Y146036D01*
X650664Y146061D01*
X650624Y146094D01*
X650557Y146120D01*
X650494Y146154D01*
X650443Y146164D01*
X650395Y146182D01*
X650323Y146185D01*
X650252Y146198D01*
X650201Y146190D01*
X650149Y146193D01*
X650080Y146173D01*
X650009Y146162D01*
X649963Y146139D01*
X649913Y146124D01*
X649854Y146083D01*
X649790Y146051D01*
X649753Y146013D01*
X649711Y145984D01*
X649668Y145926D01*
X649618Y145875D01*
X649583Y145812D01*
X649564Y145786D01*
X649557Y145764D01*
X649537Y145728D01*
X649103Y144680D01*
X646530Y142107D01*
X643169Y140715D01*
X624291Y140715D01*
G37*
%LPD*%
%LPC*%
G36*
X238211Y140715D02*
X238211Y140715D01*
X234850Y142107D01*
X232277Y144680D01*
X230885Y148041D01*
X230885Y151679D01*
X232277Y155040D01*
X234850Y157613D01*
X238211Y159005D01*
X257089Y159005D01*
X260450Y157613D01*
X263023Y155040D01*
X263457Y153992D01*
X263494Y153931D01*
X263524Y153865D01*
X263559Y153827D01*
X263586Y153783D01*
X263642Y153737D01*
X263690Y153684D01*
X263736Y153659D01*
X263776Y153626D01*
X263843Y153600D01*
X263906Y153566D01*
X263957Y153556D01*
X264005Y153538D01*
X264077Y153535D01*
X264148Y153522D01*
X264199Y153530D01*
X264251Y153527D01*
X264320Y153547D01*
X264391Y153558D01*
X264437Y153581D01*
X264487Y153596D01*
X264546Y153637D01*
X264610Y153669D01*
X264647Y153707D01*
X264689Y153736D01*
X264732Y153794D01*
X264782Y153845D01*
X264817Y153908D01*
X264836Y153934D01*
X264843Y153956D01*
X264863Y153992D01*
X265297Y155040D01*
X267870Y157613D01*
X271231Y159005D01*
X290109Y159005D01*
X293470Y157613D01*
X296043Y155040D01*
X297435Y151679D01*
X297435Y148041D01*
X296043Y144680D01*
X293470Y142107D01*
X290109Y140715D01*
X271231Y140715D01*
X267870Y142107D01*
X265297Y144680D01*
X264863Y145728D01*
X264826Y145789D01*
X264796Y145855D01*
X264761Y145893D01*
X264734Y145937D01*
X264679Y145983D01*
X264630Y146036D01*
X264584Y146061D01*
X264544Y146094D01*
X264477Y146120D01*
X264414Y146154D01*
X264363Y146164D01*
X264315Y146182D01*
X264243Y146185D01*
X264172Y146198D01*
X264121Y146190D01*
X264069Y146193D01*
X264000Y146173D01*
X263929Y146162D01*
X263883Y146139D01*
X263833Y146124D01*
X263774Y146083D01*
X263710Y146051D01*
X263673Y146013D01*
X263631Y145984D01*
X263588Y145926D01*
X263538Y145875D01*
X263503Y145812D01*
X263484Y145786D01*
X263477Y145764D01*
X263457Y145728D01*
X263023Y144680D01*
X260450Y142107D01*
X257089Y140715D01*
X238211Y140715D01*
G37*
%LPD*%
%LPC*%
G36*
X238211Y89915D02*
X238211Y89915D01*
X234850Y91307D01*
X232277Y93880D01*
X230885Y97241D01*
X230885Y100879D01*
X232277Y104240D01*
X234850Y106813D01*
X238211Y108205D01*
X257089Y108205D01*
X260450Y106813D01*
X263023Y104240D01*
X263457Y103192D01*
X263494Y103131D01*
X263524Y103065D01*
X263559Y103027D01*
X263586Y102983D01*
X263642Y102937D01*
X263690Y102884D01*
X263736Y102859D01*
X263776Y102826D01*
X263843Y102800D01*
X263906Y102766D01*
X263957Y102756D01*
X264005Y102738D01*
X264077Y102735D01*
X264148Y102722D01*
X264199Y102730D01*
X264251Y102727D01*
X264320Y102747D01*
X264391Y102758D01*
X264437Y102781D01*
X264487Y102796D01*
X264546Y102837D01*
X264610Y102869D01*
X264647Y102907D01*
X264689Y102936D01*
X264732Y102994D01*
X264782Y103045D01*
X264817Y103108D01*
X264836Y103134D01*
X264843Y103156D01*
X264863Y103192D01*
X265297Y104240D01*
X267870Y106813D01*
X271231Y108205D01*
X290109Y108205D01*
X293470Y106813D01*
X296043Y104240D01*
X297435Y100879D01*
X297435Y97241D01*
X296043Y93880D01*
X293470Y91307D01*
X290109Y89915D01*
X271231Y89915D01*
X267870Y91307D01*
X265297Y93880D01*
X264863Y94928D01*
X264826Y94989D01*
X264796Y95055D01*
X264761Y95093D01*
X264734Y95137D01*
X264679Y95183D01*
X264630Y95236D01*
X264584Y95261D01*
X264544Y95294D01*
X264477Y95320D01*
X264414Y95354D01*
X264363Y95364D01*
X264315Y95382D01*
X264243Y95385D01*
X264172Y95398D01*
X264121Y95390D01*
X264069Y95393D01*
X264000Y95373D01*
X263929Y95362D01*
X263883Y95339D01*
X263833Y95324D01*
X263774Y95283D01*
X263710Y95251D01*
X263673Y95213D01*
X263631Y95184D01*
X263588Y95126D01*
X263538Y95075D01*
X263503Y95012D01*
X263484Y94986D01*
X263477Y94964D01*
X263457Y94928D01*
X263023Y93880D01*
X260450Y91307D01*
X257089Y89915D01*
X238211Y89915D01*
G37*
%LPD*%
%LPC*%
G36*
X624291Y242315D02*
X624291Y242315D01*
X620930Y243707D01*
X618357Y246280D01*
X616965Y249641D01*
X616965Y253279D01*
X618357Y256640D01*
X620930Y259213D01*
X624291Y260605D01*
X643169Y260605D01*
X646530Y259213D01*
X649103Y256640D01*
X649537Y255592D01*
X649574Y255531D01*
X649604Y255465D01*
X649639Y255427D01*
X649666Y255383D01*
X649722Y255337D01*
X649770Y255284D01*
X649816Y255259D01*
X649856Y255226D01*
X649923Y255200D01*
X649986Y255166D01*
X650037Y255156D01*
X650085Y255138D01*
X650157Y255135D01*
X650228Y255122D01*
X650279Y255130D01*
X650331Y255127D01*
X650400Y255147D01*
X650471Y255158D01*
X650517Y255181D01*
X650567Y255196D01*
X650626Y255237D01*
X650690Y255269D01*
X650727Y255307D01*
X650769Y255336D01*
X650812Y255394D01*
X650862Y255445D01*
X650897Y255508D01*
X650916Y255534D01*
X650923Y255556D01*
X650943Y255592D01*
X651377Y256640D01*
X653950Y259213D01*
X657311Y260605D01*
X676189Y260605D01*
X679550Y259213D01*
X682123Y256640D01*
X683515Y253279D01*
X683515Y249641D01*
X682123Y246280D01*
X679550Y243707D01*
X676189Y242315D01*
X657311Y242315D01*
X653950Y243707D01*
X651377Y246280D01*
X650943Y247328D01*
X650906Y247389D01*
X650876Y247455D01*
X650841Y247493D01*
X650814Y247537D01*
X650759Y247583D01*
X650710Y247636D01*
X650664Y247661D01*
X650624Y247694D01*
X650557Y247720D01*
X650494Y247754D01*
X650443Y247764D01*
X650395Y247782D01*
X650323Y247785D01*
X650252Y247798D01*
X650201Y247790D01*
X650149Y247793D01*
X650080Y247773D01*
X650009Y247762D01*
X649963Y247739D01*
X649913Y247724D01*
X649854Y247683D01*
X649790Y247651D01*
X649753Y247613D01*
X649711Y247584D01*
X649668Y247526D01*
X649618Y247475D01*
X649583Y247412D01*
X649564Y247386D01*
X649557Y247364D01*
X649537Y247328D01*
X649103Y246280D01*
X646530Y243707D01*
X643169Y242315D01*
X624291Y242315D01*
G37*
%LPD*%
%LPC*%
G36*
X624291Y293115D02*
X624291Y293115D01*
X620930Y294507D01*
X618357Y297080D01*
X616965Y300441D01*
X616965Y304079D01*
X618357Y307440D01*
X620930Y310013D01*
X624291Y311405D01*
X643169Y311405D01*
X646530Y310013D01*
X649103Y307440D01*
X649537Y306392D01*
X649574Y306331D01*
X649604Y306265D01*
X649639Y306227D01*
X649666Y306183D01*
X649721Y306137D01*
X649770Y306084D01*
X649816Y306059D01*
X649856Y306026D01*
X649923Y306000D01*
X649986Y305966D01*
X650037Y305956D01*
X650085Y305938D01*
X650157Y305935D01*
X650228Y305922D01*
X650279Y305930D01*
X650331Y305927D01*
X650400Y305947D01*
X650471Y305958D01*
X650517Y305981D01*
X650567Y305996D01*
X650626Y306037D01*
X650690Y306069D01*
X650727Y306107D01*
X650769Y306136D01*
X650812Y306194D01*
X650862Y306245D01*
X650897Y306308D01*
X650916Y306334D01*
X650923Y306356D01*
X650943Y306392D01*
X651377Y307440D01*
X653950Y310013D01*
X657311Y311405D01*
X676189Y311405D01*
X679550Y310013D01*
X682123Y307440D01*
X683515Y304079D01*
X683515Y300441D01*
X682123Y297080D01*
X679550Y294507D01*
X676189Y293115D01*
X657311Y293115D01*
X653950Y294507D01*
X651377Y297080D01*
X650943Y298128D01*
X650906Y298189D01*
X650876Y298255D01*
X650841Y298293D01*
X650814Y298337D01*
X650758Y298383D01*
X650710Y298436D01*
X650664Y298461D01*
X650624Y298494D01*
X650557Y298520D01*
X650494Y298554D01*
X650443Y298564D01*
X650395Y298582D01*
X650323Y298585D01*
X650252Y298598D01*
X650201Y298590D01*
X650149Y298593D01*
X650080Y298573D01*
X650009Y298562D01*
X649963Y298539D01*
X649913Y298524D01*
X649854Y298483D01*
X649790Y298451D01*
X649753Y298413D01*
X649711Y298384D01*
X649668Y298326D01*
X649618Y298275D01*
X649583Y298212D01*
X649564Y298186D01*
X649557Y298164D01*
X649537Y298128D01*
X649103Y297080D01*
X646530Y294507D01*
X643169Y293115D01*
X624291Y293115D01*
G37*
%LPD*%
%LPC*%
G36*
X624291Y343915D02*
X624291Y343915D01*
X620930Y345307D01*
X618357Y347880D01*
X616965Y351241D01*
X616965Y354879D01*
X618357Y358240D01*
X620930Y360813D01*
X624291Y362205D01*
X643169Y362205D01*
X646530Y360813D01*
X649103Y358240D01*
X649537Y357192D01*
X649574Y357131D01*
X649604Y357065D01*
X649639Y357027D01*
X649666Y356983D01*
X649721Y356937D01*
X649770Y356884D01*
X649816Y356859D01*
X649856Y356826D01*
X649923Y356800D01*
X649986Y356766D01*
X650037Y356756D01*
X650085Y356738D01*
X650157Y356735D01*
X650228Y356722D01*
X650279Y356730D01*
X650331Y356727D01*
X650400Y356747D01*
X650471Y356758D01*
X650517Y356781D01*
X650567Y356796D01*
X650626Y356837D01*
X650690Y356869D01*
X650727Y356907D01*
X650769Y356936D01*
X650812Y356994D01*
X650862Y357045D01*
X650897Y357108D01*
X650916Y357134D01*
X650923Y357156D01*
X650943Y357192D01*
X651377Y358240D01*
X653950Y360813D01*
X657311Y362205D01*
X676189Y362205D01*
X679550Y360813D01*
X682123Y358240D01*
X683515Y354879D01*
X683515Y351241D01*
X682123Y347880D01*
X679550Y345307D01*
X676189Y343915D01*
X657311Y343915D01*
X653950Y345307D01*
X651377Y347880D01*
X650943Y348928D01*
X650906Y348989D01*
X650876Y349055D01*
X650841Y349093D01*
X650814Y349137D01*
X650758Y349183D01*
X650710Y349236D01*
X650664Y349261D01*
X650624Y349294D01*
X650557Y349320D01*
X650494Y349354D01*
X650443Y349364D01*
X650395Y349382D01*
X650323Y349385D01*
X650252Y349398D01*
X650201Y349390D01*
X650149Y349393D01*
X650080Y349373D01*
X650009Y349362D01*
X649963Y349339D01*
X649913Y349324D01*
X649854Y349283D01*
X649790Y349251D01*
X649753Y349213D01*
X649711Y349184D01*
X649668Y349126D01*
X649618Y349075D01*
X649583Y349012D01*
X649564Y348986D01*
X649557Y348964D01*
X649537Y348928D01*
X649103Y347880D01*
X646530Y345307D01*
X643169Y343915D01*
X624291Y343915D01*
G37*
%LPD*%
%LPC*%
G36*
X238211Y39115D02*
X238211Y39115D01*
X234850Y40507D01*
X232277Y43080D01*
X230885Y46441D01*
X230885Y50079D01*
X232277Y53440D01*
X234850Y56013D01*
X238211Y57405D01*
X257089Y57405D01*
X260450Y56013D01*
X263023Y53440D01*
X263457Y52392D01*
X263494Y52331D01*
X263524Y52265D01*
X263559Y52227D01*
X263586Y52183D01*
X263642Y52137D01*
X263690Y52084D01*
X263736Y52059D01*
X263776Y52026D01*
X263843Y52000D01*
X263906Y51966D01*
X263957Y51956D01*
X264005Y51938D01*
X264077Y51935D01*
X264148Y51922D01*
X264199Y51930D01*
X264251Y51927D01*
X264320Y51947D01*
X264391Y51958D01*
X264437Y51981D01*
X264487Y51996D01*
X264546Y52037D01*
X264610Y52069D01*
X264647Y52107D01*
X264689Y52136D01*
X264732Y52194D01*
X264782Y52245D01*
X264817Y52308D01*
X264836Y52334D01*
X264843Y52356D01*
X264863Y52392D01*
X265297Y53440D01*
X267870Y56013D01*
X271231Y57405D01*
X290109Y57405D01*
X293470Y56013D01*
X296043Y53440D01*
X297435Y50079D01*
X297435Y46441D01*
X296043Y43080D01*
X293470Y40507D01*
X290109Y39115D01*
X271231Y39115D01*
X267870Y40507D01*
X265297Y43080D01*
X264863Y44128D01*
X264826Y44189D01*
X264796Y44255D01*
X264761Y44293D01*
X264734Y44337D01*
X264679Y44383D01*
X264630Y44436D01*
X264584Y44461D01*
X264544Y44494D01*
X264477Y44520D01*
X264414Y44554D01*
X264363Y44564D01*
X264315Y44582D01*
X264243Y44585D01*
X264172Y44598D01*
X264121Y44590D01*
X264069Y44593D01*
X264000Y44573D01*
X263929Y44562D01*
X263883Y44539D01*
X263833Y44524D01*
X263774Y44483D01*
X263710Y44451D01*
X263673Y44413D01*
X263631Y44384D01*
X263588Y44326D01*
X263538Y44275D01*
X263503Y44212D01*
X263484Y44186D01*
X263477Y44164D01*
X263457Y44128D01*
X263023Y43080D01*
X260450Y40507D01*
X257089Y39115D01*
X238211Y39115D01*
G37*
%LPD*%
%LPC*%
G36*
X238211Y115315D02*
X238211Y115315D01*
X234850Y116707D01*
X232277Y119280D01*
X230885Y122641D01*
X230885Y126279D01*
X232277Y129640D01*
X234850Y132213D01*
X238211Y133605D01*
X257089Y133605D01*
X260450Y132213D01*
X263023Y129640D01*
X263457Y128592D01*
X263494Y128531D01*
X263524Y128465D01*
X263559Y128427D01*
X263586Y128383D01*
X263642Y128337D01*
X263690Y128284D01*
X263736Y128259D01*
X263776Y128226D01*
X263843Y128200D01*
X263906Y128166D01*
X263957Y128156D01*
X264005Y128138D01*
X264077Y128135D01*
X264148Y128122D01*
X264199Y128130D01*
X264251Y128127D01*
X264320Y128147D01*
X264391Y128158D01*
X264437Y128181D01*
X264487Y128196D01*
X264546Y128237D01*
X264610Y128269D01*
X264647Y128307D01*
X264689Y128336D01*
X264732Y128394D01*
X264782Y128445D01*
X264817Y128508D01*
X264836Y128534D01*
X264843Y128556D01*
X264863Y128592D01*
X265297Y129640D01*
X267870Y132213D01*
X271231Y133605D01*
X290109Y133605D01*
X293470Y132213D01*
X296043Y129640D01*
X297435Y126279D01*
X297435Y122641D01*
X296043Y119280D01*
X293470Y116707D01*
X290109Y115315D01*
X271231Y115315D01*
X267870Y116707D01*
X265297Y119280D01*
X264863Y120328D01*
X264826Y120389D01*
X264796Y120455D01*
X264761Y120493D01*
X264734Y120537D01*
X264679Y120583D01*
X264630Y120636D01*
X264584Y120661D01*
X264544Y120694D01*
X264477Y120720D01*
X264414Y120754D01*
X264363Y120764D01*
X264315Y120782D01*
X264243Y120785D01*
X264172Y120798D01*
X264121Y120790D01*
X264069Y120793D01*
X264000Y120773D01*
X263929Y120762D01*
X263883Y120739D01*
X263833Y120724D01*
X263774Y120683D01*
X263710Y120651D01*
X263673Y120613D01*
X263631Y120584D01*
X263588Y120526D01*
X263538Y120475D01*
X263503Y120412D01*
X263484Y120386D01*
X263477Y120364D01*
X263457Y120328D01*
X263023Y119280D01*
X260450Y116707D01*
X257089Y115315D01*
X238211Y115315D01*
G37*
%LPD*%
%LPC*%
G36*
X624291Y216915D02*
X624291Y216915D01*
X620930Y218307D01*
X618357Y220880D01*
X616965Y224241D01*
X616965Y227879D01*
X618357Y231240D01*
X620930Y233813D01*
X624291Y235205D01*
X643169Y235205D01*
X646530Y233813D01*
X649103Y231240D01*
X649537Y230192D01*
X649574Y230131D01*
X649604Y230065D01*
X649639Y230027D01*
X649666Y229983D01*
X649722Y229937D01*
X649770Y229884D01*
X649816Y229859D01*
X649856Y229826D01*
X649923Y229800D01*
X649986Y229766D01*
X650037Y229756D01*
X650085Y229738D01*
X650157Y229735D01*
X650228Y229722D01*
X650279Y229730D01*
X650331Y229727D01*
X650400Y229747D01*
X650471Y229758D01*
X650517Y229781D01*
X650567Y229796D01*
X650626Y229837D01*
X650690Y229869D01*
X650727Y229907D01*
X650769Y229936D01*
X650812Y229994D01*
X650862Y230045D01*
X650897Y230108D01*
X650916Y230134D01*
X650923Y230156D01*
X650943Y230192D01*
X651377Y231240D01*
X653950Y233813D01*
X657311Y235205D01*
X676189Y235205D01*
X679550Y233813D01*
X682123Y231240D01*
X683515Y227879D01*
X683515Y224241D01*
X682123Y220880D01*
X679550Y218307D01*
X676189Y216915D01*
X657311Y216915D01*
X653950Y218307D01*
X651377Y220880D01*
X650943Y221928D01*
X650906Y221989D01*
X650876Y222055D01*
X650841Y222093D01*
X650814Y222137D01*
X650759Y222183D01*
X650710Y222236D01*
X650664Y222261D01*
X650624Y222294D01*
X650557Y222320D01*
X650494Y222354D01*
X650443Y222364D01*
X650395Y222382D01*
X650323Y222385D01*
X650252Y222398D01*
X650201Y222390D01*
X650149Y222393D01*
X650080Y222373D01*
X650009Y222362D01*
X649963Y222339D01*
X649913Y222324D01*
X649854Y222283D01*
X649790Y222251D01*
X649753Y222213D01*
X649711Y222184D01*
X649668Y222126D01*
X649618Y222075D01*
X649583Y222012D01*
X649564Y221986D01*
X649557Y221964D01*
X649537Y221928D01*
X649103Y220880D01*
X646530Y218307D01*
X643169Y216915D01*
X624291Y216915D01*
G37*
%LPD*%
%LPC*%
G36*
X624291Y115315D02*
X624291Y115315D01*
X620930Y116707D01*
X618357Y119280D01*
X616965Y122641D01*
X616965Y126279D01*
X618357Y129640D01*
X620930Y132213D01*
X624291Y133605D01*
X643169Y133605D01*
X646530Y132213D01*
X649103Y129640D01*
X649537Y128592D01*
X649574Y128531D01*
X649604Y128465D01*
X649639Y128427D01*
X649666Y128383D01*
X649722Y128337D01*
X649770Y128284D01*
X649816Y128259D01*
X649856Y128226D01*
X649923Y128200D01*
X649986Y128166D01*
X650037Y128156D01*
X650085Y128138D01*
X650157Y128135D01*
X650228Y128122D01*
X650279Y128130D01*
X650331Y128127D01*
X650400Y128147D01*
X650471Y128158D01*
X650517Y128181D01*
X650567Y128196D01*
X650626Y128237D01*
X650690Y128269D01*
X650727Y128307D01*
X650769Y128336D01*
X650812Y128394D01*
X650862Y128445D01*
X650897Y128508D01*
X650916Y128534D01*
X650923Y128556D01*
X650943Y128592D01*
X651377Y129640D01*
X653950Y132213D01*
X657311Y133605D01*
X676189Y133605D01*
X679550Y132213D01*
X682123Y129640D01*
X683515Y126279D01*
X683515Y122641D01*
X682123Y119280D01*
X679550Y116707D01*
X676189Y115315D01*
X657311Y115315D01*
X653950Y116707D01*
X651377Y119280D01*
X650943Y120328D01*
X650906Y120389D01*
X650876Y120455D01*
X650841Y120493D01*
X650814Y120537D01*
X650759Y120583D01*
X650710Y120636D01*
X650664Y120661D01*
X650624Y120694D01*
X650557Y120720D01*
X650494Y120754D01*
X650443Y120764D01*
X650395Y120782D01*
X650323Y120785D01*
X650252Y120798D01*
X650201Y120790D01*
X650149Y120793D01*
X650080Y120773D01*
X650009Y120762D01*
X649963Y120739D01*
X649913Y120724D01*
X649854Y120683D01*
X649790Y120651D01*
X649753Y120613D01*
X649711Y120584D01*
X649668Y120526D01*
X649618Y120475D01*
X649583Y120412D01*
X649564Y120386D01*
X649557Y120364D01*
X649537Y120328D01*
X649103Y119280D01*
X646530Y116707D01*
X643169Y115315D01*
X624291Y115315D01*
G37*
%LPD*%
%LPC*%
G36*
X624291Y318515D02*
X624291Y318515D01*
X620930Y319907D01*
X618357Y322480D01*
X616965Y325841D01*
X616965Y329479D01*
X618357Y332840D01*
X620930Y335413D01*
X624291Y336805D01*
X643169Y336805D01*
X646530Y335413D01*
X649103Y332840D01*
X649537Y331792D01*
X649574Y331731D01*
X649604Y331665D01*
X649639Y331627D01*
X649666Y331583D01*
X649721Y331537D01*
X649770Y331484D01*
X649816Y331459D01*
X649856Y331426D01*
X649923Y331400D01*
X649986Y331366D01*
X650037Y331356D01*
X650085Y331338D01*
X650157Y331335D01*
X650228Y331322D01*
X650279Y331330D01*
X650331Y331327D01*
X650400Y331347D01*
X650471Y331358D01*
X650517Y331381D01*
X650567Y331396D01*
X650626Y331437D01*
X650690Y331469D01*
X650727Y331507D01*
X650769Y331536D01*
X650812Y331594D01*
X650862Y331645D01*
X650897Y331708D01*
X650916Y331734D01*
X650923Y331756D01*
X650943Y331792D01*
X651377Y332840D01*
X653950Y335413D01*
X657311Y336805D01*
X676189Y336805D01*
X679550Y335413D01*
X682123Y332840D01*
X683515Y329479D01*
X683515Y325841D01*
X682123Y322480D01*
X679550Y319907D01*
X676189Y318515D01*
X657311Y318515D01*
X653950Y319907D01*
X651377Y322480D01*
X650943Y323528D01*
X650906Y323589D01*
X650876Y323655D01*
X650841Y323693D01*
X650814Y323737D01*
X650758Y323783D01*
X650710Y323836D01*
X650664Y323861D01*
X650624Y323894D01*
X650557Y323920D01*
X650494Y323954D01*
X650443Y323964D01*
X650395Y323982D01*
X650323Y323985D01*
X650252Y323998D01*
X650201Y323990D01*
X650149Y323993D01*
X650080Y323973D01*
X650009Y323962D01*
X649963Y323939D01*
X649913Y323924D01*
X649854Y323883D01*
X649790Y323851D01*
X649753Y323813D01*
X649711Y323784D01*
X649668Y323726D01*
X649618Y323675D01*
X649583Y323612D01*
X649564Y323586D01*
X649557Y323564D01*
X649537Y323528D01*
X649103Y322480D01*
X646530Y319907D01*
X643169Y318515D01*
X624291Y318515D01*
G37*
%LPD*%
%LPC*%
G36*
X624291Y39115D02*
X624291Y39115D01*
X620930Y40507D01*
X618357Y43080D01*
X616965Y46441D01*
X616965Y50079D01*
X618357Y53440D01*
X620930Y56013D01*
X624291Y57405D01*
X643169Y57405D01*
X646530Y56013D01*
X649103Y53440D01*
X649537Y52392D01*
X649574Y52331D01*
X649604Y52265D01*
X649639Y52227D01*
X649666Y52183D01*
X649722Y52137D01*
X649770Y52084D01*
X649816Y52059D01*
X649856Y52026D01*
X649923Y52000D01*
X649986Y51966D01*
X650037Y51956D01*
X650085Y51938D01*
X650157Y51935D01*
X650228Y51922D01*
X650279Y51930D01*
X650331Y51927D01*
X650400Y51947D01*
X650471Y51958D01*
X650517Y51981D01*
X650567Y51996D01*
X650626Y52037D01*
X650690Y52069D01*
X650727Y52107D01*
X650769Y52136D01*
X650812Y52194D01*
X650862Y52245D01*
X650897Y52308D01*
X650916Y52334D01*
X650923Y52356D01*
X650943Y52392D01*
X651377Y53440D01*
X653950Y56013D01*
X657311Y57405D01*
X676189Y57405D01*
X679550Y56013D01*
X682123Y53440D01*
X683515Y50079D01*
X683515Y46441D01*
X682123Y43080D01*
X679550Y40507D01*
X676189Y39115D01*
X657311Y39115D01*
X653950Y40507D01*
X651377Y43080D01*
X650943Y44128D01*
X650906Y44189D01*
X650876Y44255D01*
X650841Y44293D01*
X650814Y44337D01*
X650759Y44383D01*
X650710Y44436D01*
X650664Y44461D01*
X650624Y44494D01*
X650557Y44520D01*
X650494Y44554D01*
X650443Y44564D01*
X650395Y44582D01*
X650323Y44585D01*
X650252Y44598D01*
X650201Y44590D01*
X650149Y44593D01*
X650080Y44573D01*
X650009Y44562D01*
X649963Y44539D01*
X649913Y44524D01*
X649854Y44483D01*
X649790Y44451D01*
X649753Y44413D01*
X649711Y44384D01*
X649668Y44326D01*
X649618Y44275D01*
X649583Y44212D01*
X649564Y44186D01*
X649557Y44164D01*
X649537Y44128D01*
X649103Y43080D01*
X646530Y40507D01*
X643169Y39115D01*
X624291Y39115D01*
G37*
%LPD*%
%LPC*%
G36*
X624291Y267715D02*
X624291Y267715D01*
X620930Y269107D01*
X618357Y271680D01*
X616965Y275041D01*
X616965Y278679D01*
X618357Y282040D01*
X620930Y284613D01*
X624291Y286005D01*
X643169Y286005D01*
X646530Y284613D01*
X649103Y282040D01*
X649537Y280992D01*
X649574Y280931D01*
X649604Y280865D01*
X649639Y280827D01*
X649666Y280783D01*
X649721Y280737D01*
X649770Y280684D01*
X649816Y280659D01*
X649856Y280626D01*
X649923Y280600D01*
X649986Y280566D01*
X650037Y280556D01*
X650085Y280538D01*
X650157Y280535D01*
X650228Y280522D01*
X650279Y280530D01*
X650331Y280527D01*
X650400Y280547D01*
X650471Y280558D01*
X650517Y280581D01*
X650567Y280596D01*
X650626Y280637D01*
X650690Y280669D01*
X650727Y280707D01*
X650769Y280736D01*
X650812Y280794D01*
X650862Y280845D01*
X650897Y280908D01*
X650916Y280934D01*
X650923Y280956D01*
X650943Y280992D01*
X651377Y282040D01*
X653950Y284613D01*
X657311Y286005D01*
X676189Y286005D01*
X679550Y284613D01*
X682123Y282040D01*
X683515Y278679D01*
X683515Y275041D01*
X682123Y271680D01*
X679550Y269107D01*
X676189Y267715D01*
X657311Y267715D01*
X653950Y269107D01*
X651377Y271680D01*
X650943Y272728D01*
X650906Y272789D01*
X650876Y272855D01*
X650841Y272893D01*
X650814Y272937D01*
X650758Y272983D01*
X650710Y273036D01*
X650664Y273061D01*
X650624Y273094D01*
X650557Y273120D01*
X650494Y273154D01*
X650443Y273164D01*
X650395Y273182D01*
X650323Y273185D01*
X650252Y273198D01*
X650201Y273190D01*
X650149Y273193D01*
X650080Y273173D01*
X650009Y273162D01*
X649963Y273139D01*
X649913Y273124D01*
X649854Y273083D01*
X649790Y273051D01*
X649753Y273013D01*
X649711Y272984D01*
X649668Y272926D01*
X649618Y272875D01*
X649583Y272812D01*
X649564Y272786D01*
X649557Y272764D01*
X649537Y272728D01*
X649103Y271680D01*
X646530Y269107D01*
X643169Y267715D01*
X624291Y267715D01*
G37*
%LPD*%
%LPC*%
G36*
X624291Y191515D02*
X624291Y191515D01*
X620930Y192907D01*
X618357Y195480D01*
X616965Y198841D01*
X616965Y202479D01*
X618357Y205840D01*
X620930Y208413D01*
X624291Y209805D01*
X643169Y209805D01*
X646530Y208413D01*
X649103Y205840D01*
X649537Y204792D01*
X649574Y204731D01*
X649604Y204665D01*
X649639Y204627D01*
X649666Y204583D01*
X649722Y204537D01*
X649770Y204484D01*
X649816Y204459D01*
X649856Y204426D01*
X649923Y204400D01*
X649986Y204366D01*
X650037Y204356D01*
X650085Y204338D01*
X650157Y204335D01*
X650228Y204322D01*
X650279Y204330D01*
X650331Y204327D01*
X650400Y204347D01*
X650471Y204358D01*
X650517Y204381D01*
X650567Y204396D01*
X650626Y204437D01*
X650690Y204469D01*
X650727Y204507D01*
X650769Y204536D01*
X650812Y204594D01*
X650862Y204645D01*
X650897Y204708D01*
X650916Y204734D01*
X650923Y204756D01*
X650943Y204792D01*
X651377Y205840D01*
X653950Y208413D01*
X657311Y209805D01*
X676189Y209805D01*
X679550Y208413D01*
X682123Y205840D01*
X683515Y202479D01*
X683515Y198841D01*
X682123Y195480D01*
X679550Y192907D01*
X676189Y191515D01*
X657311Y191515D01*
X653950Y192907D01*
X651377Y195480D01*
X650943Y196528D01*
X650906Y196589D01*
X650876Y196655D01*
X650841Y196693D01*
X650814Y196737D01*
X650759Y196783D01*
X650710Y196836D01*
X650664Y196861D01*
X650624Y196894D01*
X650557Y196920D01*
X650494Y196954D01*
X650443Y196964D01*
X650395Y196982D01*
X650323Y196985D01*
X650252Y196998D01*
X650201Y196990D01*
X650149Y196993D01*
X650080Y196973D01*
X650009Y196962D01*
X649963Y196939D01*
X649913Y196924D01*
X649854Y196883D01*
X649790Y196851D01*
X649753Y196813D01*
X649711Y196784D01*
X649668Y196726D01*
X649618Y196675D01*
X649583Y196612D01*
X649564Y196586D01*
X649557Y196564D01*
X649537Y196528D01*
X649103Y195480D01*
X646530Y192907D01*
X643169Y191515D01*
X624291Y191515D01*
G37*
%LPD*%
%LPC*%
G36*
X89245Y643127D02*
X89245Y643127D01*
X82616Y645873D01*
X77543Y650946D01*
X74797Y657575D01*
X74797Y664749D01*
X77543Y671378D01*
X82616Y676451D01*
X89245Y679197D01*
X96419Y679197D01*
X103048Y676451D01*
X108121Y671378D01*
X110867Y664749D01*
X110867Y657575D01*
X108121Y650946D01*
X103048Y645873D01*
X96419Y643127D01*
X89245Y643127D01*
G37*
%LPD*%
%LPC*%
G36*
X89245Y763523D02*
X89245Y763523D01*
X82616Y766269D01*
X77543Y771342D01*
X74797Y777971D01*
X74797Y785145D01*
X77543Y791774D01*
X82616Y796847D01*
X89245Y799593D01*
X96419Y799593D01*
X103048Y796847D01*
X108121Y791774D01*
X110867Y785145D01*
X110867Y777971D01*
X108121Y771342D01*
X103048Y766269D01*
X96419Y763523D01*
X89245Y763523D01*
G37*
%LPD*%
%LPC*%
G36*
X66358Y860725D02*
X66358Y860725D01*
X62122Y862480D01*
X58880Y865722D01*
X57125Y869958D01*
X57125Y894542D01*
X58880Y898778D01*
X62122Y902020D01*
X66358Y903775D01*
X70942Y903775D01*
X75178Y902020D01*
X78420Y898778D01*
X80175Y894542D01*
X80175Y869958D01*
X78420Y865722D01*
X75178Y862480D01*
X70942Y860725D01*
X66358Y860725D01*
G37*
%LPD*%
%LPC*%
G36*
X129358Y860725D02*
X129358Y860725D01*
X125122Y862480D01*
X121880Y865722D01*
X120125Y869958D01*
X120125Y894542D01*
X121880Y898778D01*
X125122Y902020D01*
X129358Y903775D01*
X133942Y903775D01*
X138178Y902020D01*
X141420Y898778D01*
X143175Y894542D01*
X143175Y869958D01*
X141420Y865722D01*
X138178Y862480D01*
X133942Y860725D01*
X129358Y860725D01*
G37*
%LPD*%
%LPC*%
G36*
X160914Y928789D02*
X160914Y928789D01*
X155617Y930983D01*
X151563Y935037D01*
X149369Y940334D01*
X149369Y946066D01*
X151563Y951363D01*
X155617Y955417D01*
X160914Y957611D01*
X166646Y957611D01*
X171943Y955417D01*
X175997Y951363D01*
X178191Y946066D01*
X178191Y940334D01*
X175997Y935037D01*
X171943Y930983D01*
X166646Y928789D01*
X160914Y928789D01*
G37*
%LPD*%
%LPC*%
G36*
X122914Y928789D02*
X122914Y928789D01*
X117617Y930983D01*
X113563Y935037D01*
X111369Y940334D01*
X111369Y946066D01*
X113563Y951363D01*
X117617Y955417D01*
X122914Y957611D01*
X128646Y957611D01*
X133943Y955417D01*
X137997Y951363D01*
X140191Y946066D01*
X140191Y940334D01*
X137997Y935037D01*
X133943Y930983D01*
X128646Y928789D01*
X122914Y928789D01*
G37*
%LPD*%
%LPC*%
G36*
X287914Y928789D02*
X287914Y928789D01*
X282617Y930983D01*
X278563Y935037D01*
X276369Y940334D01*
X276369Y946066D01*
X278563Y951363D01*
X282617Y955417D01*
X287914Y957611D01*
X293646Y957611D01*
X298943Y955417D01*
X302997Y951363D01*
X305191Y946066D01*
X305191Y940334D01*
X302997Y935037D01*
X298943Y930983D01*
X293646Y928789D01*
X287914Y928789D01*
G37*
%LPD*%
%LPC*%
G36*
X249914Y928789D02*
X249914Y928789D01*
X244617Y930983D01*
X240563Y935037D01*
X238369Y940334D01*
X238369Y946066D01*
X240563Y951363D01*
X244617Y955417D01*
X249914Y957611D01*
X255646Y957611D01*
X260943Y955417D01*
X264997Y951363D01*
X267191Y946066D01*
X267191Y940334D01*
X264997Y935037D01*
X260943Y930983D01*
X255646Y928789D01*
X249914Y928789D01*
G37*
%LPD*%
%LPC*%
G36*
X118039Y723953D02*
X118039Y723953D01*
X114398Y725461D01*
X111611Y728248D01*
X110103Y731889D01*
X110103Y735831D01*
X111611Y739472D01*
X114398Y742259D01*
X118039Y743767D01*
X121981Y743767D01*
X125622Y742259D01*
X128409Y739472D01*
X129213Y737530D01*
X129251Y737469D01*
X129280Y737404D01*
X129315Y737365D01*
X129342Y737321D01*
X129398Y737275D01*
X129446Y737223D01*
X129492Y737198D01*
X129532Y737164D01*
X129599Y737139D01*
X129662Y737104D01*
X129713Y737095D01*
X129761Y737076D01*
X129833Y737073D01*
X129904Y737060D01*
X129955Y737068D01*
X130007Y737066D01*
X130076Y737086D01*
X130147Y737096D01*
X130193Y737120D01*
X130243Y737134D01*
X130302Y737175D01*
X130366Y737208D01*
X130403Y737245D01*
X130445Y737275D01*
X130488Y737332D01*
X130538Y737383D01*
X130573Y737446D01*
X130592Y737472D01*
X130599Y737494D01*
X130619Y737530D01*
X131423Y739472D01*
X134210Y742259D01*
X137851Y743767D01*
X141793Y743767D01*
X145434Y742259D01*
X148221Y739472D01*
X149729Y735831D01*
X149729Y731889D01*
X148221Y728248D01*
X145434Y725461D01*
X141793Y723953D01*
X137851Y723953D01*
X134210Y725461D01*
X131423Y728248D01*
X130619Y730190D01*
X130581Y730251D01*
X130552Y730316D01*
X130517Y730354D01*
X130490Y730399D01*
X130434Y730445D01*
X130386Y730497D01*
X130340Y730522D01*
X130300Y730556D01*
X130233Y730581D01*
X130170Y730616D01*
X130119Y730625D01*
X130071Y730644D01*
X129999Y730647D01*
X129928Y730660D01*
X129877Y730652D01*
X129825Y730654D01*
X129756Y730634D01*
X129685Y730624D01*
X129639Y730600D01*
X129589Y730586D01*
X129530Y730545D01*
X129466Y730512D01*
X129429Y730475D01*
X129387Y730445D01*
X129344Y730388D01*
X129294Y730337D01*
X129259Y730274D01*
X129240Y730248D01*
X129233Y730226D01*
X129213Y730190D01*
X128409Y728248D01*
X125622Y725461D01*
X121981Y723953D01*
X118039Y723953D01*
G37*
%LPD*%
%LPC*%
G36*
X240751Y713485D02*
X240751Y713485D01*
X237390Y714877D01*
X234817Y717450D01*
X233425Y720811D01*
X233425Y724449D01*
X234817Y727810D01*
X237390Y730383D01*
X240751Y731775D01*
X259629Y731775D01*
X262990Y730383D01*
X265563Y727810D01*
X266955Y724449D01*
X266955Y720811D01*
X265563Y717450D01*
X262990Y714877D01*
X259629Y713485D01*
X240751Y713485D01*
G37*
%LPD*%
%LPC*%
G36*
X240751Y688085D02*
X240751Y688085D01*
X237390Y689477D01*
X234817Y692050D01*
X233425Y695411D01*
X233425Y699049D01*
X234817Y702410D01*
X237390Y704983D01*
X240751Y706375D01*
X259629Y706375D01*
X262990Y704983D01*
X265563Y702410D01*
X266955Y699049D01*
X266955Y695411D01*
X265563Y692050D01*
X262990Y689477D01*
X259629Y688085D01*
X240751Y688085D01*
G37*
%LPD*%
%LPC*%
G36*
X810981Y173735D02*
X810981Y173735D01*
X807620Y175127D01*
X805047Y177700D01*
X803655Y181061D01*
X803655Y199939D01*
X805047Y203300D01*
X807620Y205873D01*
X810981Y207265D01*
X814619Y207265D01*
X817980Y205873D01*
X820553Y203300D01*
X821945Y199939D01*
X821945Y181061D01*
X820553Y177700D01*
X817980Y175127D01*
X814619Y173735D01*
X810981Y173735D01*
G37*
%LPD*%
%LPC*%
G36*
X785581Y173735D02*
X785581Y173735D01*
X782220Y175127D01*
X779647Y177700D01*
X778255Y181061D01*
X778255Y199939D01*
X779647Y203300D01*
X782220Y205873D01*
X785581Y207265D01*
X789219Y207265D01*
X792580Y205873D01*
X795153Y203300D01*
X796545Y199939D01*
X796545Y181061D01*
X795153Y177700D01*
X792580Y175127D01*
X789219Y173735D01*
X785581Y173735D01*
G37*
%LPD*%
%LPC*%
G36*
X760181Y173735D02*
X760181Y173735D01*
X756820Y175127D01*
X754247Y177700D01*
X752855Y181061D01*
X752855Y199939D01*
X754247Y203300D01*
X756820Y205873D01*
X760181Y207265D01*
X763819Y207265D01*
X767180Y205873D01*
X769753Y203300D01*
X771145Y199939D01*
X771145Y181061D01*
X769753Y177700D01*
X767180Y175127D01*
X763819Y173735D01*
X760181Y173735D01*
G37*
%LPD*%
%LPC*%
G36*
X785581Y237235D02*
X785581Y237235D01*
X782220Y238627D01*
X779647Y241200D01*
X778255Y244561D01*
X778255Y263439D01*
X779647Y266800D01*
X782220Y269373D01*
X785581Y270765D01*
X789219Y270765D01*
X792580Y269373D01*
X795153Y266800D01*
X796545Y263439D01*
X796545Y244561D01*
X795153Y241200D01*
X792580Y238627D01*
X789219Y237235D01*
X785581Y237235D01*
G37*
%LPD*%
%LPC*%
G36*
X308061Y872235D02*
X308061Y872235D01*
X304700Y873627D01*
X302127Y876200D01*
X300735Y879561D01*
X300735Y898439D01*
X302127Y901800D01*
X304700Y904373D01*
X308061Y905765D01*
X311699Y905765D01*
X315060Y904373D01*
X317633Y901800D01*
X319025Y898439D01*
X319025Y879561D01*
X317633Y876200D01*
X315060Y873627D01*
X311699Y872235D01*
X308061Y872235D01*
G37*
%LPD*%
%LPC*%
G36*
X282661Y872235D02*
X282661Y872235D01*
X279300Y873627D01*
X276727Y876200D01*
X275335Y879561D01*
X275335Y898439D01*
X276727Y901800D01*
X279300Y904373D01*
X282661Y905765D01*
X286299Y905765D01*
X289660Y904373D01*
X292233Y901800D01*
X293625Y898439D01*
X293625Y879561D01*
X292233Y876200D01*
X289660Y873627D01*
X286299Y872235D01*
X282661Y872235D01*
G37*
%LPD*%
%LPC*%
G36*
X760181Y237235D02*
X760181Y237235D01*
X756820Y238627D01*
X754247Y241200D01*
X752855Y244561D01*
X752855Y263439D01*
X754247Y266800D01*
X756820Y269373D01*
X760181Y270765D01*
X763819Y270765D01*
X767180Y269373D01*
X769753Y266800D01*
X771145Y263439D01*
X771145Y244561D01*
X769753Y241200D01*
X767180Y238627D01*
X763819Y237235D01*
X760181Y237235D01*
G37*
%LPD*%
%LPC*%
G36*
X760181Y300735D02*
X760181Y300735D01*
X756820Y302127D01*
X754247Y304700D01*
X752855Y308061D01*
X752855Y326939D01*
X754247Y330300D01*
X756820Y332873D01*
X760181Y334265D01*
X763819Y334265D01*
X767180Y332873D01*
X769753Y330300D01*
X771145Y326939D01*
X771145Y308061D01*
X769753Y304700D01*
X767180Y302127D01*
X763819Y300735D01*
X760181Y300735D01*
G37*
%LPD*%
%LPC*%
G36*
X785581Y300735D02*
X785581Y300735D01*
X782220Y302127D01*
X779647Y304700D01*
X778255Y308061D01*
X778255Y326939D01*
X779647Y330300D01*
X782220Y332873D01*
X785581Y334265D01*
X789219Y334265D01*
X792580Y332873D01*
X795153Y330300D01*
X796545Y326939D01*
X796545Y308061D01*
X795153Y304700D01*
X792580Y302127D01*
X789219Y300735D01*
X785581Y300735D01*
G37*
%LPD*%
%LPC*%
G36*
X810981Y300735D02*
X810981Y300735D01*
X807620Y302127D01*
X805047Y304700D01*
X803655Y308061D01*
X803655Y326939D01*
X805047Y330300D01*
X807620Y332873D01*
X810981Y334265D01*
X814619Y334265D01*
X817980Y332873D01*
X820553Y330300D01*
X821945Y326939D01*
X821945Y308061D01*
X820553Y304700D01*
X817980Y302127D01*
X814619Y300735D01*
X810981Y300735D01*
G37*
%LPD*%
%LPC*%
G36*
X810981Y237235D02*
X810981Y237235D01*
X807620Y238627D01*
X805047Y241200D01*
X803655Y244561D01*
X803655Y263439D01*
X805047Y266800D01*
X807620Y269373D01*
X810981Y270765D01*
X814619Y270765D01*
X817980Y269373D01*
X820553Y266800D01*
X821945Y263439D01*
X821945Y244561D01*
X820553Y241200D01*
X817980Y238627D01*
X814619Y237235D01*
X810981Y237235D01*
G37*
%LPD*%
%LPC*%
G36*
X667788Y940815D02*
X667788Y940815D01*
X666895Y941708D01*
X666895Y963292D01*
X667788Y964185D01*
X689372Y964185D01*
X690265Y963292D01*
X690265Y941708D01*
X689372Y940815D01*
X667788Y940815D01*
G37*
%LPD*%
%LPC*%
G36*
X528088Y940815D02*
X528088Y940815D01*
X527195Y941708D01*
X527195Y963292D01*
X528088Y964185D01*
X549672Y964185D01*
X550565Y963292D01*
X550565Y941708D01*
X549672Y940815D01*
X528088Y940815D01*
G37*
%LPD*%
%LPC*%
G36*
X388388Y940815D02*
X388388Y940815D01*
X387495Y941708D01*
X387495Y963292D01*
X388388Y964185D01*
X409972Y964185D01*
X410865Y963292D01*
X410865Y941708D01*
X409972Y940815D01*
X388388Y940815D01*
G37*
%LPD*%
%LPC*%
G36*
X794134Y433939D02*
X794134Y433939D01*
X793241Y434832D01*
X793241Y456416D01*
X794134Y457309D01*
X815718Y457309D01*
X816611Y456416D01*
X816611Y434832D01*
X815718Y433939D01*
X794134Y433939D01*
G37*
%LPD*%
%LPC*%
G36*
X726256Y940815D02*
X726256Y940815D01*
X721961Y942594D01*
X718674Y945881D01*
X716895Y950176D01*
X716895Y954824D01*
X718674Y959119D01*
X721961Y962406D01*
X726256Y964185D01*
X730904Y964185D01*
X735199Y962406D01*
X738486Y959119D01*
X740265Y954824D01*
X740265Y950176D01*
X738486Y945881D01*
X735199Y942594D01*
X730904Y940815D01*
X726256Y940815D01*
G37*
%LPD*%
%LPC*%
G36*
X586556Y940815D02*
X586556Y940815D01*
X582261Y942594D01*
X578974Y945881D01*
X577195Y950176D01*
X577195Y954824D01*
X578974Y959119D01*
X582261Y962406D01*
X586556Y964185D01*
X591204Y964185D01*
X595499Y962406D01*
X598786Y959119D01*
X600565Y954824D01*
X600565Y950176D01*
X598786Y945881D01*
X595499Y942594D01*
X591204Y940815D01*
X586556Y940815D01*
G37*
%LPD*%
%LPC*%
G36*
X446856Y940815D02*
X446856Y940815D01*
X442561Y942594D01*
X439274Y945881D01*
X437495Y950176D01*
X437495Y954824D01*
X439274Y959119D01*
X442561Y962406D01*
X446856Y964185D01*
X451504Y964185D01*
X455799Y962406D01*
X459086Y959119D01*
X460865Y954824D01*
X460865Y950176D01*
X459086Y945881D01*
X455799Y942594D01*
X451504Y940815D01*
X446856Y940815D01*
G37*
%LPD*%
%LPC*%
G36*
X802602Y383939D02*
X802602Y383939D01*
X798307Y385718D01*
X795020Y389005D01*
X793241Y393300D01*
X793241Y397948D01*
X795020Y402243D01*
X798307Y405530D01*
X802602Y407309D01*
X807250Y407309D01*
X811545Y405530D01*
X814832Y402243D01*
X816611Y397948D01*
X816611Y393300D01*
X814832Y389005D01*
X811545Y385718D01*
X807250Y383939D01*
X802602Y383939D01*
G37*
%LPD*%
%LPC*%
G36*
X31149Y43941D02*
X31149Y43941D01*
X28161Y45179D01*
X25875Y47465D01*
X24637Y50453D01*
X24637Y53687D01*
X25875Y56675D01*
X28161Y58961D01*
X31149Y60199D01*
X47591Y60199D01*
X50579Y58961D01*
X52865Y56675D01*
X54103Y53687D01*
X54103Y50453D01*
X52865Y47465D01*
X50579Y45179D01*
X47591Y43941D01*
X31149Y43941D01*
G37*
%LPD*%
%LPC*%
G36*
X31149Y94741D02*
X31149Y94741D01*
X28161Y95979D01*
X25875Y98265D01*
X24637Y101253D01*
X24637Y104487D01*
X25875Y107475D01*
X28161Y109761D01*
X31149Y110999D01*
X47591Y110999D01*
X50579Y109761D01*
X52865Y107475D01*
X54103Y104487D01*
X54103Y101253D01*
X52865Y98265D01*
X50579Y95979D01*
X47591Y94741D01*
X31149Y94741D01*
G37*
%LPD*%
%LPC*%
G36*
X31149Y145541D02*
X31149Y145541D01*
X28161Y146779D01*
X25875Y149065D01*
X24637Y152053D01*
X24637Y155287D01*
X25875Y158275D01*
X28161Y160561D01*
X31149Y161799D01*
X47591Y161799D01*
X50579Y160561D01*
X52865Y158275D01*
X54103Y155287D01*
X54103Y152053D01*
X52865Y149065D01*
X50579Y146779D01*
X47591Y145541D01*
X31149Y145541D01*
G37*
%LPD*%
%LPC*%
G36*
X31149Y18541D02*
X31149Y18541D01*
X28161Y19779D01*
X25875Y22065D01*
X24637Y25053D01*
X24637Y28287D01*
X25875Y31275D01*
X28161Y33561D01*
X31149Y34799D01*
X47591Y34799D01*
X50579Y33561D01*
X52865Y31275D01*
X54103Y28287D01*
X54103Y25053D01*
X52865Y22065D01*
X50579Y19779D01*
X47591Y18541D01*
X31149Y18541D01*
G37*
%LPD*%
%LPC*%
G36*
X31149Y120141D02*
X31149Y120141D01*
X28161Y121379D01*
X25875Y123665D01*
X24637Y126653D01*
X24637Y129887D01*
X25875Y132875D01*
X28161Y135161D01*
X31149Y136399D01*
X47591Y136399D01*
X50579Y135161D01*
X52865Y132875D01*
X54103Y129887D01*
X54103Y126653D01*
X52865Y123665D01*
X50579Y121379D01*
X47591Y120141D01*
X31149Y120141D01*
G37*
%LPD*%
%LPC*%
G36*
X31149Y69341D02*
X31149Y69341D01*
X28161Y70579D01*
X25875Y72865D01*
X24637Y75853D01*
X24637Y79087D01*
X25875Y82075D01*
X28161Y84361D01*
X31149Y85599D01*
X47591Y85599D01*
X50579Y84361D01*
X52865Y82075D01*
X54103Y79087D01*
X54103Y75853D01*
X52865Y72865D01*
X50579Y70579D01*
X47591Y69341D01*
X31149Y69341D01*
G37*
%LPD*%
%LPC*%
G36*
X374126Y294195D02*
X374126Y294195D01*
X371162Y295423D01*
X368893Y297692D01*
X367665Y300656D01*
X367665Y303864D01*
X368893Y306828D01*
X371162Y309097D01*
X374126Y310325D01*
X390414Y310325D01*
X393378Y309097D01*
X395647Y306828D01*
X396875Y303864D01*
X396875Y300656D01*
X395647Y297692D01*
X393378Y295423D01*
X390414Y294195D01*
X374126Y294195D01*
G37*
%LPD*%
%LPC*%
G36*
X526526Y90995D02*
X526526Y90995D01*
X523562Y92223D01*
X521293Y94492D01*
X520065Y97456D01*
X520065Y100664D01*
X521293Y103628D01*
X523562Y105897D01*
X526526Y107125D01*
X542814Y107125D01*
X545778Y105897D01*
X548047Y103628D01*
X549275Y100664D01*
X549275Y97456D01*
X548047Y94492D01*
X545778Y92223D01*
X542814Y90995D01*
X526526Y90995D01*
G37*
%LPD*%
%LPC*%
G36*
X526526Y167195D02*
X526526Y167195D01*
X523562Y168423D01*
X521293Y170692D01*
X520065Y173656D01*
X520065Y176864D01*
X521293Y179828D01*
X523562Y182097D01*
X526526Y183325D01*
X542814Y183325D01*
X545778Y182097D01*
X548047Y179828D01*
X549275Y176864D01*
X549275Y173656D01*
X548047Y170692D01*
X545778Y168423D01*
X542814Y167195D01*
X526526Y167195D01*
G37*
%LPD*%
%LPC*%
G36*
X526526Y116395D02*
X526526Y116395D01*
X523562Y117623D01*
X521293Y119892D01*
X520065Y122856D01*
X520065Y126064D01*
X521293Y129028D01*
X523562Y131297D01*
X526526Y132525D01*
X542814Y132525D01*
X545778Y131297D01*
X548047Y129028D01*
X549275Y126064D01*
X549275Y122856D01*
X548047Y119892D01*
X545778Y117623D01*
X542814Y116395D01*
X526526Y116395D01*
G37*
%LPD*%
%LPC*%
G36*
X374126Y65595D02*
X374126Y65595D01*
X371162Y66823D01*
X368893Y69092D01*
X367665Y72056D01*
X367665Y75264D01*
X368893Y78228D01*
X371162Y80497D01*
X374126Y81725D01*
X390414Y81725D01*
X393378Y80497D01*
X395647Y78228D01*
X396875Y75264D01*
X396875Y72056D01*
X395647Y69092D01*
X393378Y66823D01*
X390414Y65595D01*
X374126Y65595D01*
G37*
%LPD*%
%LPC*%
G36*
X526526Y65595D02*
X526526Y65595D01*
X523562Y66823D01*
X521293Y69092D01*
X520065Y72056D01*
X520065Y75264D01*
X521293Y78228D01*
X523562Y80497D01*
X526526Y81725D01*
X542814Y81725D01*
X545778Y80497D01*
X548047Y78228D01*
X549275Y75264D01*
X549275Y72056D01*
X548047Y69092D01*
X545778Y66823D01*
X542814Y65595D01*
X526526Y65595D01*
G37*
%LPD*%
%LPC*%
G36*
X374126Y116395D02*
X374126Y116395D01*
X371162Y117623D01*
X368893Y119892D01*
X367665Y122856D01*
X367665Y126064D01*
X368893Y129028D01*
X371162Y131297D01*
X374126Y132525D01*
X390414Y132525D01*
X393378Y131297D01*
X395647Y129028D01*
X396875Y126064D01*
X396875Y122856D01*
X395647Y119892D01*
X393378Y117623D01*
X390414Y116395D01*
X374126Y116395D01*
G37*
%LPD*%
%LPC*%
G36*
X374126Y141795D02*
X374126Y141795D01*
X371162Y143023D01*
X368893Y145292D01*
X367665Y148256D01*
X367665Y151464D01*
X368893Y154428D01*
X371162Y156697D01*
X374126Y157925D01*
X390414Y157925D01*
X393378Y156697D01*
X395647Y154428D01*
X396875Y151464D01*
X396875Y148256D01*
X395647Y145292D01*
X393378Y143023D01*
X390414Y141795D01*
X374126Y141795D01*
G37*
%LPD*%
%LPC*%
G36*
X374126Y319595D02*
X374126Y319595D01*
X371162Y320823D01*
X368893Y323092D01*
X367665Y326056D01*
X367665Y329264D01*
X368893Y332228D01*
X371162Y334497D01*
X374126Y335725D01*
X390414Y335725D01*
X393378Y334497D01*
X395647Y332228D01*
X396875Y329264D01*
X396875Y326056D01*
X395647Y323092D01*
X393378Y320823D01*
X390414Y319595D01*
X374126Y319595D01*
G37*
%LPD*%
%LPC*%
G36*
X374126Y344995D02*
X374126Y344995D01*
X371162Y346223D01*
X368893Y348492D01*
X367665Y351456D01*
X367665Y354664D01*
X368893Y357628D01*
X371162Y359897D01*
X374126Y361125D01*
X390414Y361125D01*
X393378Y359897D01*
X395647Y357628D01*
X396875Y354664D01*
X396875Y351456D01*
X395647Y348492D01*
X393378Y346223D01*
X390414Y344995D01*
X374126Y344995D01*
G37*
%LPD*%
%LPC*%
G36*
X374126Y395795D02*
X374126Y395795D01*
X371162Y397023D01*
X368893Y399292D01*
X367665Y402256D01*
X367665Y405464D01*
X368893Y408428D01*
X371162Y410697D01*
X374126Y411925D01*
X390414Y411925D01*
X393378Y410697D01*
X395647Y408428D01*
X396875Y405464D01*
X396875Y402256D01*
X395647Y399292D01*
X393378Y397023D01*
X390414Y395795D01*
X374126Y395795D01*
G37*
%LPD*%
%LPC*%
G36*
X374126Y217995D02*
X374126Y217995D01*
X371162Y219223D01*
X368893Y221492D01*
X367665Y224456D01*
X367665Y227664D01*
X368893Y230628D01*
X371162Y232897D01*
X374126Y234125D01*
X390414Y234125D01*
X393378Y232897D01*
X395647Y230628D01*
X396875Y227664D01*
X396875Y224456D01*
X395647Y221492D01*
X393378Y219223D01*
X390414Y217995D01*
X374126Y217995D01*
G37*
%LPD*%
%LPC*%
G36*
X526526Y217995D02*
X526526Y217995D01*
X523562Y219223D01*
X521293Y221492D01*
X520065Y224456D01*
X520065Y227664D01*
X521293Y230628D01*
X523562Y232897D01*
X526526Y234125D01*
X542814Y234125D01*
X545778Y232897D01*
X548047Y230628D01*
X549275Y227664D01*
X549275Y224456D01*
X548047Y221492D01*
X545778Y219223D01*
X542814Y217995D01*
X526526Y217995D01*
G37*
%LPD*%
%LPC*%
G36*
X374126Y370395D02*
X374126Y370395D01*
X371162Y371623D01*
X368893Y373892D01*
X367665Y376856D01*
X367665Y380064D01*
X368893Y383028D01*
X371162Y385297D01*
X374126Y386525D01*
X390414Y386525D01*
X393378Y385297D01*
X395647Y383028D01*
X396875Y380064D01*
X396875Y376856D01*
X395647Y373892D01*
X393378Y371623D01*
X390414Y370395D01*
X374126Y370395D01*
G37*
%LPD*%
%LPC*%
G36*
X526526Y344995D02*
X526526Y344995D01*
X523562Y346223D01*
X521293Y348492D01*
X520065Y351456D01*
X520065Y354664D01*
X521293Y357628D01*
X523562Y359897D01*
X526526Y361125D01*
X542814Y361125D01*
X545778Y359897D01*
X548047Y357628D01*
X549275Y354664D01*
X549275Y351456D01*
X548047Y348492D01*
X545778Y346223D01*
X542814Y344995D01*
X526526Y344995D01*
G37*
%LPD*%
%LPC*%
G36*
X526526Y395795D02*
X526526Y395795D01*
X523562Y397023D01*
X521293Y399292D01*
X520065Y402256D01*
X520065Y405464D01*
X521293Y408428D01*
X523562Y410697D01*
X526526Y411925D01*
X542814Y411925D01*
X545778Y410697D01*
X548047Y408428D01*
X549275Y405464D01*
X549275Y402256D01*
X548047Y399292D01*
X545778Y397023D01*
X542814Y395795D01*
X526526Y395795D01*
G37*
%LPD*%
%LPC*%
G36*
X374126Y192595D02*
X374126Y192595D01*
X371162Y193823D01*
X368893Y196092D01*
X367665Y199056D01*
X367665Y202264D01*
X368893Y205228D01*
X371162Y207497D01*
X374126Y208725D01*
X390414Y208725D01*
X393378Y207497D01*
X395647Y205228D01*
X396875Y202264D01*
X396875Y199056D01*
X395647Y196092D01*
X393378Y193823D01*
X390414Y192595D01*
X374126Y192595D01*
G37*
%LPD*%
%LPC*%
G36*
X526526Y192595D02*
X526526Y192595D01*
X523562Y193823D01*
X521293Y196092D01*
X520065Y199056D01*
X520065Y202264D01*
X521293Y205228D01*
X523562Y207497D01*
X526526Y208725D01*
X542814Y208725D01*
X545778Y207497D01*
X548047Y205228D01*
X549275Y202264D01*
X549275Y199056D01*
X548047Y196092D01*
X545778Y193823D01*
X542814Y192595D01*
X526526Y192595D01*
G37*
%LPD*%
%LPC*%
G36*
X374126Y40195D02*
X374126Y40195D01*
X371162Y41423D01*
X368893Y43692D01*
X367665Y46656D01*
X367665Y49864D01*
X368893Y52828D01*
X371162Y55097D01*
X374126Y56325D01*
X390414Y56325D01*
X393378Y55097D01*
X395647Y52828D01*
X396875Y49864D01*
X396875Y46656D01*
X395647Y43692D01*
X393378Y41423D01*
X390414Y40195D01*
X374126Y40195D01*
G37*
%LPD*%
%LPC*%
G36*
X374126Y243395D02*
X374126Y243395D01*
X371162Y244623D01*
X368893Y246892D01*
X367665Y249856D01*
X367665Y253064D01*
X368893Y256028D01*
X371162Y258297D01*
X374126Y259525D01*
X390414Y259525D01*
X393378Y258297D01*
X395647Y256028D01*
X396875Y253064D01*
X396875Y249856D01*
X395647Y246892D01*
X393378Y244623D01*
X390414Y243395D01*
X374126Y243395D01*
G37*
%LPD*%
%LPC*%
G36*
X526526Y243395D02*
X526526Y243395D01*
X523562Y244623D01*
X521293Y246892D01*
X520065Y249856D01*
X520065Y253064D01*
X521293Y256028D01*
X523562Y258297D01*
X526526Y259525D01*
X542814Y259525D01*
X545778Y258297D01*
X548047Y256028D01*
X549275Y253064D01*
X549275Y249856D01*
X548047Y246892D01*
X545778Y244623D01*
X542814Y243395D01*
X526526Y243395D01*
G37*
%LPD*%
%LPC*%
G36*
X526526Y294195D02*
X526526Y294195D01*
X523562Y295423D01*
X521293Y297692D01*
X520065Y300656D01*
X520065Y303864D01*
X521293Y306828D01*
X523562Y309097D01*
X526526Y310325D01*
X542814Y310325D01*
X545778Y309097D01*
X548047Y306828D01*
X549275Y303864D01*
X549275Y300656D01*
X548047Y297692D01*
X545778Y295423D01*
X542814Y294195D01*
X526526Y294195D01*
G37*
%LPD*%
%LPC*%
G36*
X526526Y141795D02*
X526526Y141795D01*
X523562Y143023D01*
X521293Y145292D01*
X520065Y148256D01*
X520065Y151464D01*
X521293Y154428D01*
X523562Y156697D01*
X526526Y157925D01*
X542814Y157925D01*
X545778Y156697D01*
X548047Y154428D01*
X549275Y151464D01*
X549275Y148256D01*
X548047Y145292D01*
X545778Y143023D01*
X542814Y141795D01*
X526526Y141795D01*
G37*
%LPD*%
%LPC*%
G36*
X374126Y90995D02*
X374126Y90995D01*
X371162Y92223D01*
X368893Y94492D01*
X367665Y97456D01*
X367665Y100664D01*
X368893Y103628D01*
X371162Y105897D01*
X374126Y107125D01*
X390414Y107125D01*
X393378Y105897D01*
X395647Y103628D01*
X396875Y100664D01*
X396875Y97456D01*
X395647Y94492D01*
X393378Y92223D01*
X390414Y90995D01*
X374126Y90995D01*
G37*
%LPD*%
%LPC*%
G36*
X374126Y268795D02*
X374126Y268795D01*
X371162Y270023D01*
X368893Y272292D01*
X367665Y275256D01*
X367665Y278464D01*
X368893Y281428D01*
X371162Y283697D01*
X374126Y284925D01*
X390414Y284925D01*
X393378Y283697D01*
X395647Y281428D01*
X396875Y278464D01*
X396875Y275256D01*
X395647Y272292D01*
X393378Y270023D01*
X390414Y268795D01*
X374126Y268795D01*
G37*
%LPD*%
%LPC*%
G36*
X526526Y268795D02*
X526526Y268795D01*
X523562Y270023D01*
X521293Y272292D01*
X520065Y275256D01*
X520065Y278464D01*
X521293Y281428D01*
X523562Y283697D01*
X526526Y284925D01*
X542814Y284925D01*
X545778Y283697D01*
X548047Y281428D01*
X549275Y278464D01*
X549275Y275256D01*
X548047Y272292D01*
X545778Y270023D01*
X542814Y268795D01*
X526526Y268795D01*
G37*
%LPD*%
%LPC*%
G36*
X526526Y319595D02*
X526526Y319595D01*
X523562Y320823D01*
X521293Y323092D01*
X520065Y326056D01*
X520065Y329264D01*
X521293Y332228D01*
X523562Y334497D01*
X526526Y335725D01*
X542814Y335725D01*
X545778Y334497D01*
X548047Y332228D01*
X549275Y329264D01*
X549275Y326056D01*
X548047Y323092D01*
X545778Y320823D01*
X542814Y319595D01*
X526526Y319595D01*
G37*
%LPD*%
%LPC*%
G36*
X86727Y65277D02*
X86727Y65277D01*
X82713Y66940D01*
X79640Y70013D01*
X77977Y74027D01*
X77977Y78373D01*
X79640Y82387D01*
X82713Y85460D01*
X86727Y87123D01*
X91073Y87123D01*
X95087Y85460D01*
X98160Y82387D01*
X99823Y78373D01*
X99823Y74027D01*
X98160Y70013D01*
X95087Y66940D01*
X91073Y65277D01*
X86727Y65277D01*
G37*
%LPD*%
%LPC*%
G36*
X86727Y39877D02*
X86727Y39877D01*
X82713Y41540D01*
X79640Y44613D01*
X77977Y48627D01*
X77977Y52973D01*
X79640Y56987D01*
X82713Y60060D01*
X86727Y61723D01*
X91073Y61723D01*
X95087Y60060D01*
X98160Y56987D01*
X99823Y52973D01*
X99823Y48627D01*
X98160Y44613D01*
X95087Y41540D01*
X91073Y39877D01*
X86727Y39877D01*
G37*
%LPD*%
%LPC*%
G36*
X86727Y14477D02*
X86727Y14477D01*
X82713Y16140D01*
X79640Y19213D01*
X77977Y23227D01*
X77977Y27573D01*
X79640Y31587D01*
X82713Y34660D01*
X86727Y36323D01*
X91073Y36323D01*
X95087Y34660D01*
X98160Y31587D01*
X99823Y27573D01*
X99823Y23227D01*
X98160Y19213D01*
X95087Y16140D01*
X91073Y14477D01*
X86727Y14477D01*
G37*
%LPD*%
%LPC*%
G36*
X715885Y865377D02*
X715885Y865377D01*
X711871Y867040D01*
X708798Y870113D01*
X707135Y874127D01*
X707135Y878473D01*
X708798Y882487D01*
X711871Y885560D01*
X715885Y887223D01*
X720231Y887223D01*
X724245Y885560D01*
X727318Y882487D01*
X728981Y878473D01*
X728981Y874127D01*
X727318Y870113D01*
X724245Y867040D01*
X720231Y865377D01*
X715885Y865377D01*
G37*
%LPD*%
%LPC*%
G36*
X686929Y865377D02*
X686929Y865377D01*
X682915Y867040D01*
X679842Y870113D01*
X678179Y874127D01*
X678179Y878473D01*
X679842Y882487D01*
X682915Y885560D01*
X686929Y887223D01*
X691275Y887223D01*
X695289Y885560D01*
X698362Y882487D01*
X700025Y878473D01*
X700025Y874127D01*
X698362Y870113D01*
X695289Y867040D01*
X691275Y865377D01*
X686929Y865377D01*
G37*
%LPD*%
%LPC*%
G36*
X576185Y865377D02*
X576185Y865377D01*
X572171Y867040D01*
X569098Y870113D01*
X567435Y874127D01*
X567435Y878473D01*
X569098Y882487D01*
X572171Y885560D01*
X576185Y887223D01*
X580531Y887223D01*
X584545Y885560D01*
X587618Y882487D01*
X589281Y878473D01*
X589281Y874127D01*
X587618Y870113D01*
X584545Y867040D01*
X580531Y865377D01*
X576185Y865377D01*
G37*
%LPD*%
%LPC*%
G36*
X547229Y865377D02*
X547229Y865377D01*
X543215Y867040D01*
X540142Y870113D01*
X538479Y874127D01*
X538479Y878473D01*
X540142Y882487D01*
X543215Y885560D01*
X547229Y887223D01*
X551575Y887223D01*
X555589Y885560D01*
X558662Y882487D01*
X560325Y878473D01*
X560325Y874127D01*
X558662Y870113D01*
X555589Y867040D01*
X551575Y865377D01*
X547229Y865377D01*
G37*
%LPD*%
%LPC*%
G36*
X407529Y865377D02*
X407529Y865377D01*
X403515Y867040D01*
X400442Y870113D01*
X398779Y874127D01*
X398779Y878473D01*
X400442Y882487D01*
X403515Y885560D01*
X407529Y887223D01*
X411875Y887223D01*
X415889Y885560D01*
X418962Y882487D01*
X420625Y878473D01*
X420625Y874127D01*
X418962Y870113D01*
X415889Y867040D01*
X411875Y865377D01*
X407529Y865377D01*
G37*
%LPD*%
%LPC*%
G36*
X98157Y429767D02*
X98157Y429767D01*
X94143Y431430D01*
X91070Y434503D01*
X89407Y438517D01*
X89407Y442863D01*
X91070Y446877D01*
X94143Y449950D01*
X98157Y451613D01*
X102503Y451613D01*
X106517Y449950D01*
X109590Y446877D01*
X111253Y442863D01*
X111253Y438517D01*
X109590Y434503D01*
X106517Y431430D01*
X102503Y429767D01*
X98157Y429767D01*
G37*
%LPD*%
%LPC*%
G36*
X725537Y427735D02*
X725537Y427735D01*
X721523Y429398D01*
X718450Y432471D01*
X716787Y436485D01*
X716787Y440831D01*
X718450Y444845D01*
X721523Y447918D01*
X725537Y449581D01*
X729883Y449581D01*
X733897Y447918D01*
X736970Y444845D01*
X738633Y440831D01*
X738633Y436485D01*
X736970Y432471D01*
X733897Y429398D01*
X729883Y427735D01*
X725537Y427735D01*
G37*
%LPD*%
%LPC*%
G36*
X98157Y404367D02*
X98157Y404367D01*
X94143Y406030D01*
X91070Y409103D01*
X89407Y413117D01*
X89407Y417463D01*
X91070Y421477D01*
X94143Y424550D01*
X98157Y426213D01*
X102503Y426213D01*
X106517Y424550D01*
X109590Y421477D01*
X111253Y417463D01*
X111253Y413117D01*
X109590Y409103D01*
X106517Y406030D01*
X102503Y404367D01*
X98157Y404367D01*
G37*
%LPD*%
%LPC*%
G36*
X725537Y398779D02*
X725537Y398779D01*
X721523Y400442D01*
X718450Y403515D01*
X716787Y407529D01*
X716787Y411875D01*
X718450Y415889D01*
X721523Y418962D01*
X725537Y420625D01*
X729883Y420625D01*
X733897Y418962D01*
X736970Y415889D01*
X738633Y411875D01*
X738633Y407529D01*
X736970Y403515D01*
X733897Y400442D01*
X729883Y398779D01*
X725537Y398779D01*
G37*
%LPD*%
%LPC*%
G36*
X98157Y378967D02*
X98157Y378967D01*
X94143Y380630D01*
X91070Y383703D01*
X89407Y387717D01*
X89407Y392063D01*
X91070Y396077D01*
X94143Y399150D01*
X98157Y400813D01*
X102503Y400813D01*
X106517Y399150D01*
X109590Y396077D01*
X111253Y392063D01*
X111253Y387717D01*
X109590Y383703D01*
X106517Y380630D01*
X102503Y378967D01*
X98157Y378967D01*
G37*
%LPD*%
%LPC*%
G36*
X436485Y865377D02*
X436485Y865377D01*
X432471Y867040D01*
X429398Y870113D01*
X427735Y874127D01*
X427735Y878473D01*
X429398Y882487D01*
X432471Y885560D01*
X436485Y887223D01*
X440831Y887223D01*
X444845Y885560D01*
X447918Y882487D01*
X449581Y878473D01*
X449581Y874127D01*
X447918Y870113D01*
X444845Y867040D01*
X440831Y865377D01*
X436485Y865377D01*
G37*
%LPD*%
%LPC*%
G36*
X98157Y353567D02*
X98157Y353567D01*
X94143Y355230D01*
X91070Y358303D01*
X89407Y362317D01*
X89407Y366663D01*
X91070Y370677D01*
X94143Y373750D01*
X98157Y375413D01*
X102503Y375413D01*
X106517Y373750D01*
X109590Y370677D01*
X111253Y366663D01*
X111253Y362317D01*
X109590Y358303D01*
X106517Y355230D01*
X102503Y353567D01*
X98157Y353567D01*
G37*
%LPD*%
%LPC*%
G36*
X87997Y204977D02*
X87997Y204977D01*
X83983Y206640D01*
X80910Y209713D01*
X79247Y213727D01*
X79247Y218073D01*
X80910Y222087D01*
X83983Y225160D01*
X87997Y226823D01*
X92343Y226823D01*
X96357Y225160D01*
X99430Y222087D01*
X101093Y218073D01*
X101093Y213727D01*
X99430Y209713D01*
X96357Y206640D01*
X92343Y204977D01*
X87997Y204977D01*
G37*
%LPD*%
%LPC*%
G36*
X85457Y179577D02*
X85457Y179577D01*
X81443Y181240D01*
X78370Y184313D01*
X76707Y188327D01*
X76707Y192673D01*
X78370Y196687D01*
X81443Y199760D01*
X85457Y201423D01*
X89803Y201423D01*
X93817Y199760D01*
X96890Y196687D01*
X98553Y192673D01*
X98553Y188327D01*
X96890Y184313D01*
X93817Y181240D01*
X89803Y179577D01*
X85457Y179577D01*
G37*
%LPD*%
%LPC*%
G36*
X87997Y154177D02*
X87997Y154177D01*
X83983Y155840D01*
X80910Y158913D01*
X79247Y162927D01*
X79247Y167273D01*
X80910Y171287D01*
X83983Y174360D01*
X87997Y176023D01*
X92343Y176023D01*
X96357Y174360D01*
X99430Y171287D01*
X101093Y167273D01*
X101093Y162927D01*
X99430Y158913D01*
X96357Y155840D01*
X92343Y154177D01*
X87997Y154177D01*
G37*
%LPD*%
%LPC*%
G36*
X86727Y116077D02*
X86727Y116077D01*
X82713Y117740D01*
X79640Y120813D01*
X77977Y124827D01*
X77977Y129173D01*
X79640Y133187D01*
X82713Y136260D01*
X86727Y137923D01*
X91073Y137923D01*
X95087Y136260D01*
X98160Y133187D01*
X99823Y129173D01*
X99823Y124827D01*
X98160Y120813D01*
X95087Y117740D01*
X91073Y116077D01*
X86727Y116077D01*
G37*
%LPD*%
%LPC*%
G36*
X86727Y90677D02*
X86727Y90677D01*
X82713Y92340D01*
X79640Y95413D01*
X77977Y99427D01*
X77977Y103773D01*
X79640Y107787D01*
X82713Y110860D01*
X86727Y112523D01*
X91073Y112523D01*
X95087Y110860D01*
X98160Y107787D01*
X99823Y103773D01*
X99823Y99427D01*
X98160Y95413D01*
X95087Y92340D01*
X91073Y90677D01*
X86727Y90677D01*
G37*
%LPD*%
%LPC*%
G36*
X37425Y354710D02*
X37425Y354710D01*
X33830Y356199D01*
X31079Y358950D01*
X29590Y362545D01*
X29590Y366435D01*
X31079Y370030D01*
X33830Y372781D01*
X37425Y374270D01*
X41315Y374270D01*
X44910Y372781D01*
X47661Y370030D01*
X49150Y366435D01*
X49150Y362545D01*
X47661Y358950D01*
X44910Y356199D01*
X41315Y354710D01*
X37425Y354710D01*
G37*
%LPD*%
%LPC*%
G36*
X37425Y405510D02*
X37425Y405510D01*
X33830Y406999D01*
X31079Y409750D01*
X29590Y413345D01*
X29590Y417235D01*
X31079Y420830D01*
X33830Y423581D01*
X37425Y425070D01*
X41315Y425070D01*
X44910Y423581D01*
X47661Y420830D01*
X49150Y417235D01*
X49150Y413345D01*
X47661Y409750D01*
X44910Y406999D01*
X41315Y405510D01*
X37425Y405510D01*
G37*
%LPD*%
%LPC*%
G36*
X37425Y430910D02*
X37425Y430910D01*
X33830Y432399D01*
X31079Y435150D01*
X29590Y438745D01*
X29590Y442635D01*
X31079Y446230D01*
X33830Y448981D01*
X37425Y450470D01*
X41315Y450470D01*
X44910Y448981D01*
X47661Y446230D01*
X49150Y442635D01*
X49150Y438745D01*
X47661Y435150D01*
X44910Y432399D01*
X41315Y430910D01*
X37425Y430910D01*
G37*
%LPD*%
%LPC*%
G36*
X37425Y303910D02*
X37425Y303910D01*
X33830Y305399D01*
X31079Y308150D01*
X29590Y311745D01*
X29590Y315635D01*
X31079Y319230D01*
X33830Y321981D01*
X37425Y323470D01*
X41315Y323470D01*
X44910Y321981D01*
X47661Y319230D01*
X49150Y315635D01*
X49150Y311745D01*
X47661Y308150D01*
X44910Y305399D01*
X41315Y303910D01*
X37425Y303910D01*
G37*
%LPD*%
%LPC*%
G36*
X199985Y522350D02*
X199985Y522350D01*
X196390Y523839D01*
X193639Y526590D01*
X192150Y530185D01*
X192150Y534075D01*
X193639Y537670D01*
X196390Y540421D01*
X199985Y541910D01*
X203875Y541910D01*
X207470Y540421D01*
X210221Y537670D01*
X211710Y534075D01*
X211710Y530185D01*
X210221Y526590D01*
X207470Y523839D01*
X203875Y522350D01*
X199985Y522350D01*
G37*
%LPD*%
%LPC*%
G36*
X37425Y329310D02*
X37425Y329310D01*
X33830Y330799D01*
X31079Y333550D01*
X29590Y337145D01*
X29590Y341035D01*
X31079Y344630D01*
X33830Y347381D01*
X37425Y348870D01*
X41315Y348870D01*
X44910Y347381D01*
X47661Y344630D01*
X49150Y341035D01*
X49150Y337145D01*
X47661Y333550D01*
X44910Y330799D01*
X41315Y329310D01*
X37425Y329310D01*
G37*
%LPD*%
%LPC*%
G36*
X37425Y380110D02*
X37425Y380110D01*
X33830Y381599D01*
X31079Y384350D01*
X29590Y387945D01*
X29590Y391835D01*
X31079Y395430D01*
X33830Y398181D01*
X37425Y399670D01*
X41315Y399670D01*
X44910Y398181D01*
X47661Y395430D01*
X49150Y391835D01*
X49150Y387945D01*
X47661Y384350D01*
X44910Y381599D01*
X41315Y380110D01*
X37425Y380110D01*
G37*
%LPD*%
%LPC*%
G36*
X199985Y496950D02*
X199985Y496950D01*
X196390Y498439D01*
X193639Y501190D01*
X192150Y504785D01*
X192150Y508675D01*
X193639Y512270D01*
X196390Y515021D01*
X199985Y516510D01*
X203875Y516510D01*
X207470Y515021D01*
X210221Y512270D01*
X211710Y508675D01*
X211710Y504785D01*
X210221Y501190D01*
X207470Y498439D01*
X203875Y496950D01*
X199985Y496950D01*
G37*
%LPD*%
%LPC*%
G36*
X194955Y848994D02*
X194955Y848994D01*
X191454Y850444D01*
X188774Y853124D01*
X187324Y856625D01*
X187324Y860415D01*
X188774Y863916D01*
X191454Y866596D01*
X194955Y868046D01*
X198745Y868046D01*
X202246Y866596D01*
X204926Y863916D01*
X206376Y860415D01*
X206376Y856625D01*
X204926Y853124D01*
X202246Y850444D01*
X198745Y848994D01*
X194955Y848994D01*
G37*
%LPD*%
%LPC*%
G36*
X635253Y379983D02*
X635253Y379983D01*
X635253Y388621D01*
X642150Y388621D01*
X643729Y388371D01*
X645250Y387876D01*
X646675Y387150D01*
X647969Y386210D01*
X649100Y385079D01*
X649624Y384358D01*
X649635Y384347D01*
X649643Y384333D01*
X649723Y384261D01*
X649799Y384185D01*
X649813Y384178D01*
X649825Y384167D01*
X649923Y384124D01*
X650020Y384077D01*
X650036Y384075D01*
X650050Y384068D01*
X650157Y384059D01*
X650264Y384045D01*
X650279Y384048D01*
X650295Y384046D01*
X650400Y384071D01*
X650505Y384092D01*
X650519Y384100D01*
X650534Y384104D01*
X650625Y384161D01*
X650719Y384214D01*
X650729Y384226D01*
X650743Y384234D01*
X650856Y384358D01*
X651380Y385079D01*
X652511Y386210D01*
X653805Y387150D01*
X655230Y387876D01*
X656751Y388371D01*
X658330Y388621D01*
X665227Y388621D01*
X665227Y379983D01*
X635253Y379983D01*
G37*
%LPD*%
%LPC*%
G36*
X635253Y368299D02*
X635253Y368299D01*
X635253Y376937D01*
X665227Y376937D01*
X665227Y368299D01*
X658330Y368299D01*
X656751Y368549D01*
X655230Y369044D01*
X653805Y369770D01*
X652511Y370710D01*
X651380Y371841D01*
X650856Y372562D01*
X650844Y372573D01*
X650837Y372587D01*
X650757Y372659D01*
X650681Y372735D01*
X650667Y372742D01*
X650655Y372753D01*
X650557Y372796D01*
X650460Y372843D01*
X650444Y372845D01*
X650430Y372852D01*
X650323Y372861D01*
X650216Y372875D01*
X650201Y372872D01*
X650185Y372874D01*
X650080Y372849D01*
X649975Y372828D01*
X649961Y372820D01*
X649946Y372816D01*
X649854Y372759D01*
X649761Y372706D01*
X649751Y372694D01*
X649737Y372686D01*
X649624Y372562D01*
X649100Y371841D01*
X647969Y370710D01*
X646675Y369770D01*
X645250Y369044D01*
X643729Y368549D01*
X642150Y368299D01*
X635253Y368299D01*
G37*
%LPD*%
%LPC*%
G36*
X456866Y408495D02*
X456866Y408495D01*
X453902Y409723D01*
X451633Y411992D01*
X450405Y414956D01*
X450405Y418164D01*
X451633Y421128D01*
X453902Y423397D01*
X456866Y424625D01*
X460074Y424625D01*
X463038Y423397D01*
X465307Y421128D01*
X466535Y418164D01*
X466535Y414956D01*
X465307Y411992D01*
X463038Y409723D01*
X460074Y408495D01*
X456866Y408495D01*
G37*
%LPD*%
%LPC*%
G36*
X431466Y408495D02*
X431466Y408495D01*
X428502Y409723D01*
X426233Y411992D01*
X425005Y414956D01*
X425005Y418164D01*
X426233Y421128D01*
X428502Y423397D01*
X431466Y424625D01*
X434674Y424625D01*
X437638Y423397D01*
X439907Y421128D01*
X441135Y418164D01*
X441135Y414956D01*
X439907Y411992D01*
X437638Y409723D01*
X434674Y408495D01*
X431466Y408495D01*
G37*
%LPD*%
%LPC*%
G36*
X482266Y408495D02*
X482266Y408495D01*
X479302Y409723D01*
X477033Y411992D01*
X475805Y414956D01*
X475805Y418164D01*
X477033Y421128D01*
X479302Y423397D01*
X482266Y424625D01*
X485474Y424625D01*
X488438Y423397D01*
X490707Y421128D01*
X491935Y418164D01*
X491935Y414956D01*
X490707Y411992D01*
X488438Y409723D01*
X485474Y408495D01*
X482266Y408495D01*
G37*
%LPD*%
%LPC*%
G36*
X482266Y383095D02*
X482266Y383095D01*
X479302Y384323D01*
X477033Y386592D01*
X475805Y389556D01*
X475805Y392764D01*
X477033Y395728D01*
X479302Y397997D01*
X482266Y399225D01*
X485474Y399225D01*
X488438Y397997D01*
X490707Y395728D01*
X491935Y392764D01*
X491935Y389556D01*
X490707Y386592D01*
X488438Y384323D01*
X485474Y383095D01*
X482266Y383095D01*
G37*
%LPD*%
%LPC*%
G36*
X456866Y383095D02*
X456866Y383095D01*
X453902Y384323D01*
X451633Y386592D01*
X450405Y389556D01*
X450405Y392764D01*
X451633Y395728D01*
X453902Y397997D01*
X456866Y399225D01*
X460074Y399225D01*
X463038Y397997D01*
X465307Y395728D01*
X466535Y392764D01*
X466535Y389556D01*
X465307Y386592D01*
X463038Y384323D01*
X460074Y383095D01*
X456866Y383095D01*
G37*
%LPD*%
%LPC*%
G36*
X103173Y833773D02*
X103173Y833773D01*
X103173Y844791D01*
X112637Y844791D01*
X114587Y844482D01*
X116464Y843872D01*
X118223Y842976D01*
X119820Y841816D01*
X121216Y840420D01*
X122376Y838823D01*
X123272Y837064D01*
X123882Y835187D01*
X124106Y833773D01*
X103173Y833773D01*
G37*
%LPD*%
%LPC*%
G36*
X79194Y833773D02*
X79194Y833773D01*
X79418Y835187D01*
X80028Y837064D01*
X80924Y838823D01*
X82084Y840420D01*
X83480Y841816D01*
X85077Y842976D01*
X86836Y843872D01*
X88713Y844482D01*
X90663Y844791D01*
X100127Y844791D01*
X100127Y833773D01*
X79194Y833773D01*
G37*
%LPD*%
%LPC*%
G36*
X103173Y819709D02*
X103173Y819709D01*
X103173Y830727D01*
X124106Y830727D01*
X123882Y829313D01*
X123272Y827436D01*
X122376Y825677D01*
X121216Y824080D01*
X119820Y822684D01*
X118223Y821524D01*
X116464Y820628D01*
X114587Y820018D01*
X112637Y819709D01*
X103173Y819709D01*
G37*
%LPD*%
%LPC*%
G36*
X90663Y819709D02*
X90663Y819709D01*
X88713Y820018D01*
X86836Y820628D01*
X85077Y821524D01*
X83480Y822684D01*
X82084Y824080D01*
X80924Y825677D01*
X80028Y827436D01*
X79418Y829313D01*
X79194Y830727D01*
X100127Y830727D01*
X100127Y819709D01*
X90663Y819709D01*
G37*
%LPD*%
%LPC*%
G36*
X788923Y128523D02*
X788923Y128523D01*
X788923Y144666D01*
X789779Y144531D01*
X791300Y144036D01*
X792725Y143310D01*
X794019Y142370D01*
X795150Y141239D01*
X796090Y139945D01*
X796816Y138520D01*
X797311Y136999D01*
X797561Y135420D01*
X797561Y128523D01*
X788923Y128523D01*
G37*
%LPD*%
%LPC*%
G36*
X763523Y128523D02*
X763523Y128523D01*
X763523Y144666D01*
X764379Y144531D01*
X765900Y144036D01*
X767325Y143310D01*
X768619Y142370D01*
X769750Y141239D01*
X770690Y139945D01*
X771416Y138520D01*
X771911Y136999D01*
X772161Y135420D01*
X772161Y128523D01*
X763523Y128523D01*
G37*
%LPD*%
%LPC*%
G36*
X738123Y128523D02*
X738123Y128523D01*
X738123Y144666D01*
X738979Y144531D01*
X740500Y144036D01*
X741925Y143310D01*
X743219Y142370D01*
X744350Y141239D01*
X745290Y139945D01*
X746016Y138520D01*
X746511Y136999D01*
X746761Y135420D01*
X746761Y128523D01*
X738123Y128523D01*
G37*
%LPD*%
%LPC*%
G36*
X814323Y128523D02*
X814323Y128523D01*
X814323Y144666D01*
X815179Y144531D01*
X816700Y144036D01*
X818125Y143310D01*
X819419Y142370D01*
X820550Y141239D01*
X821490Y139945D01*
X822216Y138520D01*
X822711Y136999D01*
X822961Y135420D01*
X822961Y128523D01*
X814323Y128523D01*
G37*
%LPD*%
%LPC*%
G36*
X668273Y379983D02*
X668273Y379983D01*
X668273Y388621D01*
X675170Y388621D01*
X676749Y388371D01*
X678270Y387876D01*
X679695Y387150D01*
X680989Y386210D01*
X682120Y385079D01*
X683060Y383785D01*
X683786Y382360D01*
X684281Y380839D01*
X684416Y379983D01*
X668273Y379983D01*
G37*
%LPD*%
%LPC*%
G36*
X616064Y379983D02*
X616064Y379983D01*
X616199Y380839D01*
X616694Y382360D01*
X617420Y383785D01*
X618360Y385079D01*
X619491Y386210D01*
X620785Y387150D01*
X622210Y387876D01*
X623731Y388371D01*
X625310Y388621D01*
X632207Y388621D01*
X632207Y379983D01*
X616064Y379983D01*
G37*
%LPD*%
%LPC*%
G36*
X788923Y125477D02*
X788923Y125477D01*
X797561Y125477D01*
X797561Y118580D01*
X797311Y117001D01*
X796816Y115480D01*
X796090Y114055D01*
X795150Y112761D01*
X794019Y111630D01*
X792725Y110690D01*
X791300Y109964D01*
X789779Y109469D01*
X788923Y109334D01*
X788923Y125477D01*
G37*
%LPD*%
%LPC*%
G36*
X763523Y125477D02*
X763523Y125477D01*
X772161Y125477D01*
X772161Y118580D01*
X771911Y117001D01*
X771416Y115480D01*
X770690Y114055D01*
X769750Y112761D01*
X768619Y111630D01*
X767325Y110690D01*
X765900Y109964D01*
X764379Y109469D01*
X763523Y109334D01*
X763523Y125477D01*
G37*
%LPD*%
%LPC*%
G36*
X738123Y125477D02*
X738123Y125477D01*
X746761Y125477D01*
X746761Y118580D01*
X746511Y117001D01*
X746016Y115480D01*
X745290Y114055D01*
X744350Y112761D01*
X743219Y111630D01*
X741925Y110690D01*
X740500Y109964D01*
X738979Y109469D01*
X738123Y109334D01*
X738123Y125477D01*
G37*
%LPD*%
%LPC*%
G36*
X814323Y125477D02*
X814323Y125477D01*
X822961Y125477D01*
X822961Y118580D01*
X822711Y117001D01*
X822216Y115480D01*
X821490Y114055D01*
X820550Y112761D01*
X819419Y111630D01*
X818125Y110690D01*
X816700Y109964D01*
X815179Y109469D01*
X814323Y109334D01*
X814323Y125477D01*
G37*
%LPD*%
%LPC*%
G36*
X802639Y128523D02*
X802639Y128523D01*
X802639Y135420D01*
X802889Y136999D01*
X803384Y138520D01*
X804110Y139945D01*
X805050Y141239D01*
X806181Y142370D01*
X807475Y143310D01*
X808900Y144036D01*
X810421Y144531D01*
X811277Y144666D01*
X811277Y128523D01*
X802639Y128523D01*
G37*
%LPD*%
%LPC*%
G36*
X777239Y128523D02*
X777239Y128523D01*
X777239Y135420D01*
X777489Y136999D01*
X777984Y138520D01*
X778710Y139945D01*
X779650Y141239D01*
X780781Y142370D01*
X782075Y143310D01*
X783500Y144036D01*
X785021Y144531D01*
X785877Y144666D01*
X785877Y128523D01*
X777239Y128523D01*
G37*
%LPD*%
%LPC*%
G36*
X751839Y128523D02*
X751839Y128523D01*
X751839Y135420D01*
X752089Y136999D01*
X752584Y138520D01*
X753310Y139945D01*
X754250Y141239D01*
X755381Y142370D01*
X756675Y143310D01*
X758100Y144036D01*
X759621Y144531D01*
X760477Y144666D01*
X760477Y128523D01*
X751839Y128523D01*
G37*
%LPD*%
%LPC*%
G36*
X668273Y368299D02*
X668273Y368299D01*
X668273Y376937D01*
X684416Y376937D01*
X684281Y376081D01*
X683786Y374560D01*
X683060Y373135D01*
X682120Y371841D01*
X680989Y370710D01*
X679695Y369770D01*
X678270Y369044D01*
X676749Y368549D01*
X675170Y368299D01*
X668273Y368299D01*
G37*
%LPD*%
%LPC*%
G36*
X785021Y109469D02*
X785021Y109469D01*
X783500Y109964D01*
X782075Y110690D01*
X780781Y111630D01*
X779650Y112761D01*
X778710Y114055D01*
X777984Y115480D01*
X777489Y117001D01*
X777239Y118580D01*
X777239Y125477D01*
X785877Y125477D01*
X785877Y109334D01*
X785021Y109469D01*
G37*
%LPD*%
%LPC*%
G36*
X625310Y368299D02*
X625310Y368299D01*
X623731Y368549D01*
X622210Y369044D01*
X620785Y369770D01*
X619491Y370710D01*
X618360Y371841D01*
X617420Y373135D01*
X616694Y374560D01*
X616199Y376081D01*
X616064Y376937D01*
X632207Y376937D01*
X632207Y368299D01*
X625310Y368299D01*
G37*
%LPD*%
%LPC*%
G36*
X759621Y109469D02*
X759621Y109469D01*
X758100Y109964D01*
X756675Y110690D01*
X755381Y111630D01*
X754250Y112761D01*
X753310Y114055D01*
X752584Y115480D01*
X752089Y117001D01*
X751839Y118580D01*
X751839Y125477D01*
X760477Y125477D01*
X760477Y109334D01*
X759621Y109469D01*
G37*
%LPD*%
%LPC*%
G36*
X734221Y109469D02*
X734221Y109469D01*
X732700Y109964D01*
X731275Y110690D01*
X729981Y111630D01*
X728850Y112761D01*
X727910Y114055D01*
X727184Y115480D01*
X726689Y117001D01*
X726439Y118580D01*
X726439Y125477D01*
X735077Y125477D01*
X735077Y109334D01*
X734221Y109469D01*
G37*
%LPD*%
%LPC*%
G36*
X810421Y109469D02*
X810421Y109469D01*
X808900Y109964D01*
X807475Y110690D01*
X806181Y111630D01*
X805050Y112761D01*
X804110Y114055D01*
X803384Y115480D01*
X802889Y117001D01*
X802639Y118580D01*
X802639Y125477D01*
X811277Y125477D01*
X811277Y109334D01*
X810421Y109469D01*
G37*
%LPD*%
%LPC*%
G36*
X40893Y180593D02*
X40893Y180593D01*
X40893Y188215D01*
X46875Y188215D01*
X48641Y187863D01*
X50306Y187174D01*
X51804Y186173D01*
X53077Y184900D01*
X54078Y183402D01*
X54767Y181737D01*
X54995Y180593D01*
X40893Y180593D01*
G37*
%LPD*%
%LPC*%
G36*
X23745Y180593D02*
X23745Y180593D01*
X23973Y181737D01*
X24662Y183402D01*
X25663Y184900D01*
X26936Y186173D01*
X28434Y187174D01*
X30099Y187863D01*
X31865Y188215D01*
X37847Y188215D01*
X37847Y180593D01*
X23745Y180593D01*
G37*
%LPD*%
%LPC*%
G36*
X40893Y169925D02*
X40893Y169925D01*
X40893Y177547D01*
X54995Y177547D01*
X54767Y176403D01*
X54078Y174738D01*
X53077Y173240D01*
X51804Y171967D01*
X50306Y170966D01*
X48641Y170277D01*
X46875Y169925D01*
X40893Y169925D01*
G37*
%LPD*%
%LPC*%
G36*
X31865Y169925D02*
X31865Y169925D01*
X30099Y170277D01*
X28434Y170966D01*
X26936Y171967D01*
X25663Y173240D01*
X24662Y174738D01*
X23973Y176403D01*
X23745Y177547D01*
X37847Y177547D01*
X37847Y169925D01*
X31865Y169925D01*
G37*
%LPD*%
%LPC*%
G36*
X536193Y379983D02*
X536193Y379983D01*
X536193Y387541D01*
X542104Y387541D01*
X543859Y387192D01*
X545511Y386507D01*
X546999Y385513D01*
X548263Y384249D01*
X549257Y382761D01*
X549942Y381109D01*
X550166Y379983D01*
X536193Y379983D01*
G37*
%LPD*%
%LPC*%
G36*
X519174Y379983D02*
X519174Y379983D01*
X519398Y381109D01*
X520083Y382761D01*
X521077Y384249D01*
X522341Y385513D01*
X523829Y386507D01*
X525481Y387192D01*
X527236Y387541D01*
X533147Y387541D01*
X533147Y379983D01*
X519174Y379983D01*
G37*
%LPD*%
%LPC*%
G36*
X536193Y369379D02*
X536193Y369379D01*
X536193Y376937D01*
X550166Y376937D01*
X549942Y375811D01*
X549257Y374159D01*
X548263Y372671D01*
X546999Y371407D01*
X545511Y370413D01*
X543859Y369728D01*
X542104Y369379D01*
X536193Y369379D01*
G37*
%LPD*%
%LPC*%
G36*
X527236Y369379D02*
X527236Y369379D01*
X525481Y369728D01*
X523829Y370413D01*
X522341Y371407D01*
X521077Y372671D01*
X520083Y374159D01*
X519398Y375811D01*
X519174Y376937D01*
X533147Y376937D01*
X533147Y369379D01*
X527236Y369379D01*
G37*
%LPD*%
%LPC*%
G36*
X216534Y508253D02*
X216534Y508253D01*
X216534Y515319D01*
X216707Y515966D01*
X217042Y516545D01*
X217515Y517018D01*
X218094Y517353D01*
X218741Y517526D01*
X225807Y517526D01*
X225807Y508253D01*
X216534Y508253D01*
G37*
%LPD*%
%LPC*%
G36*
X218741Y495934D02*
X218741Y495934D01*
X218094Y496107D01*
X217515Y496442D01*
X217042Y496915D01*
X216707Y497494D01*
X216534Y498140D01*
X216534Y505207D01*
X225807Y505207D01*
X225807Y495934D01*
X218741Y495934D01*
G37*
%LPD*%
%LPC*%
G36*
X109192Y710383D02*
X109192Y710383D01*
X109356Y711418D01*
X109888Y713053D01*
X110668Y714585D01*
X111679Y715976D01*
X112894Y717191D01*
X114285Y718202D01*
X115817Y718982D01*
X117452Y719514D01*
X118487Y719678D01*
X118487Y710383D01*
X109192Y710383D01*
G37*
%LPD*%
%LPC*%
G36*
X117452Y698206D02*
X117452Y698206D01*
X115817Y698738D01*
X114285Y699518D01*
X112894Y700529D01*
X111679Y701744D01*
X110668Y703135D01*
X109888Y704667D01*
X109356Y706302D01*
X109192Y707337D01*
X118487Y707337D01*
X118487Y698042D01*
X117452Y698206D01*
G37*
%LPD*%
%LPC*%
G36*
X255523Y840993D02*
X255523Y840993D01*
X255523Y850012D01*
X258367Y850012D01*
X264542Y843837D01*
X264542Y840993D01*
X255523Y840993D01*
G37*
%LPD*%
%LPC*%
G36*
X198373Y895603D02*
X198373Y895603D01*
X198373Y904622D01*
X201217Y904622D01*
X207392Y898447D01*
X207392Y895603D01*
X198373Y895603D01*
G37*
%LPD*%
%LPC*%
G36*
X198373Y805433D02*
X198373Y805433D01*
X198373Y814452D01*
X201217Y814452D01*
X207392Y808277D01*
X207392Y805433D01*
X198373Y805433D01*
G37*
%LPD*%
%LPC*%
G36*
X186308Y895603D02*
X186308Y895603D01*
X186308Y898447D01*
X192483Y904622D01*
X195327Y904622D01*
X195327Y895603D01*
X186308Y895603D01*
G37*
%LPD*%
%LPC*%
G36*
X243458Y840993D02*
X243458Y840993D01*
X243458Y843837D01*
X249633Y850012D01*
X252477Y850012D01*
X252477Y840993D01*
X243458Y840993D01*
G37*
%LPD*%
%LPC*%
G36*
X198373Y793368D02*
X198373Y793368D01*
X198373Y802387D01*
X207392Y802387D01*
X207392Y799543D01*
X201217Y793368D01*
X198373Y793368D01*
G37*
%LPD*%
%LPC*%
G36*
X186308Y805433D02*
X186308Y805433D01*
X186308Y808277D01*
X192483Y814452D01*
X195327Y814452D01*
X195327Y805433D01*
X186308Y805433D01*
G37*
%LPD*%
%LPC*%
G36*
X198373Y883538D02*
X198373Y883538D01*
X198373Y892557D01*
X207392Y892557D01*
X207392Y889713D01*
X201217Y883538D01*
X198373Y883538D01*
G37*
%LPD*%
%LPC*%
G36*
X255523Y828928D02*
X255523Y828928D01*
X255523Y837947D01*
X264542Y837947D01*
X264542Y835103D01*
X258367Y828928D01*
X255523Y828928D01*
G37*
%LPD*%
%LPC*%
G36*
X192483Y883538D02*
X192483Y883538D01*
X186308Y889713D01*
X186308Y892557D01*
X195327Y892557D01*
X195327Y883538D01*
X192483Y883538D01*
G37*
%LPD*%
%LPC*%
G36*
X192483Y793368D02*
X192483Y793368D01*
X186308Y799543D01*
X186308Y802387D01*
X195327Y802387D01*
X195327Y793368D01*
X192483Y793368D01*
G37*
%LPD*%
%LPC*%
G36*
X249633Y828928D02*
X249633Y828928D01*
X243458Y835103D01*
X243458Y837947D01*
X252477Y837947D01*
X252477Y828928D01*
X249633Y828928D01*
G37*
%LPD*%
%LPC*%
G36*
X40893Y289813D02*
X40893Y289813D01*
X40893Y298979D01*
X41898Y298820D01*
X43514Y298295D01*
X45028Y297523D01*
X46403Y296524D01*
X47604Y295323D01*
X48603Y293948D01*
X49375Y292434D01*
X49900Y290818D01*
X50059Y289813D01*
X40893Y289813D01*
G37*
%LPD*%
%LPC*%
G36*
X28681Y289813D02*
X28681Y289813D01*
X28840Y290818D01*
X29365Y292434D01*
X30137Y293948D01*
X31136Y295323D01*
X32337Y296524D01*
X33712Y297523D01*
X35226Y298295D01*
X36842Y298820D01*
X37847Y298979D01*
X37847Y289813D01*
X28681Y289813D01*
G37*
%LPD*%
%LPC*%
G36*
X36842Y277760D02*
X36842Y277760D01*
X35226Y278285D01*
X33712Y279057D01*
X32337Y280056D01*
X31136Y281257D01*
X30137Y282632D01*
X29365Y284146D01*
X28840Y285762D01*
X28681Y286767D01*
X37847Y286767D01*
X37847Y277601D01*
X36842Y277760D01*
G37*
%LPD*%
%LPC*%
G36*
X194563Y716533D02*
X194563Y716533D01*
X194563Y724155D01*
X196828Y724155D01*
X202185Y718798D01*
X202185Y716533D01*
X194563Y716533D01*
G37*
%LPD*%
%LPC*%
G36*
X183895Y716533D02*
X183895Y716533D01*
X183895Y718798D01*
X189252Y724155D01*
X191517Y724155D01*
X191517Y716533D01*
X183895Y716533D01*
G37*
%LPD*%
%LPC*%
G36*
X194563Y705865D02*
X194563Y705865D01*
X194563Y713487D01*
X202185Y713487D01*
X202185Y711222D01*
X196828Y705865D01*
X194563Y705865D01*
G37*
%LPD*%
%LPC*%
G36*
X189252Y705865D02*
X189252Y705865D01*
X183895Y711222D01*
X183895Y713487D01*
X191517Y713487D01*
X191517Y705865D01*
X189252Y705865D01*
G37*
%LPD*%
%LPC*%
G36*
X434593Y392683D02*
X434593Y392683D01*
X434593Y400116D01*
X435719Y399892D01*
X437371Y399207D01*
X438859Y398213D01*
X440123Y396949D01*
X441117Y395461D01*
X441802Y393809D01*
X442026Y392683D01*
X434593Y392683D01*
G37*
%LPD*%
%LPC*%
G36*
X424114Y392683D02*
X424114Y392683D01*
X424338Y393809D01*
X425023Y395461D01*
X426017Y396949D01*
X427281Y398213D01*
X428769Y399207D01*
X430421Y399892D01*
X431547Y400116D01*
X431547Y392683D01*
X424114Y392683D01*
G37*
%LPD*%
%LPC*%
G36*
X434593Y389637D02*
X434593Y389637D01*
X442026Y389637D01*
X441802Y388511D01*
X441117Y386859D01*
X440123Y385371D01*
X438859Y384107D01*
X437371Y383113D01*
X435719Y382428D01*
X434593Y382204D01*
X434593Y389637D01*
G37*
%LPD*%
%LPC*%
G36*
X430421Y382428D02*
X430421Y382428D01*
X428769Y383113D01*
X427281Y384107D01*
X426017Y385371D01*
X425023Y386859D01*
X424338Y388511D01*
X424114Y389637D01*
X431547Y389637D01*
X431547Y382204D01*
X430421Y382428D01*
G37*
%LPD*%
%LPC*%
G36*
X736599Y126999D02*
X736599Y126999D01*
X736599Y127001D01*
X736601Y127001D01*
X736601Y126999D01*
X736599Y126999D01*
G37*
%LPD*%
%LPC*%
G36*
X534669Y378459D02*
X534669Y378459D01*
X534669Y378461D01*
X534671Y378461D01*
X534671Y378459D01*
X534669Y378459D01*
G37*
%LPD*%
%LPC*%
G36*
X196849Y894079D02*
X196849Y894079D01*
X196849Y894081D01*
X196851Y894081D01*
X196851Y894079D01*
X196849Y894079D01*
G37*
%LPD*%
%LPC*%
G36*
X193039Y715009D02*
X193039Y715009D01*
X193039Y715011D01*
X193041Y715011D01*
X193041Y715009D01*
X193039Y715009D01*
G37*
%LPD*%
%LPC*%
G36*
X39369Y179069D02*
X39369Y179069D01*
X39369Y179071D01*
X39371Y179071D01*
X39371Y179069D01*
X39369Y179069D01*
G37*
%LPD*%
%LPC*%
G36*
X433069Y391159D02*
X433069Y391159D01*
X433069Y391161D01*
X433071Y391161D01*
X433071Y391159D01*
X433069Y391159D01*
G37*
%LPD*%
%LPC*%
G36*
X101649Y832249D02*
X101649Y832249D01*
X101649Y832251D01*
X101651Y832251D01*
X101651Y832249D01*
X101649Y832249D01*
G37*
%LPD*%
%LPC*%
G36*
X253999Y839469D02*
X253999Y839469D01*
X253999Y839471D01*
X254001Y839471D01*
X254001Y839469D01*
X253999Y839469D01*
G37*
%LPD*%
%LPC*%
G36*
X196849Y803909D02*
X196849Y803909D01*
X196849Y803911D01*
X196851Y803911D01*
X196851Y803909D01*
X196849Y803909D01*
G37*
%LPD*%
%LPC*%
G36*
X666749Y378459D02*
X666749Y378459D01*
X666749Y378461D01*
X666751Y378461D01*
X666751Y378459D01*
X666749Y378459D01*
G37*
%LPD*%
%LPC*%
G36*
X39369Y288289D02*
X39369Y288289D01*
X39369Y288291D01*
X39371Y288291D01*
X39371Y288289D01*
X39369Y288289D01*
G37*
%LPD*%
%LPC*%
G36*
X812799Y126999D02*
X812799Y126999D01*
X812799Y127001D01*
X812801Y127001D01*
X812801Y126999D01*
X812799Y126999D01*
G37*
%LPD*%
%LPC*%
G36*
X787399Y126999D02*
X787399Y126999D01*
X787399Y127001D01*
X787401Y127001D01*
X787401Y126999D01*
X787399Y126999D01*
G37*
%LPD*%
%LPC*%
G36*
X633729Y378459D02*
X633729Y378459D01*
X633729Y378461D01*
X633731Y378461D01*
X633731Y378459D01*
X633729Y378459D01*
G37*
%LPD*%
%LPC*%
G36*
X761999Y126999D02*
X761999Y126999D01*
X761999Y127001D01*
X762001Y127001D01*
X762001Y126999D01*
X761999Y126999D01*
G37*
%LPD*%
D10*
X812800Y261620D02*
X812800Y246380D01*
X787400Y246380D02*
X787400Y261620D01*
X762000Y261620D02*
X762000Y246380D01*
X736600Y246380D02*
X736600Y261620D01*
D11*
X254000Y839470D03*
D12*
X279400Y839470D03*
D10*
X812800Y198120D02*
X812800Y182880D01*
X787400Y182880D02*
X787400Y198120D01*
X762000Y198120D02*
X762000Y182880D01*
X736600Y182880D02*
X736600Y198120D01*
D13*
X196850Y803910D03*
D12*
X196850Y768350D03*
D10*
X626110Y48260D02*
X641350Y48260D01*
X641350Y73660D02*
X626110Y73660D01*
X626110Y99060D02*
X641350Y99060D01*
X641350Y124460D02*
X626110Y124460D01*
X626110Y149860D02*
X641350Y149860D01*
X641350Y175260D02*
X626110Y175260D01*
X626110Y200660D02*
X641350Y200660D01*
X641350Y226060D02*
X626110Y226060D01*
X626110Y251460D02*
X641350Y251460D01*
X641350Y276860D02*
X626110Y276860D01*
X626110Y302260D02*
X641350Y302260D01*
X641350Y327660D02*
X626110Y327660D01*
X626110Y353060D02*
X641350Y353060D01*
X641350Y378460D02*
X626110Y378460D01*
X626110Y403860D02*
X641350Y403860D01*
X659130Y48260D02*
X674370Y48260D01*
X674370Y73660D02*
X659130Y73660D01*
X659130Y99060D02*
X674370Y99060D01*
X674370Y124460D02*
X659130Y124460D01*
X659130Y149860D02*
X674370Y149860D01*
X674370Y175260D02*
X659130Y175260D01*
X659130Y200660D02*
X674370Y200660D01*
X674370Y226060D02*
X659130Y226060D01*
X659130Y251460D02*
X674370Y251460D01*
X674370Y276860D02*
X659130Y276860D01*
X659130Y302260D02*
X674370Y302260D01*
X674370Y327660D02*
X659130Y327660D01*
X659130Y353060D02*
X674370Y353060D01*
X674370Y378460D02*
X659130Y378460D01*
X659130Y403860D02*
X674370Y403860D01*
X255270Y48260D02*
X240030Y48260D01*
X240030Y73660D02*
X255270Y73660D01*
X255270Y99060D02*
X240030Y99060D01*
X240030Y124460D02*
X255270Y124460D01*
X255270Y149860D02*
X240030Y149860D01*
X240030Y175260D02*
X255270Y175260D01*
X255270Y200660D02*
X240030Y200660D01*
X240030Y226060D02*
X255270Y226060D01*
X255270Y251460D02*
X240030Y251460D01*
X240030Y276860D02*
X255270Y276860D01*
X255270Y302260D02*
X240030Y302260D01*
X240030Y327660D02*
X255270Y327660D01*
X255270Y353060D02*
X240030Y353060D01*
X240030Y378460D02*
X255270Y378460D01*
X255270Y403860D02*
X240030Y403860D01*
X273050Y48260D02*
X288290Y48260D01*
X288290Y73660D02*
X273050Y73660D01*
X273050Y99060D02*
X288290Y99060D01*
X288290Y124460D02*
X273050Y124460D01*
X273050Y149860D02*
X288290Y149860D01*
X288290Y175260D02*
X273050Y175260D01*
X273050Y200660D02*
X288290Y200660D01*
X288290Y226060D02*
X273050Y226060D01*
X273050Y251460D02*
X288290Y251460D01*
X288290Y276860D02*
X273050Y276860D01*
X273050Y302260D02*
X288290Y302260D01*
X288290Y327660D02*
X273050Y327660D01*
X273050Y353060D02*
X288290Y353060D01*
X288290Y378460D02*
X273050Y378460D01*
X273050Y403860D02*
X288290Y403860D01*
X284480Y881380D02*
X284480Y896620D01*
X309880Y896620D02*
X309880Y881380D01*
X257810Y697230D02*
X242570Y697230D01*
X242570Y722630D02*
X257810Y722630D01*
D14*
X45974Y26670D02*
X32766Y26670D01*
X32766Y52070D02*
X45974Y52070D01*
X45974Y77470D02*
X32766Y77470D01*
X32766Y102870D02*
X45974Y102870D01*
X45974Y128270D02*
X32766Y128270D01*
X32766Y153670D02*
X45974Y153670D01*
X45974Y179070D02*
X32766Y179070D01*
D10*
X812800Y134620D02*
X812800Y119380D01*
X787400Y119380D02*
X787400Y134620D01*
X762000Y134620D02*
X762000Y119380D01*
X736600Y119380D02*
X736600Y134620D01*
D15*
X39370Y262890D03*
D16*
X39370Y288290D03*
X39370Y313690D03*
X39370Y339090D03*
X39370Y364490D03*
X39370Y389890D03*
X39370Y415290D03*
X39370Y440690D03*
D13*
X196850Y894080D03*
D12*
X196850Y858520D03*
D15*
X227330Y506730D03*
D16*
X227330Y532130D03*
X227330Y557530D03*
X227330Y582930D03*
X201930Y582930D03*
X201930Y557530D03*
X201930Y532130D03*
X201930Y506730D03*
D17*
X131650Y872250D02*
X131650Y892250D01*
X68650Y892250D02*
X68650Y872250D01*
X91650Y832250D02*
X111650Y832250D01*
D18*
X193040Y664210D03*
X193040Y715010D03*
D19*
X399180Y952500D03*
D20*
X449180Y952500D03*
D19*
X538880Y952500D03*
D20*
X588880Y952500D03*
D19*
X678580Y952500D03*
D20*
X728580Y952500D03*
D19*
X804926Y445624D03*
D20*
X804926Y395624D03*
D21*
X388810Y403860D02*
X375730Y403860D01*
X375730Y378460D02*
X388810Y378460D01*
X388810Y353060D02*
X375730Y353060D01*
X375730Y327660D02*
X388810Y327660D01*
X388810Y302260D02*
X375730Y302260D01*
X375730Y276860D02*
X388810Y276860D01*
X388810Y251460D02*
X375730Y251460D01*
X375730Y226060D02*
X388810Y226060D01*
X388810Y200660D02*
X375730Y200660D01*
X375730Y175260D02*
X388810Y175260D01*
X388810Y149860D02*
X375730Y149860D01*
X375730Y124460D02*
X388810Y124460D01*
X528130Y403860D02*
X541210Y403860D01*
X541210Y378460D02*
X528130Y378460D01*
X528130Y353060D02*
X541210Y353060D01*
X541210Y200660D02*
X528130Y200660D01*
X528130Y175260D02*
X541210Y175260D01*
X541210Y149860D02*
X528130Y149860D01*
X528130Y124460D02*
X541210Y124460D01*
X541210Y48260D02*
X528130Y48260D01*
X388810Y48260D02*
X375730Y48260D01*
X375730Y73660D02*
X388810Y73660D01*
X388810Y99060D02*
X375730Y99060D01*
X528130Y73660D02*
X541210Y73660D01*
X541210Y99060D02*
X528130Y99060D01*
X528130Y327660D02*
X541210Y327660D01*
D22*
X483870Y391160D03*
X458470Y391160D03*
X433070Y391160D03*
D21*
X528130Y226060D02*
X541210Y226060D01*
X541210Y251460D02*
X528130Y251460D01*
X528130Y276860D02*
X541210Y276860D01*
X541210Y302260D02*
X528130Y302260D01*
D22*
X483870Y416560D03*
X458470Y416560D03*
X433070Y416560D03*
D23*
X139822Y708860D03*
X139822Y733860D03*
X120010Y733860D03*
X120010Y708860D03*
D24*
X92832Y661162D03*
X92832Y781558D03*
D10*
X812800Y325120D02*
X812800Y309880D01*
X787400Y309880D02*
X787400Y325120D01*
X762000Y325120D02*
X762000Y309880D01*
X736600Y309880D02*
X736600Y325120D01*
D25*
X201930Y481330D03*
D26*
X100330Y440690D03*
X100330Y415290D03*
X100330Y389890D03*
X100330Y364490D03*
X88900Y25400D03*
X88900Y50800D03*
X88900Y76200D03*
X88900Y101600D03*
X88900Y127000D03*
X90170Y215900D03*
X87630Y190500D03*
X90170Y165100D03*
X438658Y876300D03*
X409702Y876300D03*
X578358Y876300D03*
X549402Y876300D03*
X718058Y876300D03*
X689102Y876300D03*
X727710Y409702D03*
X727710Y438658D03*
D27*
X201168Y573024D02*
X201168Y582168D01*
X201168Y573024D02*
X187452Y559308D01*
X187452Y237744D01*
X239268Y185928D01*
X396240Y185928D01*
X533400Y48768D01*
X201168Y582168D02*
X201930Y582930D01*
X533400Y48768D02*
X534670Y48260D01*
X228600Y547116D02*
X228600Y556260D01*
X228600Y547116D02*
X239268Y536448D01*
X239268Y422148D01*
X227076Y409956D01*
X227076Y220980D01*
X246888Y201168D01*
X228600Y556260D02*
X227330Y557530D01*
X246888Y201168D02*
X247650Y200660D01*
X228600Y571500D02*
X228600Y582168D01*
X228600Y571500D02*
X242316Y557784D01*
X242316Y420624D01*
X230124Y408432D01*
X230124Y243840D01*
X246888Y227076D01*
X228600Y582168D02*
X227330Y582930D01*
X246888Y227076D02*
X247650Y226060D01*
X280416Y812292D02*
X280416Y838200D01*
X280416Y812292D02*
X725424Y367284D01*
X725424Y265176D01*
X736600Y254000D01*
X280416Y838200D02*
X279400Y839470D01*
X667512Y77724D02*
X667512Y74676D01*
X667512Y77724D02*
X725424Y135636D01*
X725424Y242316D01*
X736092Y252984D01*
X667512Y74676D02*
X666750Y73660D01*
X736092Y252984D02*
X736600Y254000D01*
X196850Y768350D02*
X138684Y710184D01*
X139822Y708860D01*
X227076Y542544D02*
X227076Y533400D01*
X227076Y542544D02*
X213360Y556260D01*
X213360Y594360D02*
X213360Y630936D01*
X213360Y594360D02*
X213360Y556260D01*
X213360Y630936D02*
X140208Y704088D01*
X140208Y708660D01*
X227076Y533400D02*
X227330Y532130D01*
X140208Y708660D02*
X139822Y708860D01*
X39624Y272796D02*
X39624Y263652D01*
X39624Y272796D02*
X184404Y417576D01*
X184404Y580644D01*
X198120Y594360D01*
X213360Y594360D01*
X39624Y263652D02*
X39370Y262890D01*
M02*
